Comme-Medium.ufo
<glyph name="exclam" format="1">
  <advance width="311"/>
  <unicode hex="0021"/>
  <outline>
    <contour>
      <point x="152" y="-5" type="curve" smooth="yes"/>
      <point x="188" y="-5"/>
      <point x="207" y="23"/>
      <point x="207" y="52" type="curve" smooth="yes"/>
      <point x="207" y="80"/>
      <point x="188" y="107"/>
      <point x="152" y="107" type="curve" smooth="yes"/>
      <point x="116" y="107"/>
      <point x="97" y="80"/>
      <point x="97" y="52" type="curve" smooth="yes"/>
      <point x="97" y="23"/>
      <point x="116" y="-5"/>
    </contour>
    <contour>
      <point x="134" y="189" type="line"/>
      <point x="171" y="189" type="line"/>
      <point x="194" y="571" type="line"/>
      <point x="194" y="638" type="line"/>
      <point x="109" y="638" type="line"/>
      <point x="109" y="571" type="line"/>
    </contour>
  </outline>
</glyph>
<glyph name="quotedbl" format="1">
  <advance width="315"/>
  <unicode hex="0022"/>
  <outline>
    <contour>
      <point x="212" y="420" type="line"/>
      <point x="256" y="420" type="line"/>
      <point x="273" y="658" type="line"/>
      <point x="182" y="658" type="line"/>
    </contour>
    <contour>
      <point x="74" y="420" type="line"/>
      <point x="119" y="420" type="line"/>
      <point x="135" y="658" type="line"/>
      <point x="44" y="658" type="line"/>
    </contour>
  </outline>
</glyph>
<glyph name="numbersign" format="1">
  <advance width="493"/>
  <unicode hex="0023"/>
  <outline>
    <contour>
      <point x="171" y="235" type="line"/>
      <point x="207" y="420" type="line"/>
      <point x="328" y="420" type="line"/>
      <point x="291" y="235" type="line"/>
    </contour>
    <contour>
      <point x="71" y="-6" type="line"/>
      <point x="124" y="-6" type="line"/>
      <point x="162" y="189" type="line"/>
      <point x="282" y="189" type="line"/>
      <point x="244" y="-6" type="line"/>
      <point x="296" y="-6" type="line"/>
      <point x="335" y="189" type="line"/>
      <point x="425" y="189" type="line"/>
      <point x="432" y="235" type="line"/>
      <point x="344" y="235" type="line"/>
      <point x="380" y="420" type="line"/>
      <point x="465" y="420" type="line"/>
      <point x="472" y="465" type="line"/>
      <point x="389" y="465" type="line"/>
      <point x="428" y="658" type="line"/>
      <point x="376" y="658" type="line"/>
      <point x="336" y="465" type="line"/>
      <point x="216" y="465" type="line"/>
      <point x="256" y="658" type="line"/>
      <point x="202" y="658" type="line"/>
      <point x="163" y="465" type="line"/>
      <point x="76" y="465" type="line"/>
      <point x="70" y="420" type="line"/>
      <point x="154" y="420" type="line"/>
      <point x="118" y="235" type="line"/>
      <point x="34" y="235" type="line"/>
      <point x="28" y="189" type="line"/>
      <point x="109" y="189" type="line"/>
    </contour>
  </outline>
</glyph>
<glyph name="dollar" format="1">
  <advance width="524"/>
  <unicode hex="0024"/>
  <outline>
    <component base="S"/>
    <contour>
      <point x="234" y="19" type="line"/>
      <point x="234" y="-126" type="line"/>
      <point x="291" y="-126" type="line"/>
      <point x="294" y="19" type="line"/>
    </contour>
    <contour>
      <point x="238" y="759" type="line"/>
      <point x="233" y="614" type="line"/>
      <point x="296" y="614" type="line"/>
      <point x="296" y="759" type="line"/>
    </contour>
  </outline>
</glyph>
<glyph name="percent" format="1">
  <advance width="748"/>
  <unicode hex="0025"/>
  <outline>
    <contour>
      <point x="546" y="-4" type="curve" smooth="yes"/>
      <point x="645" y="-4"/>
      <point x="689" y="68"/>
      <point x="689" y="163" type="curve" smooth="yes"/>
      <point x="689" y="259"/>
      <point x="646" y="331"/>
      <point x="546" y="331" type="curve" smooth="yes"/>
      <point x="448" y="331"/>
      <point x="403" y="257"/>
      <point x="403" y="163" type="curve" smooth="yes"/>
      <point x="403" y="68"/>
      <point x="446" y="-4"/>
    </contour>
    <contour>
      <point x="547" y="47" type="curve" smooth="yes"/>
      <point x="485" y="47"/>
      <point x="467" y="97"/>
      <point x="467" y="164" type="curve" smooth="yes"/>
      <point x="467" y="229"/>
      <point x="485" y="279"/>
      <point x="547" y="279" type="curve" smooth="yes"/>
      <point x="609" y="279"/>
      <point x="627" y="232"/>
      <point x="627" y="164" type="curve" smooth="yes"/>
      <point x="627" y="99"/>
      <point x="609" y="47"/>
    </contour>
    <contour>
      <point x="146" y="0" type="line"/>
      <point x="216" y="0" type="line"/>
      <point x="571" y="634" type="line"/>
      <point x="505" y="634" type="line"/>
    </contour>
    <contour>
      <point x="172" y="308" type="curve" smooth="yes"/>
      <point x="271" y="308"/>
      <point x="316" y="382"/>
      <point x="316" y="476" type="curve" smooth="yes"/>
      <point x="316" y="572"/>
      <point x="272" y="642"/>
      <point x="172" y="642" type="curve" smooth="yes"/>
      <point x="74" y="642"/>
      <point x="33" y="571"/>
      <point x="33" y="476" type="curve" smooth="yes"/>
      <point x="33" y="382"/>
      <point x="72" y="308"/>
    </contour>
    <contour>
      <point x="173" y="360" type="curve" smooth="yes"/>
      <point x="111" y="360"/>
      <point x="92" y="409"/>
      <point x="92" y="476" type="curve" smooth="yes"/>
      <point x="92" y="541"/>
      <point x="111" y="590"/>
      <point x="173" y="590" type="curve" smooth="yes"/>
      <point x="235" y="590"/>
      <point x="253" y="543"/>
      <point x="253" y="476" type="curve" smooth="yes"/>
      <point x="253" y="411"/>
      <point x="235" y="360"/>
    </contour>
  </outline>
</glyph>
<glyph name="ampersand" format="1">
  <advance width="609"/>
  <unicode hex="0026"/>
  <outline>
    <contour>
      <point x="262" y="580" type="curve" smooth="yes"/>
      <point x="313" y="580"/>
      <point x="342" y="553"/>
      <point x="342" y="505" type="curve" smooth="yes"/>
      <point x="342" y="446"/>
      <point x="288" y="409"/>
      <point x="232" y="379" type="curve"/>
      <point x="187" y="433"/>
      <point x="173" y="464"/>
      <point x="173" y="504" type="curve" smooth="yes"/>
      <point x="173" y="551"/>
      <point x="212" y="580"/>
    </contour>
    <contour>
      <point x="40" y="173" type="curve" smooth="yes"/>
      <point x="40" y="62"/>
      <point x="120" y="-8"/>
      <point x="242" y="-8" type="curve" smooth="yes"/>
      <point x="324" y="-8"/>
      <point x="386" y="24"/>
      <point x="435" y="70" type="curve"/>
      <point x="514" y="-11" type="line"/>
      <point x="564" y="37" type="line"/>
      <point x="481" y="121" type="line"/>
      <point x="525" y="178"/>
      <point x="557" y="244"/>
      <point x="582" y="293" type="curve"/>
      <point x="528" y="329" type="line"/>
      <point x="493" y="262"/>
      <point x="463" y="211"/>
      <point x="433" y="171" type="curve"/>
      <point x="272" y="334" type="line"/>
      <point x="345" y="374"/>
      <point x="418" y="422"/>
      <point x="418" y="507" type="curve" smooth="yes"/>
      <point x="418" y="598"/>
      <point x="345" y="641"/>
      <point x="260" y="641" type="curve" smooth="yes"/>
      <point x="169" y="641"/>
      <point x="97" y="586"/>
      <point x="97" y="499" type="curve" smooth="yes"/>
      <point x="97" y="445"/>
      <point x="124" y="395"/>
      <point x="171" y="346" type="curve"/>
      <point x="95" y="306"/>
      <point x="40" y="262"/>
    </contour>
    <contour>
      <point x="251" y="59" type="curve" smooth="yes"/>
      <point x="170" y="59"/>
      <point x="122" y="102"/>
      <point x="122" y="175" type="curve" smooth="yes"/>
      <point x="122" y="236"/>
      <point x="162" y="272"/>
      <point x="212" y="298" type="curve"/>
      <point x="388" y="119" type="line"/>
      <point x="344" y="77"/>
      <point x="302" y="59"/>
    </contour>
  </outline>
</glyph>
<glyph name="quotesingle" format="1">
  <advance width="196"/>
  <unicode hex="0027"/>
  <outline>
    <contour>
      <point x="73" y="406" type="line"/>
      <point x="121" y="406" type="line"/>
      <point x="135" y="650" type="line"/>
      <point x="47" y="650" type="line"/>
    </contour>
  </outline>
</glyph>
<glyph name="parenright" format="1">
  <advance width="341"/>
  <unicode hex="0029"/>
  <outline>
    <contour>
      <point x="253" y="288" type="curve" smooth="yes"/>
      <point x="253" y="431"/>
      <point x="210" y="576"/>
      <point x="140" y="683" type="curve"/>
      <point x="69" y="683" type="line"/>
      <point x="69" y="668" type="line"/>
      <point x="139" y="558"/>
      <point x="177" y="437"/>
      <point x="177" y="288" type="curve" smooth="yes"/>
      <point x="177" y="139"/>
      <point x="139" y="18"/>
      <point x="69" y="-92" type="curve"/>
      <point x="69" y="-106" type="line"/>
      <point x="140" y="-106" type="line"/>
      <point x="210" y="1"/>
      <point x="253" y="145"/>
    </contour>
  </outline>
</glyph>
<glyph name="asterisk" format="1">
  <advance width="414"/>
  <unicode hex="002A"/>
  <outline>
    <contour>
      <point x="132" y="243" type="line"/>
      <point x="207" y="387" type="line"/>
      <point x="287" y="243" type="line"/>
      <point x="305" y="254"/>
      <point x="336" y="273"/>
      <point x="354" y="284" type="curve"/>
      <point x="326" y="321"/>
      <point x="270" y="396"/>
      <point x="252" y="418" type="curve"/>
      <point x="401" y="451" type="line"/>
      <point x="379" y="527" type="line"/>
      <point x="234" y="466" type="line"/>
      <point x="249" y="633" type="line"/>
      <point x="169" y="633" type="line"/>
      <point x="184" y="466" type="line"/>
      <point x="40" y="527" type="line"/>
      <point x="18" y="451" type="line"/>
      <point x="164" y="418" type="line"/>
      <point x="64" y="284" type="line"/>
    </contour>
  </outline>
</glyph>
<glyph name="plus" format="1">
  <advance width="493"/>
  <unicode hex="002B"/>
  <outline>
    <contour>
      <point x="204" y="505" type="line"/>
      <point x="204" y="344" type="line"/>
      <point x="49" y="344" type="line"/>
      <point x="49" y="263" type="line"/>
      <point x="203" y="263" type="line"/>
      <point x="203" y="98" type="line"/>
      <point x="287" y="98" type="line"/>
      <point x="287" y="263" type="line"/>
      <point x="440" y="263" type="line"/>
      <point x="440" y="344" type="line"/>
      <point x="287" y="344" type="line"/>
      <point x="287" y="505" type="line"/>
    </contour>
  </outline>
</glyph>
<glyph name="comma" format="1">
  <advance width="274"/>
  <unicode hex="002C"/>
  <outline>
    <contour>
      <point x="83" y="-134" type="curve"/>
      <point x="137" y="-134" type="line"/>
      <point x="188" y="60" type="line"/>
      <point x="188" y="106" type="line"/>
      <point x="99" y="106" type="line"/>
      <point x="99" y="98"/>
      <point x="83" y="-134"/>
    </contour>
  </outline>
</glyph>
<glyph name="hyphen" format="1">
  <advance width="377"/>
  <unicode hex="002D"/>
  <outline>
    <contour>
      <point x="71" y="216" type="line"/>
      <point x="305" y="216" type="line"/>
      <point x="305" y="284" type="line"/>
      <point x="71" y="284" type="line"/>
    </contour>
  </outline>
</glyph>
<glyph name="period" format="1">
  <advance width="280"/>
  <unicode hex="002E"/>
  <outline>
    <contour>
      <point x="141" y="-4" type="curve" smooth="yes"/>
      <point x="174" y="-4"/>
      <point x="192" y="15"/>
      <point x="192" y="52" type="curve" smooth="yes"/>
      <point x="192" y="88"/>
      <point x="174" y="107"/>
      <point x="141" y="107" type="curve" smooth="yes"/>
      <point x="107" y="107"/>
      <point x="89" y="88"/>
      <point x="89" y="52" type="curve" smooth="yes"/>
      <point x="89" y="15"/>
      <point x="107" y="-4"/>
    </contour>
  </outline>
</glyph>
<glyph name="slash" format="1">
  <advance width="420"/>
  <unicode hex="002F"/>
  <outline>
    <contour>
      <point x="49" y="-66" type="line"/>
      <point x="120" y="-66" type="line"/>
      <point x="387" y="670" type="line"/>
      <point x="315" y="670" type="line"/>
    </contour>
  </outline>
</glyph>
<glyph name="zero" format="1">
  <advance width="550"/>
  <unicode hex="0030"/>
  <outline>
    <contour>
      <point x="277" y="-9" type="curve" smooth="yes"/>
      <point x="428" y="-9"/>
      <point x="499" y="112"/>
      <point x="499" y="305" type="curve" smooth="yes"/>
      <point x="499" y="505"/>
      <point x="423" y="634"/>
      <point x="277" y="634" type="curve" smooth="yes"/>
      <point x="130" y="634"/>
      <point x="52" y="505"/>
      <point x="52" y="305" type="curve" smooth="yes"/>
      <point x="52" y="112"/>
      <point x="126" y="-9"/>
    </contour>
    <contour>
      <point x="277" y="68" type="curve" smooth="yes"/>
      <point x="199" y="68"/>
      <point x="150" y="139"/>
      <point x="150" y="307" type="curve" smooth="yes"/>
      <point x="150" y="468"/>
      <point x="199" y="557"/>
      <point x="277" y="557" type="curve" smooth="yes"/>
      <point x="355" y="557"/>
      <point x="401" y="477"/>
      <point x="401" y="307" type="curve" smooth="yes"/>
      <point x="401" y="139"/>
      <point x="355" y="68"/>
    </contour>
  </outline>
</glyph>
<glyph name="one" format="1">
  <advance width="550"/>
  <unicode hex="0031"/>
  <outline>
    <contour>
      <point x="84" y="0" type="line"/>
      <point x="494" y="0" type="line"/>
      <point x="494" y="68" type="line"/>
      <point x="347" y="68" type="line"/>
      <point x="347" y="626" type="line"/>
      <point x="260" y="626" type="line"/>
      <point x="224" y="601"/>
      <point x="131" y="566"/>
      <point x="89" y="555" type="curve"/>
      <point x="89" y="485" type="line"/>
      <point x="125" y="489"/>
      <point x="203" y="516"/>
      <point x="250" y="541" type="curve"/>
      <point x="250" y="68" type="line"/>
      <point x="84" y="68" type="line"/>
    </contour>
  </outline>
</glyph>
<glyph name="two" format="1">
  <advance width="550"/>
  <unicode hex="0032"/>
  <outline>
    <contour>
      <point x="119" y="496" type="line"/>
      <point x="152" y="534"/>
      <point x="207" y="558"/>
      <point x="261" y="558" type="curve" smooth="yes"/>
      <point x="323" y="558"/>
      <point x="379" y="523"/>
      <point x="379" y="449" type="curve" smooth="yes"/>
      <point x="379" y="387"/>
      <point x="354" y="357"/>
      <point x="298" y="303" type="curve" smooth="yes"/>
      <point x="66" y="76" type="line"/>
      <point x="81" y="0" type="line"/>
      <point x="458" y="0" type="line"/>
      <point x="461" y="73" type="line"/>
      <point x="175" y="73" type="line"/>
      <point x="353" y="243" type="line" smooth="yes"/>
      <point x="438" y="324"/>
      <point x="469" y="370"/>
      <point x="469" y="451" type="curve" smooth="yes"/>
      <point x="469" y="565"/>
      <point x="383" y="634"/>
      <point x="263" y="634" type="curve" smooth="yes"/>
      <point x="183" y="634"/>
      <point x="108" y="599"/>
      <point x="64" y="548" type="curve"/>
      <point x="110" y="496" type="line"/>
    </contour>
  </outline>
</glyph>
<glyph name="three" format="1">
  <advance width="532"/>
  <unicode hex="0033"/>
  <outline>
    <contour>
      <point x="260" y="-9" type="curve" smooth="yes"/>
      <point x="387" y="-9"/>
      <point x="468" y="64"/>
      <point x="468" y="168" type="curve" smooth="yes"/>
      <point x="468" y="248"/>
      <point x="424" y="316"/>
      <point x="330" y="330" type="curve"/>
      <point x="415" y="347"/>
      <point x="450" y="403"/>
      <point x="450" y="468" type="curve" smooth="yes"/>
      <point x="451" y="573"/>
      <point x="379" y="634"/>
      <point x="261" y="634" type="curve" smooth="yes"/>
      <point x="193" y="634"/>
      <point x="104" y="609"/>
      <point x="64" y="531" type="curve"/>
      <point x="114" y="486" type="line"/>
      <point x="123" y="486" type="line"/>
      <point x="157" y="538"/>
      <point x="203" y="557"/>
      <point x="256" y="557" type="curve" smooth="yes"/>
      <point x="258" y="557" type="line" smooth="yes"/>
      <point x="325" y="557"/>
      <point x="358" y="522"/>
      <point x="358" y="464" type="curve" smooth="yes"/>
      <point x="358" y="461" type="line" smooth="yes"/>
      <point x="358" y="372"/>
      <point x="280" y="360"/>
      <point x="207" y="360" type="curve" smooth="yes"/>
      <point x="172" y="360" type="line"/>
      <point x="183" y="290" type="line"/>
      <point x="207" y="290" type="line" smooth="yes"/>
      <point x="313" y="290"/>
      <point x="372" y="264"/>
      <point x="372" y="171" type="curve" smooth="yes"/>
      <point x="372" y="102"/>
      <point x="324" y="68"/>
      <point x="257" y="68" type="curve" smooth="yes"/>
      <point x="210" y="68"/>
      <point x="154" y="85"/>
      <point x="121" y="134" type="curve"/>
      <point x="114" y="134" type="line"/>
      <point x="65" y="89" type="line"/>
      <point x="101" y="26"/>
      <point x="181" y="-9"/>
    </contour>
  </outline>
</glyph>
<glyph name="four" format="1">
  <advance width="550"/>
  <unicode hex="0034"/>
  <outline>
    <contour>
      <point x="141" y="225" type="line"/>
      <point x="327" y="520" type="line"/>
      <point x="327" y="225" type="line"/>
    </contour>
    <contour>
      <point x="327" y="0" type="line"/>
      <point x="422" y="0" type="line"/>
      <point x="422" y="156" type="line"/>
      <point x="495" y="156" type="line"/>
      <point x="500" y="226" type="line"/>
      <point x="422" y="226" type="line"/>
      <point x="422" y="626" type="line"/>
      <point x="316" y="626" type="line"/>
      <point x="54" y="224" type="line"/>
      <point x="72" y="156" type="line"/>
      <point x="327" y="156" type="line"/>
    </contour>
  </outline>
</glyph>
<glyph name="five" format="1">
  <advance width="550"/>
  <unicode hex="0035"/>
  <outline>
    <contour>
      <point x="287" y="336" type="curve" smooth="yes"/>
      <point x="360" y="336"/>
      <point x="399" y="272"/>
      <point x="399" y="204" type="curve" smooth="yes"/>
      <point x="399" y="132"/>
      <point x="358" y="68"/>
      <point x="271" y="68" type="curve" smooth="yes"/>
      <point x="212" y="68"/>
      <point x="167" y="90"/>
      <point x="134" y="137" type="curve"/>
      <point x="127" y="137" type="line"/>
      <point x="76" y="86" type="line"/>
      <point x="106" y="38"/>
      <point x="174" y="-9"/>
      <point x="274" y="-9" type="curve" smooth="yes"/>
      <point x="421" y="-9"/>
      <point x="494" y="96"/>
      <point x="494" y="204" type="curve" smooth="yes"/>
      <point x="494" y="303"/>
      <point x="430" y="403"/>
      <point x="302" y="403" type="curve" smooth="yes"/>
      <point x="255" y="403"/>
      <point x="221" y="388"/>
      <point x="192" y="363" type="curve"/>
      <point x="211" y="556" type="line"/>
      <point x="448" y="556" type="line"/>
      <point x="458" y="626" type="line"/>
      <point x="128" y="626" type="line"/>
      <point x="107" y="294" type="line"/>
      <point x="180" y="282" type="line"/>
      <point x="203" y="317"/>
      <point x="241" y="336"/>
    </contour>
  </outline>
</glyph>
<glyph name="six" format="1">
  <advance width="550"/>
  <unicode hex="0036"/>
  <outline>
    <contour>
      <point x="281" y="62" type="curve" smooth="yes"/>
      <point x="204" y="62"/>
      <point x="162" y="121"/>
      <point x="162" y="191" type="curve" smooth="yes"/>
      <point x="162" y="284"/>
      <point x="229" y="319"/>
      <point x="283" y="319" type="curve" smooth="yes"/>
      <point x="358" y="319"/>
      <point x="402" y="267"/>
      <point x="402" y="193" type="curve" smooth="yes"/>
      <point x="402" y="123"/>
      <point x="358" y="62"/>
    </contour>
    <contour>
      <point x="282" y="-9" type="curve" smooth="yes"/>
      <point x="412" y="-9"/>
      <point x="494" y="79"/>
      <point x="494" y="192" type="curve" smooth="yes"/>
      <point x="494" y="312"/>
      <point x="412" y="383"/>
      <point x="315" y="383" type="curve" smooth="yes"/>
      <point x="270" y="383"/>
      <point x="234" y="366"/>
      <point x="209" y="347" type="curve"/>
      <point x="275" y="436"/>
      <point x="341" y="525"/>
      <point x="407" y="615" type="curve"/>
      <point x="407" y="626" type="line"/>
      <point x="306" y="626" type="line"/>
      <point x="156" y="418" type="line" smooth="yes"/>
      <point x="102" y="343"/>
      <point x="69" y="283"/>
      <point x="69" y="194" type="curve" smooth="yes"/>
      <point x="69" y="84"/>
      <point x="147" y="-9"/>
    </contour>
  </outline>
</glyph>
<glyph name="seven" format="1">
  <advance width="550"/>
  <unicode hex="0037"/>
  <outline>
    <contour>
      <point x="146" y="0" type="line"/>
      <point x="243" y="0" type="line"/>
      <point x="473" y="557" type="line"/>
      <point x="472" y="626" type="line"/>
      <point x="74" y="626" type="line"/>
      <point x="82" y="553" type="line"/>
      <point x="373" y="553" type="line"/>
    </contour>
  </outline>
</glyph>
<glyph name="eight" format="1">
  <advance width="550"/>
  <unicode hex="0038"/>
  <outline>
    <contour>
      <point x="276" y="353" type="curve"/>
      <point x="206" y="371"/>
      <point x="168" y="414"/>
      <point x="168" y="477" type="curve" smooth="yes"/>
      <point x="168" y="534"/>
      <point x="211" y="568"/>
      <point x="276" y="568" type="curve" smooth="yes"/>
      <point x="341" y="568"/>
      <point x="383" y="534"/>
      <point x="383" y="477" type="curve" smooth="yes"/>
      <point x="383" y="415"/>
      <point x="347" y="371"/>
    </contour>
    <contour>
      <point x="276" y="59" type="curve" smooth="yes"/>
      <point x="198" y="59"/>
      <point x="156" y="95"/>
      <point x="156" y="165" type="curve" smooth="yes"/>
      <point x="156" y="237"/>
      <point x="207" y="281"/>
      <point x="276" y="298" type="curve"/>
      <point x="345" y="281"/>
      <point x="394" y="236"/>
      <point x="394" y="166" type="curve" smooth="yes"/>
      <point x="394" y="93"/>
      <point x="357" y="59"/>
    </contour>
    <contour>
      <point x="276" y="-9" type="curve" smooth="yes"/>
      <point x="397" y="-9"/>
      <point x="487" y="47"/>
      <point x="487" y="159" type="curve" smooth="yes"/>
      <point x="487" y="242"/>
      <point x="440" y="305"/>
      <point x="366" y="330" type="curve"/>
      <point x="431" y="355"/>
      <point x="475" y="402"/>
      <point x="475" y="478" type="curve" smooth="yes"/>
      <point x="475" y="579"/>
      <point x="391" y="634"/>
      <point x="276" y="634" type="curve" smooth="yes"/>
      <point x="161" y="634"/>
      <point x="76" y="579"/>
      <point x="76" y="478" type="curve" smooth="yes"/>
      <point x="76" y="401"/>
      <point x="124" y="352"/>
      <point x="188" y="330" type="curve"/>
      <point x="111" y="303"/>
      <point x="63" y="246"/>
      <point x="63" y="159" type="curve" smooth="yes"/>
      <point x="63" y="47"/>
      <point x="156" y="-9"/>
    </contour>
  </outline>
</glyph>
<glyph name="nine" format="1">
  <advance width="550"/>
  <unicode hex="0039"/>
  <outline>
    <contour>
      <point x="409" y="435" type="curve" smooth="yes"/>
      <point x="409" y="341"/>
      <point x="339" y="306"/>
      <point x="283" y="306" type="curve" smooth="yes"/>
      <point x="207" y="306"/>
      <point x="165" y="362"/>
      <point x="165" y="435" type="curve" smooth="yes"/>
      <point x="165" y="505"/>
      <point x="211" y="563"/>
      <point x="288" y="563" type="curve" smooth="yes"/>
      <point x="365" y="563"/>
      <point x="409" y="505"/>
    </contour>
    <contour>
      <point x="149" y="0" type="line"/>
      <point x="251" y="0" type="line"/>
      <point x="410" y="209" type="line" smooth="yes"/>
      <point x="464" y="281"/>
      <point x="501" y="342"/>
      <point x="501" y="431" type="curve" smooth="yes"/>
      <point x="501" y="541"/>
      <point x="423" y="634"/>
      <point x="288" y="634" type="curve" smooth="yes"/>
      <point x="158" y="634"/>
      <point x="73" y="548"/>
      <point x="73" y="435" type="curve" smooth="yes"/>
      <point x="73" y="315"/>
      <point x="159" y="242"/>
      <point x="257" y="242" type="curve" smooth="yes"/>
      <point x="290" y="242"/>
      <point x="325" y="251"/>
      <point x="352" y="268" type="curve"/>
      <point x="285" y="181"/>
      <point x="217" y="97"/>
      <point x="149" y="11" type="curve"/>
    </contour>
  </outline>
</glyph>
<glyph name="colon" format="1">
  <advance width="286"/>
  <unicode hex="003A"/>
  <outline>
    <contour>
      <point x="143" y="-4" type="curve" smooth="yes"/>
      <point x="180" y="-4"/>
      <point x="200" y="21"/>
      <point x="200" y="54" type="curve" smooth="yes"/>
      <point x="200" y="86"/>
      <point x="180" y="111"/>
      <point x="143" y="111" type="curve" smooth="yes"/>
      <point x="106" y="111"/>
      <point x="85" y="86"/>
      <point x="85" y="54" type="curve" smooth="yes"/>
      <point x="85" y="21"/>
      <point x="106" y="-4"/>
    </contour>
    <contour>
      <point x="143" y="353" type="curve" smooth="yes"/>
      <point x="180" y="353"/>
      <point x="200" y="377"/>
      <point x="200" y="410" type="curve" smooth="yes"/>
      <point x="200" y="442"/>
      <point x="180" y="469"/>
      <point x="143" y="469" type="curve" smooth="yes"/>
      <point x="106" y="469"/>
      <point x="85" y="442"/>
      <point x="85" y="410" type="curve" smooth="yes"/>
      <point x="85" y="377"/>
      <point x="106" y="353"/>
    </contour>
  </outline>
</glyph>
<glyph name="semicolon" format="1">
  <advance width="311"/>
  <unicode hex="003B"/>
  <outline>
    <contour>
      <point x="161" y="353" type="curve" smooth="yes"/>
      <point x="198" y="353"/>
      <point x="218" y="378"/>
      <point x="218" y="410" type="curve" smooth="yes"/>
      <point x="218" y="442"/>
      <point x="198" y="469"/>
      <point x="161" y="469" type="curve" smooth="yes"/>
      <point x="124" y="469"/>
      <point x="103" y="442"/>
      <point x="103" y="410" type="curve" smooth="yes"/>
      <point x="103" y="377"/>
      <point x="125" y="353"/>
    </contour>
    <contour>
      <point x="103" y="-134" type="curve"/>
      <point x="157" y="-134" type="line"/>
      <point x="208" y="60" type="line"/>
      <point x="208" y="106" type="line"/>
      <point x="120" y="106" type="line"/>
      <point x="120" y="98"/>
      <point x="103" y="-134"/>
    </contour>
  </outline>
</glyph>
<glyph name="less" format="1">
  <advance width="474"/>
  <unicode hex="003C"/>
  <outline>
    <contour>
      <point x="432" y="64" type="line"/>
      <point x="432" y="139" type="line"/>
      <point x="128" y="285" type="line"/>
      <point x="432" y="442" type="line"/>
      <point x="432" y="516" type="line"/>
      <point x="32" y="305" type="line"/>
      <point x="32" y="261" type="line"/>
    </contour>
  </outline>
</glyph>
<glyph name="equal" format="1">
  <advance width="475"/>
  <unicode hex="003D"/>
  <outline>
    <contour>
      <point x="52" y="257" type="line"/>
      <point x="52" y="185" type="line"/>
      <point x="424" y="185" type="line"/>
      <point x="424" y="257" type="line"/>
    </contour>
    <contour>
      <point x="52" y="426" type="line"/>
      <point x="52" y="355" type="line"/>
      <point x="424" y="355" type="line"/>
      <point x="424" y="426" type="line"/>
    </contour>
  </outline>
</glyph>
<glyph name="greater" format="1">
  <advance width="474"/>
  <unicode hex="003E"/>
  <outline>
    <contour>
      <point x="40" y="445" type="line"/>
      <point x="340" y="285" type="line"/>
      <point x="39" y="142" type="line"/>
      <point x="39" y="66" type="line"/>
      <point x="440" y="260" type="line"/>
      <point x="440" y="305" type="line"/>
      <point x="40" y="518" type="line"/>
    </contour>
  </outline>
</glyph>
<glyph name="question" format="1">
  <advance width="408"/>
  <unicode hex="003F"/>
  <outline>
    <contour>
      <point x="159" y="-6" type="curve" smooth="yes"/>
      <point x="195" y="-6"/>
      <point x="213" y="18"/>
      <point x="213" y="48" type="curve" smooth="yes"/>
      <point x="213" y="77"/>
      <point x="195" y="102"/>
      <point x="159" y="102" type="curve" smooth="yes"/>
      <point x="122" y="102"/>
      <point x="104" y="77"/>
      <point x="104" y="48" type="curve" smooth="yes"/>
      <point x="104" y="18"/>
      <point x="122" y="-6"/>
    </contour>
    <contour>
      <point x="142" y="192" type="curve"/>
      <point x="177" y="188" type="line"/>
      <point x="231" y="337"/>
      <point x="343" y="357"/>
      <point x="343" y="494" type="curve" smooth="yes"/>
      <point x="343" y="597"/>
      <point x="269" y="643"/>
      <point x="187" y="643" type="curve" smooth="yes"/>
      <point x="134" y="643"/>
      <point x="85" y="626"/>
      <point x="50" y="597" type="curve"/>
      <point x="70" y="529" type="line"/>
      <point x="92" y="543"/>
      <point x="134" y="564"/>
      <point x="175" y="564" type="curve" smooth="yes"/>
      <point x="228" y="564"/>
      <point x="255" y="534"/>
      <point x="255" y="480" type="curve" smooth="yes"/>
      <point x="255" y="395"/>
      <point x="160" y="331"/>
    </contour>
  </outline>
</glyph>
<glyph name="at" format="1">
  <advance width="839"/>
  <unicode hex="0040"/>
  <outline>
    <contour>
      <point x="391" y="155" type="curve" smooth="yes"/>
      <point x="343" y="155"/>
      <point x="322" y="192"/>
      <point x="322" y="254" type="curve" smooth="yes"/>
      <point x="322" y="347"/>
      <point x="374" y="421"/>
      <point x="450" y="421" type="curve" smooth="yes"/>
      <point x="462" y="421"/>
      <point x="487" y="418"/>
      <point x="505" y="414" type="curve"/>
      <point x="488" y="306" type="line" smooth="yes"/>
      <point x="474" y="215"/>
      <point x="453" y="155"/>
    </contour>
    <contour>
      <point x="411" y="-77" type="curve" smooth="yes"/>
      <point x="495" y="-77"/>
      <point x="583" y="-58"/>
      <point x="638" y="-18" type="curve"/>
      <point x="617" y="34" type="line"/>
      <point x="559" y="-2"/>
      <point x="484" y="-16"/>
      <point x="412" y="-16" type="curve" smooth="yes"/>
      <point x="236" y="-16"/>
      <point x="139" y="104"/>
      <point x="139" y="270" type="curve" smooth="yes"/>
      <point x="139" y="444"/>
      <point x="253" y="585"/>
      <point x="438" y="585" type="curve" smooth="yes"/>
      <point x="620" y="585"/>
      <point x="706" y="472"/>
      <point x="706" y="334" type="curve" smooth="yes"/>
      <point x="706" y="217"/>
      <point x="655" y="158"/>
      <point x="608" y="158" type="curve" smooth="yes"/>
      <point x="579" y="158"/>
      <point x="557" y="182"/>
      <point x="557" y="217" type="curve" smooth="yes"/>
      <point x="557" y="271"/>
      <point x="573" y="351"/>
      <point x="585" y="441" type="curve"/>
      <point x="549" y="459"/>
      <point x="490" y="476"/>
      <point x="443" y="476" type="curve" smooth="yes"/>
      <point x="316" y="476"/>
      <point x="249" y="362"/>
      <point x="249" y="253" type="curve" smooth="yes"/>
      <point x="249" y="166"/>
      <point x="296" y="97"/>
      <point x="384" y="97" type="curve" smooth="yes"/>
      <point x="443" y="97"/>
      <point x="484" y="142"/>
      <point x="505" y="193" type="curve"/>
      <point x="518" y="135"/>
      <point x="580" y="124"/>
      <point x="608" y="99" type="curve"/>
      <point x="684" y="99"/>
      <point x="774" y="178"/>
      <point x="774" y="331" type="curve" smooth="yes"/>
      <point x="774" y="524"/>
      <point x="628" y="647"/>
      <point x="440" y="647" type="curve" smooth="yes"/>
      <point x="222" y="647"/>
      <point x="63" y="486"/>
      <point x="63" y="272" type="curve" smooth="yes"/>
      <point x="63" y="54"/>
      <point x="205" y="-77"/>
    </contour>
  </outline>
</glyph>
<glyph name="A" format="1">
  <advance width="618"/>
  <unicode hex="0041"/>
  <outline>
    <contour>
      <point x="255" y="626" type="line"/>
      <point x="26" y="0" type="line"/>
      <point x="125" y="0" type="line"/>
      <point x="193" y="186" type="line"/>
      <point x="425" y="186" type="line"/>
      <point x="494" y="0" type="line"/>
      <point x="593" y="0" type="line"/>
      <point x="364" y="626" type="line"/>
    </contour>
    <contour>
      <point x="214" y="253" type="line"/>
      <point x="309" y="535" type="line"/>
      <point x="405" y="253" type="line"/>
    </contour>
    <contour>
      <point x="309" y="0" type="move" name="bot"/>
    </contour>
    <contour>
      <point x="309" y="626" type="move" name="top"/>
    </contour>
  </outline>
</glyph>
<glyph name="B" format="1">
  <advance width="595"/>
  <unicode hex="0042"/>
  <outline>
    <contour>
      <point x="243" y="-3" type="curve" smooth="yes"/>
      <point x="463" y="-3"/>
      <point x="543" y="54"/>
      <point x="543" y="185" type="curve" smooth="yes"/>
      <point x="543" y="265"/>
      <point x="505" y="317"/>
      <point x="412" y="338" type="curve"/>
      <point x="490" y="363"/>
      <point x="522" y="412"/>
      <point x="522" y="470" type="curve" smooth="yes"/>
      <point x="522" y="557"/>
      <point x="481" y="628"/>
      <point x="267" y="628" type="curve" smooth="yes"/>
      <point x="216" y="628"/>
      <point x="155" y="625"/>
      <point x="84" y="617" type="curve"/>
      <point x="84" y="4" type="line"/>
      <point x="144" y="-1"/>
      <point x="196" y="-3"/>
    </contour>
    <contour>
      <point x="184" y="557" type="line"/>
      <point x="217" y="560"/>
      <point x="246" y="562"/>
      <point x="272" y="562" type="curve" smooth="yes"/>
      <point x="388" y="562"/>
      <point x="426" y="531"/>
      <point x="426" y="462" type="curve" smooth="yes"/>
      <point x="426" y="385"/>
      <point x="365" y="367"/>
      <point x="290" y="367" type="curve" smooth="yes"/>
      <point x="184" y="367" type="line"/>
    </contour>
    <contour>
      <point x="184" y="302" type="line"/>
      <point x="286" y="302" type="line" smooth="yes"/>
      <point x="396" y="302"/>
      <point x="445" y="272"/>
      <point x="445" y="186" type="curve" smooth="yes"/>
      <point x="445" y="115"/>
      <point x="425" y="68"/>
      <point x="258" y="68" type="curve" smooth="yes"/>
      <point x="235" y="68"/>
      <point x="209" y="68"/>
      <point x="184" y="70" type="curve"/>
    </contour>
    <contour>
      <point x="287" y="625" type="move" name="top"/>
    </contour>
  </outline>
</glyph>
<glyph name="C" format="1">
  <advance width="628"/>
  <unicode hex="0043"/>
  <outline>
    <contour>
      <point x="588" y="465" type="line"/>
      <point x="567" y="567"/>
      <point x="469" y="634"/>
      <point x="348" y="634" type="curve" smooth="yes"/>
      <point x="175" y="634"/>
      <point x="62" y="517"/>
      <point x="62" y="313" type="curve" smooth="yes"/>
      <point x="62" y="107"/>
      <point x="175" y="-8"/>
      <point x="348" y="-8" type="curve" smooth="yes"/>
      <point x="470" y="-8"/>
      <point x="568" y="59"/>
      <point x="589" y="161" type="curve"/>
      <point x="517" y="188" type="line"/>
      <point x="510" y="188" type="line"/>
      <point x="494" y="120"/>
      <point x="432" y="67"/>
      <point x="352" y="67" type="curve" smooth="yes"/>
      <point x="240" y="67"/>
      <point x="165" y="145"/>
      <point x="165" y="313" type="curve" smooth="yes"/>
      <point x="165" y="481"/>
      <point x="239" y="559"/>
      <point x="356" y="559" type="curve" smooth="yes"/>
      <point x="434" y="559"/>
      <point x="493" y="504"/>
      <point x="508" y="438" type="curve"/>
      <point x="516" y="438" type="line"/>
    </contour>
    <contour>
      <point x="345" y="0" type="move" name="bot"/>
    </contour>
    <contour>
      <point x="342" y="625" type="move" name="top"/>
    </contour>
  </outline>
</glyph>
<glyph name="D" format="1">
  <advance width="647"/>
  <unicode hex="0044"/>
  <outline>
    <contour>
      <point x="84" y="4" type="line"/>
      <point x="132" y="-2"/>
      <point x="178" y="-4"/>
      <point x="218" y="-4" type="curve" smooth="yes"/>
      <point x="496" y="-4"/>
      <point x="586" y="128"/>
      <point x="586" y="321" type="curve" smooth="yes"/>
      <point x="586" y="513"/>
      <point x="516" y="628"/>
      <point x="245" y="628" type="curve" smooth="yes"/>
      <point x="198" y="628"/>
      <point x="144" y="624"/>
      <point x="84" y="617" type="curve"/>
    </contour>
    <contour>
      <point x="184" y="69" type="curve"/>
      <point x="184" y="555" type="line"/>
      <point x="210" y="558"/>
      <point x="235" y="559"/>
      <point x="257" y="559" type="curve" smooth="yes"/>
      <point x="450" y="559"/>
      <point x="488" y="463"/>
      <point x="488" y="319" type="curve" smooth="yes"/>
      <point x="488" y="170"/>
      <point x="438" y="66"/>
      <point x="243" y="66" type="curve" smooth="yes"/>
      <point x="225" y="66"/>
      <point x="205" y="67"/>
    </contour>
    <contour>
      <point x="333" y="0" type="move" name="bot"/>
    </contour>
    <contour>
      <point x="324" y="625" type="move" name="top"/>
    </contour>
  </outline>
</glyph>
<glyph name="E" format="1">
  <advance width="566"/>
  <unicode hex="0045"/>
  <outline>
    <contour>
      <point x="84" y="626" type="line"/>
      <point x="84" y="0" type="line"/>
      <point x="506" y="0" type="line"/>
      <point x="511" y="73" type="line"/>
      <point x="184" y="73" type="line"/>
      <point x="184" y="287" type="line"/>
      <point x="477" y="287" type="line"/>
      <point x="477" y="359" type="line"/>
      <point x="184" y="359" type="line"/>
      <point x="184" y="554" type="line"/>
      <point x="499" y="554" type="line"/>
      <point x="504" y="626" type="line"/>
    </contour>
    <contour>
      <point x="301" y="0" type="move" name="bot"/>
    </contour>
    <contour>
      <point x="318" y="626" type="move" name="top"/>
    </contour>
  </outline>
</glyph>
<glyph name="F" format="1">
  <advance width="523"/>
  <unicode hex="0046"/>
  <outline>
    <contour>
      <point x="84" y="626" type="line"/>
      <point x="84" y="0" type="line"/>
      <point x="184" y="0" type="line"/>
      <point x="184" y="277" type="line"/>
      <point x="465" y="277" type="line"/>
      <point x="465" y="347" type="line"/>
      <point x="184" y="347" type="line"/>
      <point x="184" y="552" type="line"/>
      <point x="498" y="552" type="line"/>
      <point x="504" y="626" type="line"/>
    </contour>
    <contour>
      <point x="316" y="626" type="move" name="top"/>
    </contour>
  </outline>
</glyph>
<glyph name="G" format="1">
  <advance width="643"/>
  <unicode hex="0047"/>
  <outline>
    <contour>
      <point x="354" y="-9" type="curve" smooth="yes"/>
      <point x="444" y="-9"/>
      <point x="518" y="7"/>
      <point x="582" y="33" type="curve"/>
      <point x="582" y="335" type="line"/>
      <point x="360" y="335" type="line"/>
      <point x="356" y="270" type="line"/>
      <point x="494" y="260" type="line"/>
      <point x="494" y="84" type="line"/>
      <point x="465" y="75"/>
      <point x="425" y="66"/>
      <point x="371" y="66" type="curve" smooth="yes"/>
      <point x="227" y="66"/>
      <point x="165" y="155"/>
      <point x="165" y="316" type="curve" smooth="yes"/>
      <point x="165" y="466"/>
      <point x="234" y="559"/>
      <point x="368" y="559" type="curve" smooth="yes"/>
      <point x="445" y="559"/>
      <point x="495" y="522"/>
      <point x="520" y="489" type="curve"/>
      <point x="529" y="489" type="line"/>
      <point x="584" y="537" type="line"/>
      <point x="547" y="592"/>
      <point x="470" y="634"/>
      <point x="364" y="634" type="curve" smooth="yes"/>
      <point x="175" y="634"/>
      <point x="62" y="511"/>
      <point x="62" y="315" type="curve" smooth="yes"/>
      <point x="62" y="120"/>
      <point x="161" y="-9"/>
    </contour>
    <contour>
      <point x="342" y="0" type="move" name="bot"/>
    </contour>
    <contour>
      <point x="346" y="625" type="move" name="top"/>
    </contour>
  </outline>
</glyph>
<glyph name="H" format="1">
  <advance width="665"/>
  <unicode hex="0048"/>
  <outline>
    <contour>
      <point x="481" y="285" type="line"/>
      <point x="481" y="0" type="line"/>
      <point x="580" y="0" type="line"/>
      <point x="580" y="626" type="line"/>
      <point x="481" y="626" type="line"/>
      <point x="481" y="359" type="line"/>
      <point x="185" y="359" type="line"/>
      <point x="185" y="626" type="line"/>
      <point x="86" y="626" type="line"/>
      <point x="86" y="0" type="line"/>
      <point x="185" y="0" type="line"/>
      <point x="185" y="285" type="line"/>
    </contour>
    <contour>
      <point x="338" y="626" type="move" name="top"/>
    </contour>
  </outline>
</glyph>
<glyph name="I" format="1">
  <advance width="423"/>
  <unicode hex="0049"/>
  <outline>
    <contour>
      <point x="76" y="626" type="line"/>
      <point x="76" y="568" type="line"/>
      <point x="162" y="568" type="line"/>
      <point x="162" y="58" type="line"/>
      <point x="76" y="58" type="line"/>
      <point x="76" y="0" type="line"/>
      <point x="345" y="0" type="line"/>
      <point x="345" y="58" type="line"/>
      <point x="261" y="58" type="line"/>
      <point x="261" y="568" type="line"/>
      <point x="345" y="568" type="line"/>
      <point x="345" y="626" type="line"/>
    </contour>
    <contour>
      <point x="211" y="626" type="move" name="top"/>
    </contour>
  </outline>
</glyph>
<glyph name="J" format="1">
  <advance width="343"/>
  <unicode hex="004A"/>
  <outline>
    <contour>
      <point x="149" y="626" type="line"/>
      <point x="149" y="34" type="line" smooth="yes"/>
      <point x="149" y="-57"/>
      <point x="147" y="-72"/>
      <point x="101" y="-91" type="curve" smooth="yes"/>
      <point x="42" y="-116" type="line"/>
      <point x="74" y="-192" type="line"/>
      <point x="120" y="-174" type="line" smooth="yes"/>
      <point x="237" y="-129"/>
      <point x="249" y="-98"/>
      <point x="249" y="33" type="curve" smooth="yes"/>
      <point x="249" y="626" type="line"/>
    </contour>
    <contour>
      <point x="201" y="626" type="move" name="top"/>
    </contour>
  </outline>
</glyph>
<glyph name="K" format="1">
  <advance width="577"/>
  <unicode hex="004B"/>
  <outline>
    <contour>
      <point x="564" y="626" type="line"/>
      <point x="456" y="626" type="line"/>
      <point x="184" y="338" type="line"/>
      <point x="184" y="626" type="line"/>
      <point x="84" y="626" type="line"/>
      <point x="84" y="0" type="line"/>
      <point x="184" y="0" type="line"/>
      <point x="184" y="243" type="line"/>
      <point x="242" y="302" type="line"/>
      <point x="471" y="0" type="line"/>
      <point x="582" y="0" type="line"/>
      <point x="582" y="7" type="line"/>
      <point x="316" y="355" type="line"/>
      <point x="564" y="619" type="line"/>
    </contour>
    <contour>
      <point x="304" y="0" type="move" name="bot"/>
    </contour>
    <contour>
      <point x="303" y="626" type="move" name="top"/>
    </contour>
  </outline>
</glyph>
<glyph name="L" format="1">
  <advance width="481"/>
  <unicode hex="004C"/>
  <outline>
    <contour>
      <point x="84" y="626" type="line"/>
      <point x="84" y="0" type="line"/>
      <point x="476" y="0" type="line"/>
      <point x="480" y="71" type="line"/>
      <point x="184" y="71" type="line"/>
      <point x="184" y="626" type="line"/>
    </contour>
    <contour>
      <point x="265" y="0" type="move" name="bot"/>
    </contour>
    <contour>
      <point x="184" y="626" type="move" name="top"/>
    </contour>
  </outline>
</glyph>
<glyph name="M" format="1">
  <advance width="786"/>
  <unicode hex="004D"/>
  <outline>
    <contour>
      <point x="76" y="0" type="line"/>
      <point x="170" y="0" type="line"/>
      <point x="170" y="213" type="line"/>
      <point x="173" y="490" type="line"/>
      <point x="356" y="81" type="line"/>
      <point x="430" y="81" type="line"/>
      <point x="614" y="486" type="line"/>
      <point x="618" y="215" type="line"/>
      <point x="618" y="0" type="line"/>
      <point x="711" y="0" type="line"/>
      <point x="711" y="221" type="line"/>
      <point x="701" y="626" type="line"/>
      <point x="591" y="626" type="line"/>
      <point x="395" y="194" type="line"/>
      <point x="199" y="626" type="line"/>
      <point x="86" y="626" type="line"/>
      <point x="76" y="220" type="line"/>
    </contour>
    <contour>
      <point x="398" y="626" type="move" name="top"/>
    </contour>
  </outline>
</glyph>
<glyph name="N" format="1">
  <advance width="663"/>
  <unicode hex="004E"/>
  <outline>
    <contour>
      <point x="489" y="626" type="line"/>
      <point x="489" y="307" type="line"/>
      <point x="494" y="131" type="line"/>
      <point x="182" y="626" type="line"/>
      <point x="84" y="626" type="line"/>
      <point x="84" y="0" type="line"/>
      <point x="177" y="0" type="line"/>
      <point x="177" y="300" type="line"/>
      <point x="170" y="487" type="line"/>
      <point x="478" y="0" type="line"/>
      <point x="579" y="0" type="line"/>
      <point x="579" y="626" type="line"/>
    </contour>
    <contour>
      <point x="332" y="0" type="move" name="bot"/>
    </contour>
    <contour>
      <point x="336" y="626" type="move" name="top"/>
    </contour>
  </outline>
</glyph>
<glyph name="O" format="1">
  <advance width="697"/>
  <unicode hex="004F"/>
  <outline>
    <contour>
      <point x="533" y="309" type="curve" smooth="yes"/>
      <point x="533" y="162"/>
      <point x="483" y="68"/>
      <point x="350" y="68" type="curve" smooth="yes"/>
      <point x="217" y="68"/>
      <point x="166" y="162"/>
      <point x="166" y="309" type="curve" smooth="yes"/>
      <point x="166" y="460"/>
      <point x="222" y="557"/>
      <point x="351" y="557" type="curve" smooth="yes"/>
      <point x="481" y="557"/>
      <point x="533" y="459"/>
    </contour>
    <contour>
      <point x="63" y="310" type="curve" smooth="yes"/>
      <point x="63" y="113"/>
      <point x="158" y="-9"/>
      <point x="351" y="-9" type="curve" smooth="yes"/>
      <point x="543" y="-9"/>
      <point x="636" y="115"/>
      <point x="636" y="309" type="curve" smooth="yes"/>
      <point x="636" y="509"/>
      <point x="538" y="634"/>
      <point x="351" y="634" type="curve" smooth="yes"/>
      <point x="161" y="634"/>
      <point x="63" y="510"/>
    </contour>
    <contour>
      <point x="350" y="625" type="move" name="top"/>
    </contour>
  </outline>
</glyph>
<glyph name="P" format="1">
  <advance width="573"/>
  <unicode hex="0050"/>
  <outline>
    <contour>
      <point x="84" y="617" type="curve"/>
      <point x="84" y="0" type="line"/>
      <point x="184" y="0" type="line"/>
      <point x="184" y="261" type="line"/>
      <point x="215" y="258"/>
      <point x="243" y="258"/>
      <point x="269" y="258" type="curve" smooth="yes"/>
      <point x="483" y="258"/>
      <point x="535" y="338"/>
      <point x="535" y="452" type="curve" smooth="yes"/>
      <point x="535" y="571"/>
      <point x="469" y="628"/>
      <point x="266" y="628" type="curve" smooth="yes"/>
      <point x="214" y="628"/>
      <point x="154" y="624"/>
    </contour>
    <contour>
      <point x="184" y="330" type="curve"/>
      <point x="184" y="556" type="line"/>
      <point x="218" y="559"/>
      <point x="248" y="561"/>
      <point x="274" y="561" type="curve" smooth="yes"/>
      <point x="415" y="561"/>
      <point x="443" y="518"/>
      <point x="443" y="448" type="curve" smooth="yes"/>
      <point x="443" y="373"/>
      <point x="415" y="326"/>
      <point x="265" y="326" type="curve" smooth="yes"/>
      <point x="241" y="326"/>
      <point x="214" y="327"/>
    </contour>
    <contour>
      <point x="301" y="625" type="move" name="top"/>
    </contour>
  </outline>
</glyph>
<glyph name="Q" format="1">
  <advance width="690"/>
  <unicode hex="0051"/>
  <outline>
    <contour>
      <point x="347" y="20" type="line"/>
      <point x="351" y="8"/>
      <point x="489" y="-182"/>
      <point x="507" y="-198" type="curve"/>
      <point x="570" y="-149" type="line"/>
      <point x="552" y="-133"/>
      <point x="444" y="17"/>
      <point x="433" y="34" type="curve"/>
    </contour>
    <component base="O"/>
  </outline>
</glyph>
<glyph name="R" format="1">
  <advance width="588"/>
  <unicode hex="0052"/>
  <outline>
    <contour>
      <point x="541" y="456" type="curve" smooth="yes"/>
      <point x="541" y="582"/>
      <point x="474" y="629"/>
      <point x="289" y="629" type="curve" smooth="yes"/>
      <point x="233" y="629"/>
      <point x="164" y="625"/>
      <point x="84" y="617" type="curve"/>
      <point x="84" y="0" type="line"/>
      <point x="184" y="0" type="line"/>
      <point x="184" y="280" type="line"/>
      <point x="313" y="280" type="line"/>
      <point x="455" y="0" type="line"/>
      <point x="562" y="0" type="line"/>
      <point x="562" y="8" type="line"/>
      <point x="412" y="292" type="line"/>
      <point x="488" y="312"/>
      <point x="541" y="359"/>
    </contour>
    <contour>
      <point x="184" y="555" type="line"/>
      <point x="225" y="559"/>
      <point x="261" y="560"/>
      <point x="291" y="560" type="curve" smooth="yes"/>
      <point x="417" y="560"/>
      <point x="451" y="528"/>
      <point x="451" y="457" type="curve" smooth="yes"/>
      <point x="451" y="376"/>
      <point x="417" y="345"/>
      <point x="288" y="345" type="curve" smooth="yes"/>
      <point x="184" y="345" type="line"/>
    </contour>
    <contour>
      <point x="310" y="0" type="move" name="bot"/>
    </contour>
    <contour>
      <point x="309" y="625" type="move" name="top"/>
    </contour>
  </outline>
</glyph>
<glyph name="S" format="1">
  <advance width="524"/>
  <unicode hex="0053"/>
  <outline>
    <contour>
      <point x="381" y="166" type="curve" smooth="yes"/>
      <point x="381" y="94"/>
      <point x="328" y="68"/>
      <point x="257" y="68" type="curve" smooth="yes"/>
      <point x="203" y="68"/>
      <point x="146" y="90"/>
      <point x="109" y="128" type="curve"/>
      <point x="101" y="128" type="line"/>
      <point x="45" y="79" type="line"/>
      <point x="80" y="34"/>
      <point x="153" y="-9"/>
      <point x="258" y="-9" type="curve" smooth="yes"/>
      <point x="368" y="-9"/>
      <point x="476" y="39"/>
      <point x="476" y="167" type="curve" smooth="yes"/>
      <point x="476" y="278"/>
      <point x="417" y="311"/>
      <point x="318" y="351" type="curve" smooth="yes"/>
      <point x="234" y="385" type="line" smooth="yes"/>
      <point x="168" y="412"/>
      <point x="147" y="427"/>
      <point x="147" y="474" type="curve" smooth="yes"/>
      <point x="147" y="540"/>
      <point x="202" y="560"/>
      <point x="265" y="560" type="curve" smooth="yes"/>
      <point x="321" y="560"/>
      <point x="373" y="538"/>
      <point x="402" y="499" type="curve"/>
      <point x="409" y="499" type="line"/>
      <point x="466" y="546" type="line"/>
      <point x="428" y="596"/>
      <point x="356" y="634"/>
      <point x="265" y="634" type="curve" smooth="yes"/>
      <point x="152" y="634"/>
      <point x="48" y="594"/>
      <point x="48" y="461" type="curve" smooth="yes"/>
      <point x="48" y="372"/>
      <point x="97" y="343"/>
      <point x="180" y="309" type="curve" smooth="yes"/>
      <point x="269" y="272" type="line" smooth="yes"/>
      <point x="355" y="236"/>
      <point x="381" y="220"/>
    </contour>
    <contour>
      <point x="266" y="0" type="move" name="bot"/>
    </contour>
    <contour>
      <point x="266" y="631" type="move" name="top"/>
    </contour>
  </outline>
</glyph>
<glyph name="T" format="1">
  <advance width="503"/>
  <unicode hex="0054"/>
  <outline>
    <contour>
      <point x="5" y="626" type="line"/>
      <point x="5" y="555" type="line"/>
      <point x="202" y="555" type="line"/>
      <point x="202" y="0" type="line"/>
      <point x="301" y="0" type="line"/>
      <point x="301" y="555" type="line"/>
      <point x="498" y="555" type="line"/>
      <point x="498" y="626" type="line"/>
    </contour>
    <contour>
      <point x="254" y="1" type="move" name="bot"/>
    </contour>
    <contour>
      <point x="254" y="626" type="move" name="top"/>
    </contour>
  </outline>
</glyph>
<glyph name="U" format="1">
  <advance width="630"/>
  <unicode hex="0055"/>
  <outline>
    <contour>
      <point x="459" y="626" type="line"/>
      <point x="459" y="237" type="line" smooth="yes"/>
      <point x="459" y="126"/>
      <point x="415" y="69"/>
      <point x="314" y="69" type="curve" smooth="yes"/>
      <point x="211" y="69"/>
      <point x="170" y="126"/>
      <point x="170" y="237" type="curve" smooth="yes"/>
      <point x="170" y="626" type="line"/>
      <point x="71" y="626" type="line"/>
      <point x="71" y="233" type="line" smooth="yes"/>
      <point x="71" y="89"/>
      <point x="145" y="-8"/>
      <point x="314" y="-8" type="curve" smooth="yes"/>
      <point x="481" y="-8"/>
      <point x="558" y="90"/>
      <point x="558" y="232" type="curve" smooth="yes"/>
      <point x="558" y="626" type="line"/>
    </contour>
    <contour>
      <point x="315" y="1" type="move" name="bot"/>
    </contour>
    <contour>
      <point x="318" y="626" type="move" name="top"/>
    </contour>
  </outline>
</glyph>
<glyph name="V" format="1">
  <advance width="612"/>
  <unicode hex="0056"/>
  <outline>
    <contour>
      <point x="254" y="0" type="line"/>
      <point x="352" y="0" type="line"/>
      <point x="586" y="626" type="line"/>
      <point x="484" y="626" type="line"/>
      <point x="424" y="451"/>
      <point x="361" y="279"/>
      <point x="304" y="101" type="curve"/>
      <point x="248" y="279"/>
      <point x="187" y="451"/>
      <point x="127" y="626" type="curve"/>
      <point x="27" y="626" type="line"/>
    </contour>
  </outline>
</glyph>
<glyph name="W" format="1">
  <advance width="855"/>
  <unicode hex="0057"/>
  <outline>
    <contour>
      <point x="431" y="494" type="line"/>
      <point x="569" y="0" type="line"/>
      <point x="662" y="0" type="line"/>
      <point x="825" y="626" type="line"/>
      <point x="729" y="626" type="line"/>
      <point x="614" y="127" type="line"/>
      <point x="475" y="615" type="line"/>
      <point x="386" y="615" type="line"/>
      <point x="246" y="130" type="line"/>
      <point x="122" y="626" type="line"/>
      <point x="31" y="626" type="line"/>
      <point x="193" y="0" type="line"/>
      <point x="287" y="0" type="line"/>
    </contour>
    <contour>
      <point x="428" y="0" type="move" name="bot"/>
    </contour>
    <contour>
      <point x="432" y="626" type="move" name="top"/>
    </contour>
  </outline>
</glyph>
<glyph name="X" format="1">
  <advance width="565"/>
  <unicode hex="0058"/>
  <outline>
    <contour>
      <point x="338" y="315" type="line"/>
      <point x="542" y="626" type="line"/>
      <point x="436" y="626" type="line"/>
      <point x="287" y="393" type="line"/>
      <point x="131" y="626" type="line"/>
      <point x="22" y="626" type="line"/>
      <point x="224" y="320" type="line"/>
      <point x="15" y="0" type="line"/>
      <point x="117" y="0" type="line"/>
      <point x="277" y="241" type="line"/>
      <point x="437" y="0" type="line"/>
      <point x="548" y="0" type="line"/>
    </contour>
  </outline>
</glyph>
<glyph name="Y" format="1">
  <advance width="583"/>
  <unicode hex="0059"/>
  <outline>
    <contour>
      <point x="343" y="227" type="line"/>
      <point x="558" y="626" type="line"/>
      <point x="457" y="626" type="line"/>
      <point x="293" y="316" type="line"/>
      <point x="124" y="626" type="line"/>
      <point x="26" y="626" type="line"/>
      <point x="243" y="228" type="line"/>
      <point x="243" y="0" type="line"/>
      <point x="343" y="0" type="line"/>
    </contour>
    <contour>
      <point x="293" y="626" type="move" name="top"/>
    </contour>
  </outline>
</glyph>
<glyph name="Z" format="1">
  <advance width="516"/>
  <unicode hex="005A"/>
  <outline>
    <contour>
      <point x="40" y="0" type="line"/>
      <point x="488" y="0" type="line"/>
      <point x="489" y="71" type="line"/>
      <point x="156" y="71" type="line"/>
      <point x="484" y="563" type="line"/>
      <point x="483" y="626" type="line"/>
      <point x="52" y="626" type="line"/>
      <point x="54" y="556" type="line"/>
      <point x="374" y="556" type="line"/>
      <point x="40" y="62" type="line"/>
    </contour>
    <contour>
      <point x="274" y="0" type="move" name="bot"/>
    </contour>
    <contour>
      <point x="284" y="626" type="move" name="top"/>
    </contour>
  </outline>
</glyph>
<glyph name="bracketleft" format="1">
  <advance width="352"/>
  <unicode hex="005B"/>
  <outline>
    <contour>
      <point x="94" y="-109" type="line"/>
      <point x="292" y="-109" type="line"/>
      <point x="292" y="-47" type="line"/>
      <point x="178" y="-47" type="line"/>
      <point x="178" y="572" type="line"/>
      <point x="292" y="572" type="line"/>
      <point x="292" y="635" type="line"/>
      <point x="94" y="635" type="line"/>
    </contour>
  </outline>
</glyph>
<glyph name="backslash" format="1">
  <advance width="401"/>
  <unicode hex="005C"/>
  <outline>
    <contour>
      <point x="266" y="-4" type="line"/>
      <point x="337" y="-4" type="line"/>
      <point x="113" y="637" type="line"/>
      <point x="41" y="637" type="line"/>
    </contour>
  </outline>
</glyph>
<glyph name="bracketright" format="1">
  <advance width="414"/>
  <unicode hex="005D"/>
  <outline>
    <contour>
      <point x="125" y="-109" type="line"/>
      <point x="322" y="-109" type="line"/>
      <point x="322" y="635" type="line"/>
      <point x="125" y="635" type="line"/>
      <point x="125" y="572" type="line"/>
      <point x="237" y="572" type="line"/>
      <point x="237" y="-47" type="line"/>
      <point x="125" y="-47" type="line"/>
    </contour>
  </outline>
</glyph>
<glyph name="asciicircum" format="1">
  <advance width="573"/>
  <unicode hex="005E"/>
  <outline>
    <contour>
      <point x="265" y="625" type="line"/>
      <point x="40" y="126" type="line"/>
      <point x="133" y="126" type="line"/>
      <point x="287" y="481" type="line"/>
      <point x="440" y="126" type="line"/>
      <point x="533" y="126" type="line"/>
      <point x="306" y="625" type="line"/>
    </contour>
  </outline>
</glyph>
<glyph name="underscore" format="1">
  <advance width="396"/>
  <unicode hex="005F"/>
  <outline>
    <contour>
      <point x="0" y="-115" type="line"/>
      <point x="397" y="-115" type="line"/>
      <point x="397" y="-54" type="line"/>
      <point x="0" y="-54" type="line"/>
    </contour>
  </outline>
</glyph>
<glyph name="grave" format="1">
  <advance width="411"/>
  <unicode hex="0060"/>
  <outline>
    <contour>
      <point x="175" y="519" type="line"/>
      <point x="234" y="519" type="line"/>
      <point x="151" y="683" type="line"/>
      <point x="40" y="683" type="line"/>
    </contour>
    <contour>
      <point x="211" y="459" type="move" name="_top"/>
    </contour>
  </outline>
</glyph>
<glyph name="a" format="1">
  <advance width="484"/>
  <unicode hex="0061"/>
  <outline>
    <contour>
      <point x="212" y="53" type="curve" smooth="yes"/>
      <point x="169" y="53"/>
      <point x="133" y="73"/>
      <point x="133" y="127" type="curve" smooth="yes"/>
      <point x="133" y="181"/>
      <point x="167" y="205"/>
      <point x="253" y="205" type="curve" smooth="yes"/>
      <point x="331" y="205" type="line"/>
      <point x="331" y="108" type="line"/>
      <point x="305" y="76"/>
      <point x="266" y="53"/>
    </contour>
    <contour>
      <point x="46" y="127" type="curve" smooth="yes"/>
      <point x="46" y="36"/>
      <point x="106" y="-8"/>
      <point x="195" y="-8" type="curve" smooth="yes"/>
      <point x="260" y="-8"/>
      <point x="305" y="13"/>
      <point x="341" y="54" type="curve"/>
      <point x="348" y="0" type="line"/>
      <point x="423" y="0" type="line"/>
      <point x="423" y="296" type="line" smooth="yes"/>
      <point x="423" y="425"/>
      <point x="347" y="475"/>
      <point x="242" y="475" type="curve" smooth="yes"/>
      <point x="180" y="475"/>
      <point x="113" y="460"/>
      <point x="62" y="429" type="curve"/>
      <point x="86" y="364" type="line"/>
      <point x="132" y="392"/>
      <point x="192" y="405"/>
      <point x="235" y="405" type="curve" smooth="yes"/>
      <point x="298" y="405"/>
      <point x="331" y="377"/>
      <point x="331" y="308" type="curve" smooth="yes"/>
      <point x="331" y="258" type="line"/>
      <point x="239" y="259" type="line"/>
      <point x="236" y="259" type="line" smooth="yes"/>
      <point x="114" y="259"/>
      <point x="46" y="216"/>
    </contour>
    <contour>
      <point x="225" y="0" type="move" name="bot"/>
    </contour>
    <contour>
      <point x="241" y="465" type="move" name="top"/>
    </contour>
  </outline>
</glyph>
<glyph name="b" format="1">
  <advance width="523"/>
  <unicode hex="0062"/>
  <outline>
    <contour>
      <point x="272" y="57" type="curve" smooth="yes"/>
      <point x="223" y="57"/>
      <point x="183" y="76"/>
      <point x="158" y="111" type="curve"/>
      <point x="158" y="240" type="line" smooth="yes"/>
      <point x="158" y="347"/>
      <point x="198" y="408"/>
      <point x="280" y="408" type="curve" smooth="yes"/>
      <point x="357" y="408"/>
      <point x="384" y="341"/>
      <point x="384" y="233" type="curve" smooth="yes"/>
      <point x="384" y="121"/>
      <point x="348" y="57"/>
    </contour>
    <contour>
      <point x="295" y="475" type="curve" smooth="yes"/>
      <point x="237" y="475"/>
      <point x="185" y="450"/>
      <point x="156" y="381" type="curve"/>
      <point x="160" y="479" type="line"/>
      <point x="160" y="670" type="line"/>
      <point x="68" y="661" type="line"/>
      <point x="68" y="0" type="line"/>
      <point x="146" y="0" type="line"/>
      <point x="150" y="52" type="line"/>
      <point x="176" y="19"/>
      <point x="221" y="-9"/>
      <point x="283" y="-9" type="curve" smooth="yes"/>
      <point x="410" y="-9"/>
      <point x="479" y="89"/>
      <point x="479" y="234" type="curve" smooth="yes"/>
      <point x="479" y="374"/>
      <point x="421" y="475"/>
    </contour>
    <contour>
      <point x="293" y="464" type="move" name="top"/>
    </contour>
  </outline>
</glyph>
<glyph name="c" format="1">
  <advance width="466"/>
  <unicode hex="0063"/>
  <outline>
    <contour>
      <point x="370" y="124" type="line"/>
      <point x="351" y="86"/>
      <point x="321" y="59"/>
      <point x="267" y="59" type="curve" smooth="yes"/>
      <point x="266" y="59" type="line" smooth="yes"/>
      <point x="186" y="59"/>
      <point x="141" y="122"/>
      <point x="141" y="233" type="curve" smooth="yes"/>
      <point x="141" y="344"/>
      <point x="186" y="407"/>
      <point x="267" y="407" type="curve" smooth="yes"/>
      <point x="321" y="407"/>
      <point x="352" y="379"/>
      <point x="371" y="341" type="curve"/>
      <point x="376" y="341" type="line"/>
      <point x="434" y="373" type="line"/>
      <point x="411" y="427"/>
      <point x="362" y="475"/>
      <point x="263" y="475" type="curve" smooth="yes"/>
      <point x="130" y="475"/>
      <point x="46" y="381"/>
      <point x="46" y="233" type="curve" smooth="yes"/>
      <point x="46" y="84"/>
      <point x="130" y="-9"/>
      <point x="263" y="-9" type="curve" smooth="yes"/>
      <point x="362" y="-9"/>
      <point x="411" y="39"/>
      <point x="434" y="93" type="curve"/>
      <point x="376" y="124" type="line"/>
    </contour>
    <contour>
      <point x="260" y="0" type="move" name="bot"/>
    </contour>
    <contour>
      <point x="265" y="465" type="move" name="top"/>
    </contour>
  </outline>
</glyph>
<glyph name="d" format="1">
  <advance width="521"/>
  <unicode hex="0064"/>
  <outline>
    <contour>
      <point x="258" y="57" type="curve" smooth="yes"/>
      <point x="181" y="57"/>
      <point x="142" y="119"/>
      <point x="142" y="234" type="curve" smooth="yes"/>
      <point x="142" y="350"/>
      <point x="182" y="408"/>
      <point x="258" y="408" type="curve" smooth="yes"/>
      <point x="305" y="408"/>
      <point x="345" y="391"/>
      <point x="367" y="359" type="curve"/>
      <point x="367" y="105" type="line"/>
      <point x="342" y="73"/>
      <point x="304" y="57"/>
    </contour>
    <contour>
      <point x="243" y="-9" type="curve" smooth="yes"/>
      <point x="295" y="-9"/>
      <point x="343" y="16"/>
      <point x="374" y="57" type="curve"/>
      <point x="379" y="0" type="line"/>
      <point x="460" y="0" type="line"/>
      <point x="460" y="670" type="line"/>
      <point x="365" y="661" type="line"/>
      <point x="365" y="494" type="line"/>
      <point x="367" y="425" type="line"/>
      <point x="342" y="453"/>
      <point x="302" y="474"/>
      <point x="248" y="474" type="curve" smooth="yes"/>
      <point x="245" y="474" type="line"/>
      <point x="243" y="474" type="line" smooth="yes"/>
      <point x="117" y="474"/>
      <point x="46" y="378"/>
      <point x="46" y="233" type="curve" smooth="yes"/>
      <point x="46" y="91"/>
      <point x="114" y="-9"/>
    </contour>
    <contour>
      <point x="222" y="464" type="move" name="top"/>
    </contour>
    <contour>
      <point x="476" y="506" type="move" name="caron.alt"/>
    </contour>
  </outline>
</glyph>
<glyph name="e" format="1">
  <advance width="492"/>
  <unicode hex="0065"/>
  <outline>
    <contour>
      <point x="142" y="269" type="line"/>
      <point x="149" y="358"/>
      <point x="198" y="409"/>
      <point x="267" y="409" type="curve" smooth="yes"/>
      <point x="336" y="409"/>
      <point x="368" y="360"/>
      <point x="369" y="269" type="curve"/>
    </contour>
    <contour>
      <point x="445" y="212" type="line"/>
      <point x="445" y="212"/>
      <point x="449" y="242"/>
      <point x="449" y="260" type="curve" smooth="yes"/>
      <point x="449" y="390"/>
      <point x="384" y="475"/>
      <point x="263" y="475" type="curve" smooth="yes"/>
      <point x="141" y="475"/>
      <point x="46" y="384"/>
      <point x="46" y="231" type="curve" smooth="yes"/>
      <point x="46" y="82"/>
      <point x="142" y="-9"/>
      <point x="273" y="-9" type="curve" smooth="yes"/>
      <point x="342" y="-9"/>
      <point x="400" y="12"/>
      <point x="438" y="40" type="curve"/>
      <point x="417" y="96" type="line"/>
      <point x="410" y="96" type="line"/>
      <point x="372" y="74"/>
      <point x="337" y="57"/>
      <point x="285" y="57" type="curve" smooth="yes"/>
      <point x="206" y="57"/>
      <point x="148" y="105"/>
      <point x="141" y="212" type="curve"/>
    </contour>
    <contour>
      <point x="271" y="0" type="move" name="bot"/>
    </contour>
    <contour>
      <point x="266" y="464" type="move" name="top"/>
    </contour>
  </outline>
</glyph>
<glyph name="f" format="1">
  <advance width="333"/>
  <unicode hex="0066"/>
  <outline>
    <contour>
      <point x="197" y="464" type="line"/>
      <point x="197" y="498" type="line" smooth="yes"/>
      <point x="197" y="568"/>
      <point x="214" y="586"/>
      <point x="271" y="586" type="curve" smooth="yes"/>
      <point x="286" y="586"/>
      <point x="311" y="584"/>
      <point x="319" y="583" type="curve"/>
      <point x="323" y="643" type="line"/>
      <point x="319" y="644"/>
      <point x="290" y="651"/>
      <point x="248" y="651" type="curve" smooth="yes"/>
      <point x="243" y="651" type="line" smooth="yes"/>
      <point x="157" y="651"/>
      <point x="104" y="625"/>
      <point x="104" y="498" type="curve" smooth="yes"/>
      <point x="104" y="463" type="line"/>
      <point x="28" y="456" type="line"/>
      <point x="26" y="409" type="line"/>
      <point x="104" y="409" type="line"/>
      <point x="104" y="0" type="line"/>
      <point x="197" y="0" type="line"/>
      <point x="197" y="409" type="line"/>
      <point x="314" y="409" type="line"/>
      <point x="314" y="464" type="line"/>
    </contour>
    <contour>
      <point x="174" y="625" type="move" name="top"/>
    </contour>
  </outline>
</glyph>
<glyph name="g" format="1">
  <advance width="521"/>
  <unicode hex="0067"/>
  <outline>
    <contour>
      <point x="258" y="57" type="curve" smooth="yes"/>
      <point x="179" y="57"/>
      <point x="141" y="122"/>
      <point x="141" y="236" type="curve" smooth="yes"/>
      <point x="141" y="349"/>
      <point x="184" y="408"/>
      <point x="258" y="408" type="curve" smooth="yes"/>
      <point x="305" y="408"/>
      <point x="341" y="391"/>
      <point x="367" y="356" type="curve"/>
      <point x="367" y="103" type="line"/>
      <point x="344" y="73"/>
      <point x="303" y="57"/>
    </contour>
    <contour>
      <point x="242" y="-211" type="curve" smooth="yes"/>
      <point x="389" y="-211"/>
      <point x="457" y="-138"/>
      <point x="457" y="17" type="curve" smooth="yes"/>
      <point x="457" y="464" type="line"/>
      <point x="374" y="464" type="line"/>
      <point x="371" y="419" type="line"/>
      <point x="346" y="450"/>
      <point x="305" y="475"/>
      <point x="247" y="475" type="curve" smooth="yes"/>
      <point x="130" y="475"/>
      <point x="46" y="387"/>
      <point x="46" y="236" type="curve" smooth="yes"/>
      <point x="46" y="76"/>
      <point x="125" y="-6"/>
      <point x="244" y="-6" type="curve" smooth="yes"/>
      <point x="245" y="-6" type="line" smooth="yes"/>
      <point x="292" y="-6"/>
      <point x="337" y="7"/>
      <point x="368" y="40" type="curve"/>
      <point x="370" y="6" type="line"/>
      <point x="370" y="-2" type="line" smooth="yes"/>
      <point x="370" y="-109"/>
      <point x="320" y="-143"/>
      <point x="236" y="-143" type="curve" smooth="yes"/>
      <point x="197" y="-143"/>
      <point x="150" y="-135"/>
      <point x="113" y="-120" type="curve"/>
      <point x="103" y="-120" type="line"/>
      <point x="96" y="-188" type="line"/>
      <point x="135" y="-201"/>
      <point x="188" y="-211"/>
    </contour>
    <contour>
      <point x="257" y="464" type="move" name="top"/>
    </contour>
  </outline>
</glyph>
<glyph name="h" format="1">
  <advance width="523"/>
  <unicode hex="0068"/>
  <outline>
    <contour>
      <point x="69" y="0" type="line"/>
      <point x="163" y="0" type="line"/>
      <point x="163" y="258" type="line" smooth="yes"/>
      <point x="163" y="338"/>
      <point x="193" y="408"/>
      <point x="284" y="408" type="curve" smooth="yes"/>
      <point x="346" y="408"/>
      <point x="369" y="368"/>
      <point x="369" y="280" type="curve" smooth="yes"/>
      <point x="369" y="0" type="line"/>
      <point x="463" y="0" type="line"/>
      <point x="463" y="288" type="line" smooth="yes"/>
      <point x="463" y="406"/>
      <point x="410" y="475"/>
      <point x="309" y="475" type="curve" smooth="yes"/>
      <point x="240" y="475"/>
      <point x="189" y="445"/>
      <point x="160" y="376" type="curve"/>
      <point x="163" y="494" type="line"/>
      <point x="163" y="670" type="line"/>
      <point x="69" y="661" type="line"/>
    </contour>
    <contour>
      <point x="274" y="610" type="move" name="top"/>
    </contour>
  </outline>
</glyph>
<glyph name="i" format="1">
  <advance width="248"/>
  <unicode hex="0069"/>
  <outline>
    <contour>
      <point x="192" y="616" type="curve" smooth="yes"/>
      <point x="192" y="652"/>
      <point x="168" y="675"/>
      <point x="128" y="675" type="curve" smooth="yes"/>
      <point x="88" y="675"/>
      <point x="66" y="652"/>
      <point x="66" y="616" type="curve" smooth="yes"/>
      <point x="66" y="579"/>
      <point x="88" y="556"/>
      <point x="128" y="556" type="curve" smooth="yes"/>
      <point x="168" y="556"/>
      <point x="192" y="579"/>
    </contour>
    <contour>
      <point x="80" y="464" type="line"/>
      <point x="80" y="0" type="line"/>
      <point x="174" y="0" type="line"/>
      <point x="174" y="464" type="line"/>
    </contour>
  </outline>
</glyph>
<glyph name="j" format="1">
  <advance width="260"/>
  <unicode hex="006A"/>
  <outline>
    <contour>
      <point x="205" y="616" type="curve" smooth="yes"/>
      <point x="205" y="652"/>
      <point x="182" y="675"/>
      <point x="142" y="675" type="curve" smooth="yes"/>
      <point x="102" y="675"/>
      <point x="79" y="652"/>
      <point x="79" y="616" type="curve" smooth="yes"/>
      <point x="79" y="579"/>
      <point x="102" y="556"/>
      <point x="142" y="556" type="curve" smooth="yes"/>
      <point x="182" y="556"/>
      <point x="205" y="579"/>
    </contour>
    <contour>
      <point x="98" y="464" type="line"/>
      <point x="98" y="7" type="line" smooth="yes"/>
      <point x="98" y="-69"/>
      <point x="95" y="-87"/>
      <point x="29" y="-105" type="curve" smooth="yes"/>
      <point x="-2" y="-113" type="line"/>
      <point x="18" y="-185" type="line"/>
      <point x="48" y="-178" type="line"/>
      <point x="147" y="-156"/>
      <point x="192" y="-124"/>
      <point x="192" y="-7" type="curve" smooth="yes"/>
      <point x="192" y="464" type="line"/>
    </contour>
  </outline>
</glyph>
<glyph name="k" format="1">
  <advance width="480"/>
  <unicode hex="006B"/>
  <outline>
    <contour>
      <point x="69" y="0" type="line"/>
      <point x="163" y="0" type="line"/>
      <point x="163" y="173" type="line"/>
      <point x="208" y="214" type="line"/>
      <point x="374" y="0" type="line"/>
      <point x="473" y="0" type="line"/>
      <point x="473" y="11" type="line"/>
      <point x="276" y="256" type="line"/>
      <point x="461" y="455" type="line"/>
      <point x="461" y="464" type="line"/>
      <point x="358" y="464" type="line"/>
      <point x="160" y="250" type="line"/>
      <point x="163" y="335" type="line"/>
      <point x="163" y="670" type="line"/>
      <point x="69" y="661" type="line"/>
    </contour>
    <contour>
      <point x="261" y="0" type="move" name="bot"/>
    </contour>
  </outline>
</glyph>
<glyph name="l" format="1">
  <advance width="283"/>
  <unicode hex="006C"/>
  <outline>
    <contour>
      <point x="247" y="-4" type="line"/>
      <point x="253" y="62" type="line"/>
      <point x="220" y="63" type="line" smooth="yes"/>
      <point x="172" y="67"/>
      <point x="163" y="75"/>
      <point x="163" y="135" type="curve" smooth="yes"/>
      <point x="163" y="670" type="line"/>
      <point x="69" y="661" type="line"/>
      <point x="69" y="137" type="line" smooth="yes"/>
      <point x="69" y="24"/>
      <point x="114" y="-4"/>
      <point x="208" y="-4" type="curve" smooth="yes"/>
    </contour>
    <contour>
      <point x="145" y="650" type="move" name="top"/>
    </contour>
    <contour>
      <point x="187" y="1" type="move" name="bot"/>
    </contour>
  </outline>
</glyph>
<glyph name="m" format="1">
  <advance width="792"/>
  <unicode hex="006D"/>
  <outline>
    <contour>
      <point x="447" y="258" type="line" smooth="yes"/>
      <point x="447" y="351"/>
      <point x="505" y="408"/>
      <point x="559" y="408" type="curve" smooth="yes"/>
      <point x="626" y="408"/>
      <point x="639" y="344"/>
      <point x="639" y="274" type="curve" smooth="yes"/>
      <point x="639" y="0" type="line"/>
      <point x="732" y="0" type="line"/>
      <point x="732" y="297" type="line" smooth="yes"/>
      <point x="732" y="410"/>
      <point x="680" y="475"/>
      <point x="583" y="475" type="curve" smooth="yes"/>
      <point x="514" y="475"/>
      <point x="461" y="439"/>
      <point x="432" y="370" type="curve"/>
      <point x="412" y="438"/>
      <point x="362" y="475"/>
      <point x="294" y="475" type="curve" smooth="yes"/>
      <point x="231" y="475"/>
      <point x="181" y="441"/>
      <point x="154" y="377" type="curve"/>
      <point x="146" y="464" type="line"/>
      <point x="68" y="464" type="line"/>
      <point x="68" y="0" type="line"/>
      <point x="161" y="0" type="line"/>
      <point x="161" y="272" type="line"/>
      <point x="169" y="353"/>
      <point x="209" y="408"/>
      <point x="272" y="408" type="curve" smooth="yes"/>
      <point x="330" y="408"/>
      <point x="353" y="366"/>
      <point x="353" y="263" type="curve" smooth="yes"/>
      <point x="353" y="0" type="line"/>
      <point x="447" y="0" type="line"/>
    </contour>
    <contour>
      <point x="421" y="464" type="move" name="top"/>
    </contour>
  </outline>
</glyph>
<glyph name="n" format="1">
  <advance width="522"/>
  <unicode hex="006E"/>
  <outline>
    <contour>
      <point x="68" y="0" type="line"/>
      <point x="162" y="0" type="line"/>
      <point x="162" y="264" type="line" smooth="yes"/>
      <point x="162" y="347"/>
      <point x="200" y="408"/>
      <point x="284" y="408" type="curve" smooth="yes"/>
      <point x="347" y="408"/>
      <point x="367" y="361"/>
      <point x="367" y="282" type="curve" smooth="yes"/>
      <point x="367" y="0" type="line"/>
      <point x="461" y="0" type="line"/>
      <point x="461" y="281" type="line" smooth="yes"/>
      <point x="461" y="404"/>
      <point x="413" y="475"/>
      <point x="308" y="475" type="curve" smooth="yes"/>
      <point x="230" y="475"/>
      <point x="181" y="437"/>
      <point x="155" y="377" type="curve"/>
      <point x="147" y="464" type="line"/>
      <point x="68" y="464" type="line"/>
    </contour>
    <contour>
      <point x="265" y="0" type="move" name="bot"/>
    </contour>
    <contour>
      <point x="300" y="464" type="move" name="top"/>
    </contour>
  </outline>
</glyph>
<glyph name="o" format="1">
  <advance width="521"/>
  <unicode hex="006F"/>
  <outline>
    <contour>
      <point x="261" y="-9" type="curve" smooth="yes"/>
      <point x="398" y="-9"/>
      <point x="476" y="89"/>
      <point x="476" y="233" type="curve" smooth="yes"/>
      <point x="476" y="379"/>
      <point x="399" y="475"/>
      <point x="261" y="475" type="curve" smooth="yes"/>
      <point x="123" y="475"/>
      <point x="46" y="379"/>
      <point x="46" y="233" type="curve" smooth="yes"/>
      <point x="46" y="89"/>
      <point x="124" y="-9"/>
    </contour>
    <contour>
      <point x="261" y="57" type="curve" smooth="yes"/>
      <point x="177" y="57"/>
      <point x="141" y="128"/>
      <point x="141" y="233" type="curve" smooth="yes"/>
      <point x="141" y="339"/>
      <point x="178" y="408"/>
      <point x="261" y="408" type="curve" smooth="yes"/>
      <point x="344" y="408"/>
      <point x="381" y="339"/>
      <point x="381" y="233" type="curve" smooth="yes"/>
      <point x="381" y="128"/>
      <point x="344" y="57"/>
    </contour>
    <contour>
      <point x="261" y="464" type="move" name="top"/>
    </contour>
  </outline>
</glyph>
<glyph name="p" format="1">
  <advance width="524"/>
  <unicode hex="0070"/>
  <outline>
    <contour>
      <point x="271" y="57" type="curve" smooth="yes"/>
      <point x="224" y="57"/>
      <point x="183" y="76"/>
      <point x="158" y="111" type="curve"/>
      <point x="158" y="262" type="line"/>
      <point x="162" y="349"/>
      <point x="198" y="408"/>
      <point x="279" y="408" type="curve" smooth="yes"/>
      <point x="356" y="408"/>
      <point x="385" y="341"/>
      <point x="385" y="233" type="curve" smooth="yes"/>
      <point x="385" y="117"/>
      <point x="347" y="57"/>
    </contour>
    <contour>
      <point x="68" y="-199" type="line"/>
      <point x="161" y="-199" type="line"/>
      <point x="161" y="-28" type="line"/>
      <point x="158" y="40" type="line"/>
      <point x="185" y="11"/>
      <point x="228" y="-9"/>
      <point x="285" y="-9" type="curve" smooth="yes"/>
      <point x="408" y="-9"/>
      <point x="479" y="91"/>
      <point x="479" y="233" type="curve" smooth="yes"/>
      <point x="479" y="375"/>
      <point x="421" y="475"/>
      <point x="295" y="475" type="curve" smooth="yes"/>
      <point x="224" y="475"/>
      <point x="176" y="435"/>
      <point x="154" y="371" type="curve"/>
      <point x="148" y="464" type="line"/>
      <point x="68" y="464" type="line"/>
    </contour>
    <contour>
      <point x="286" y="464" type="move" name="top"/>
    </contour>
  </outline>
</glyph>
<glyph name="q" format="1">
  <advance width="522"/>
  <unicode hex="0071"/>
  <outline>
    <contour>
      <point x="257" y="57" type="curve" smooth="yes"/>
      <point x="181" y="57"/>
      <point x="140" y="116"/>
      <point x="140" y="235" type="curve" smooth="yes"/>
      <point x="140" y="348"/>
      <point x="179" y="408"/>
      <point x="255" y="408" type="curve" smooth="yes"/>
      <point x="302" y="408"/>
      <point x="341" y="389"/>
      <point x="366" y="352" type="curve"/>
      <point x="366" y="105" type="line"/>
      <point x="344" y="74"/>
      <point x="304" y="57"/>
    </contour>
    <contour>
      <point x="243" y="-9" type="curve" smooth="yes"/>
      <point x="286" y="-9"/>
      <point x="332" y="6"/>
      <point x="365" y="40" type="curve"/>
      <point x="364" y="-12" type="line"/>
      <point x="364" y="-199" type="line"/>
      <point x="456" y="-199" type="line"/>
      <point x="456" y="464" type="line"/>
      <point x="376" y="464" type="line"/>
      <point x="373" y="408" type="line"/>
      <point x="348" y="445"/>
      <point x="305" y="475"/>
      <point x="243" y="475" type="curve" smooth="yes"/>
      <point x="117" y="475"/>
      <point x="45" y="377"/>
      <point x="45" y="235" type="curve" smooth="yes"/>
      <point x="45" y="91"/>
      <point x="113" y="-9"/>
    </contour>
  </outline>
</glyph>
<glyph name="r" format="1">
  <advance width="341"/>
  <unicode hex="0072"/>
  <outline>
    <contour>
      <point x="68" y="0" type="line"/>
      <point x="161" y="0" type="line"/>
      <point x="161" y="263" type="line" smooth="yes"/>
      <point x="161" y="338"/>
      <point x="208" y="396"/>
      <point x="293" y="396" type="curve" smooth="yes"/>
      <point x="296" y="396" type="line"/>
      <point x="315" y="395" type="line"/>
      <point x="322" y="467" type="line"/>
      <point x="308" y="470"/>
      <point x="294" y="469"/>
      <point x="282" y="469" type="curve" smooth="yes"/>
      <point x="232" y="469"/>
      <point x="184" y="445"/>
      <point x="153" y="373" type="curve"/>
      <point x="145" y="464" type="line"/>
      <point x="68" y="464" type="line"/>
    </contour>
    <contour>
      <point x="131" y="0" type="move" name="bot"/>
    </contour>
    <contour>
      <point x="194" y="464" type="move" name="top"/>
    </contour>
  </outline>
</glyph>
<glyph name="s" format="1">
  <advance width="421"/>
  <unicode hex="0073"/>
  <outline>
    <contour>
      <point x="302" y="131" type="curve" smooth="yes"/>
      <point x="302" y="82"/>
      <point x="273" y="56"/>
      <point x="219" y="56" type="curve" smooth="yes"/>
      <point x="178" y="56"/>
      <point x="126" y="69"/>
      <point x="88" y="113" type="curve"/>
      <point x="81" y="113" type="line"/>
      <point x="34" y="69" type="line"/>
      <point x="74" y="17"/>
      <point x="142" y="-9"/>
      <point x="220" y="-9" type="curve" smooth="yes"/>
      <point x="312" y="-9"/>
      <point x="389" y="34"/>
      <point x="389" y="134" type="curve" smooth="yes"/>
      <point x="389" y="187"/>
      <point x="374" y="230"/>
      <point x="265" y="267" type="curve" smooth="yes"/>
      <point x="210" y="286" type="line" smooth="yes"/>
      <point x="152" y="305"/>
      <point x="142" y="321"/>
      <point x="142" y="348" type="curve" smooth="yes"/>
      <point x="142" y="385"/>
      <point x="166" y="407"/>
      <point x="223" y="407" type="curve" smooth="yes"/>
      <point x="269" y="407"/>
      <point x="306" y="389"/>
      <point x="328" y="363" type="curve"/>
      <point x="332" y="363" type="line"/>
      <point x="380" y="403" type="line"/>
      <point x="351" y="447"/>
      <point x="295" y="475"/>
      <point x="219" y="475" type="curve" smooth="yes"/>
      <point x="114" y="475"/>
      <point x="48" y="426"/>
      <point x="48" y="346" type="curve" smooth="yes"/>
      <point x="48" y="288"/>
      <point x="69" y="250"/>
      <point x="175" y="215" type="curve"/>
      <point x="226" y="199" type="line" smooth="yes"/>
      <point x="292" y="178"/>
      <point x="302" y="158"/>
    </contour>
    <contour>
      <point x="208" y="0" type="move" name="bot"/>
    </contour>
    <contour>
      <point x="215" y="465" type="move" name="top"/>
    </contour>
  </outline>
</glyph>
<glyph name="t" format="1">
  <advance width="350"/>
  <unicode hex="0074"/>
  <outline>
    <contour>
      <point x="256" y="-4" type="curve"/>
      <point x="309" y="-3" type="line"/>
      <point x="312" y="61" type="line"/>
      <point x="261" y="63" type="line" smooth="yes"/>
      <point x="195" y="65"/>
      <point x="189" y="80"/>
      <point x="189" y="149" type="curve" smooth="yes"/>
      <point x="189" y="409" type="line"/>
      <point x="312" y="409" type="line"/>
      <point x="312" y="464" type="line"/>
      <point x="189" y="464" type="line"/>
      <point x="189" y="598" type="line"/>
      <point x="110" y="592" type="line"/>
      <point x="98" y="464" type="line"/>
      <point x="25" y="460" type="line"/>
      <point x="24" y="409" type="line"/>
      <point x="96" y="409" type="line"/>
      <point x="96" y="150" type="line" smooth="yes"/>
      <point x="96" y="37"/>
      <point x="117" y="-4"/>
    </contour>
    <contour>
      <point x="207" y="0" type="move" name="bot"/>
    </contour>
    <contour>
      <point x="151" y="586" type="move" name="top"/>
    </contour>
  </outline>
</glyph>
<glyph name="u" format="1">
  <advance width="522"/>
  <unicode hex="0075"/>
  <outline>
    <contour>
      <point x="362" y="114" type="line"/>
      <point x="344" y="92"/>
      <point x="312" y="56"/>
      <point x="246" y="56" type="curve" smooth="yes"/>
      <point x="180" y="56"/>
      <point x="155" y="99"/>
      <point x="155" y="179" type="curve" smooth="yes"/>
      <point x="155" y="464" type="line"/>
      <point x="62" y="464" type="line"/>
      <point x="62" y="174" type="line" smooth="yes"/>
      <point x="62" y="54"/>
      <point x="118" y="-9"/>
      <point x="227" y="-9" type="curve" smooth="yes"/>
      <point x="296" y="-9"/>
      <point x="340" y="20"/>
      <point x="370" y="60" type="curve"/>
      <point x="374" y="0" type="line"/>
      <point x="455" y="0" type="line"/>
      <point x="455" y="464" type="line"/>
      <point x="362" y="464" type="line"/>
    </contour>
    <contour>
      <point x="249" y="0" type="move" name="bot"/>
    </contour>
    <contour>
      <point x="266" y="465" type="move" name="top"/>
    </contour>
  </outline>
</glyph>
<glyph name="v" format="1">
  <advance width="464"/>
  <unicode hex="0076"/>
  <outline>
    <contour>
      <point x="188" y="0" type="line"/>
      <point x="282" y="0" type="line"/>
      <point x="446" y="464" type="line"/>
      <point x="352" y="464" type="line"/>
      <point x="314" y="344"/>
      <point x="275" y="225"/>
      <point x="237" y="105" type="curve"/>
      <point x="197" y="225"/>
      <point x="157" y="344"/>
      <point x="117" y="464" type="curve"/>
      <point x="21" y="464" type="line"/>
    </contour>
  </outline>
</glyph>
<glyph name="w" format="1">
  <advance width="648"/>
  <unicode hex="0077"/>
  <outline>
    <contour>
      <point x="329" y="375" type="line"/>
      <point x="437" y="-1" type="line"/>
      <point x="521" y="-1" type="line"/>
      <point x="641" y="464" type="line"/>
      <point x="557" y="464" type="line"/>
      <point x="477" y="109" type="line"/>
      <point x="374" y="464" type="line"/>
      <point x="280" y="464" type="line"/>
      <point x="179" y="109" type="line"/>
      <point x="96" y="464" type="line"/>
      <point x="9" y="464" type="line"/>
      <point x="132" y="-1" type="line"/>
      <point x="215" y="-1" type="line"/>
    </contour>
    <contour>
      <point x="328" y="464" type="move" name="top"/>
    </contour>
  </outline>
</glyph>
<glyph name="x" format="1">
  <advance width="457"/>
  <unicode hex="0078"/>
  <outline>
    <contour>
      <point x="281" y="236" type="line"/>
      <point x="436" y="464" type="line"/>
      <point x="345" y="464" type="line"/>
      <point x="236" y="302" type="line"/>
      <point x="128" y="464" type="line"/>
      <point x="26" y="464" type="line"/>
      <point x="180" y="235" type="line"/>
      <point x="18" y="-1" type="line"/>
      <point x="110" y="-1" type="line"/>
      <point x="224" y="168" type="line"/>
      <point x="337" y="-1" type="line"/>
      <point x="440" y="-1" type="line"/>
    </contour>
  </outline>
</glyph>
<glyph name="y" format="1">
  <advance width="485"/>
  <unicode hex="0079"/>
  <outline>
    <contour>
      <point x="471" y="464" type="line"/>
      <point x="382" y="464" type="line"/>
      <point x="249" y="125" type="line"/>
      <point x="106" y="464" type="line"/>
      <point x="11" y="464" type="line"/>
      <point x="202" y="28" type="line"/>
      <point x="128" y="-157" type="line"/>
      <point x="207" y="-181" type="line"/>
    </contour>
    <contour>
      <point x="247" y="464" type="move" name="top"/>
    </contour>
  </outline>
</glyph>
<glyph name="z" format="1">
  <advance width="428"/>
  <unicode hex="007A"/>
  <outline>
    <contour>
      <point x="47" y="464" type="line"/>
      <point x="49" y="402" type="line"/>
      <point x="284" y="402" type="line"/>
      <point x="40" y="54" type="line"/>
      <point x="40" y="0" type="line"/>
      <point x="388" y="0" type="line"/>
      <point x="386" y="66" type="line"/>
      <point x="145" y="66" type="line"/>
      <point x="382" y="405" type="line"/>
      <point x="382" y="464" type="line"/>
    </contour>
    <contour>
      <point x="209" y="0" type="move" name="bot"/>
    </contour>
    <contour>
      <point x="216" y="464" type="move" name="top"/>
    </contour>
  </outline>
</glyph>
<glyph name="braceleft" format="1">
  <advance width="377"/>
  <unicode hex="007B"/>
  <outline>
    <contour>
      <point x="323" y="-117" type="curve"/>
      <point x="323" y="-57" type="line"/>
      <point x="261" y="-57"/>
      <point x="253" y="-46"/>
      <point x="253" y="35" type="curve" smooth="yes"/>
      <point x="253" y="147" type="line" smooth="yes"/>
      <point x="253" y="216"/>
      <point x="236" y="253"/>
      <point x="167" y="265" type="curve"/>
      <point x="236" y="277"/>
      <point x="253" y="313"/>
      <point x="253" y="382" type="curve" smooth="yes"/>
      <point x="253" y="495" type="line" smooth="yes"/>
      <point x="253" y="576"/>
      <point x="261" y="587"/>
      <point x="323" y="587" type="curve"/>
      <point x="323" y="648" type="line"/>
      <point x="205" y="648"/>
      <point x="170" y="628"/>
      <point x="170" y="508" type="curve" smooth="yes"/>
      <point x="170" y="413" type="line" smooth="yes"/>
      <point x="170" y="330"/>
      <point x="168" y="300"/>
      <point x="82" y="300" type="curve"/>
      <point x="82" y="230" type="line"/>
      <point x="169" y="230"/>
      <point x="170" y="200"/>
      <point x="170" y="117" type="curve" smooth="yes"/>
      <point x="170" y="22" type="line" smooth="yes"/>
      <point x="170" y="-98"/>
      <point x="205" y="-117"/>
    </contour>
  </outline>
</glyph>
<glyph name="bar" format="1">
  <advance width="298"/>
  <unicode hex="007C"/>
  <outline>
    <contour>
      <point x="113" y="634" type="line"/>
      <point x="113" y="-140" type="line"/>
      <point x="183" y="-140" type="line"/>
      <point x="183" y="634" type="line"/>
    </contour>
  </outline>
</glyph>
<glyph name="braceright" format="1">
  <advance width="377"/>
  <unicode hex="007D"/>
  <outline>
    <contour>
      <point x="57" y="-117" type="line"/>
      <point x="175" y="-117"/>
      <point x="211" y="-98"/>
      <point x="211" y="22" type="curve" smooth="yes"/>
      <point x="211" y="117" type="line" smooth="yes"/>
      <point x="211" y="200"/>
      <point x="212" y="230"/>
      <point x="299" y="230" type="curve"/>
      <point x="299" y="300" type="line"/>
      <point x="213" y="300"/>
      <point x="211" y="330"/>
      <point x="211" y="413" type="curve" smooth="yes"/>
      <point x="211" y="508" type="line" smooth="yes"/>
      <point x="211" y="628"/>
      <point x="175" y="648"/>
      <point x="57" y="648" type="curve"/>
      <point x="57" y="587" type="line"/>
      <point x="119" y="587"/>
      <point x="128" y="576"/>
      <point x="128" y="495" type="curve" smooth="yes"/>
      <point x="128" y="382" type="line" smooth="yes"/>
      <point x="128" y="313"/>
      <point x="145" y="277"/>
      <point x="214" y="265" type="curve"/>
      <point x="145" y="253"/>
      <point x="128" y="216"/>
      <point x="128" y="147" type="curve" smooth="yes"/>
      <point x="128" y="35" type="line" smooth="yes"/>
      <point x="128" y="-46"/>
      <point x="119" y="-57"/>
      <point x="57" y="-57" type="curve"/>
    </contour>
  </outline>
</glyph>
<glyph name="asciitilde" format="1">
  <advance width="511"/>
  <unicode hex="007E"/>
  <outline>
    <contour>
      <point x="65" y="208" type="line"/>
      <point x="83" y="244"/>
      <point x="117" y="275"/>
      <point x="154" y="275" type="curve" smooth="yes"/>
      <point x="184" y="275"/>
      <point x="214" y="261"/>
      <point x="254" y="243" type="curve" smooth="yes"/>
      <point x="290" y="226"/>
      <point x="320" y="214"/>
      <point x="353" y="214" type="curve" smooth="yes"/>
      <point x="408" y="214"/>
      <point x="448" y="250"/>
      <point x="469" y="300" type="curve"/>
      <point x="444" y="345" type="line"/>
      <point x="422" y="307"/>
      <point x="390" y="280"/>
      <point x="356" y="280" type="curve" smooth="yes"/>
      <point x="331" y="280"/>
      <point x="299" y="295"/>
      <point x="259" y="313" type="curve" smooth="yes"/>
      <point x="219" y="331"/>
      <point x="190" y="342"/>
      <point x="156" y="342" type="curve" smooth="yes"/>
      <point x="99" y="342"/>
      <point x="61" y="304"/>
      <point x="41" y="257" type="curve"/>
    </contour>
  </outline>
</glyph>
<glyph name="cent" format="1">
  <advance width="466"/>
  <unicode hex="00A2"/>
  <outline>
    <contour>
      <point x="234" y="17" type="line"/>
      <point x="233" y="-132" type="line"/>
      <point x="284" y="-132" type="line"/>
      <point x="291" y="17" type="line"/>
    </contour>
    <contour>
      <point x="237" y="593" type="line"/>
      <point x="233" y="453" type="line"/>
      <point x="287" y="453" type="line"/>
      <point x="289" y="593" type="line"/>
    </contour>
    <component base="c"/>
  </outline>
</glyph>
<glyph name="sterling" format="1">
  <advance width="496"/>
  <unicode hex="00A3"/>
  <outline>
    <contour>
      <point x="205" y="418" type="line" smooth="yes"/>
      <point x="205" y="517"/>
      <point x="241" y="565"/>
      <point x="309" y="565" type="curve" smooth="yes"/>
      <point x="351" y="565"/>
      <point x="378" y="547"/>
      <point x="408" y="525" type="curve"/>
      <point x="416" y="525" type="line"/>
      <point x="448" y="585" type="line"/>
      <point x="423" y="609"/>
      <point x="374" y="643"/>
      <point x="293" y="643" type="curve" smooth="yes"/>
      <point x="149" y="643"/>
      <point x="108" y="535"/>
      <point x="108" y="412" type="curve" smooth="yes"/>
      <point x="108" y="353" type="line"/>
      <point x="33" y="353" type="line"/>
      <point x="33" y="291" type="line"/>
      <point x="108" y="291" type="line"/>
      <point x="108" y="70" type="line"/>
      <point x="33" y="62" type="line"/>
      <point x="38" y="0" type="line"/>
      <point x="446" y="0" type="line"/>
      <point x="450" y="71" type="line"/>
      <point x="205" y="71" type="line"/>
      <point x="205" y="291" type="line"/>
      <point x="360" y="291" type="line"/>
      <point x="360" y="353" type="line"/>
      <point x="205" y="353" type="line"/>
    </contour>
  </outline>
</glyph>
<glyph name="currency" format="1">
  <advance width="493"/>
  <unicode hex="00A4"/>
  <outline>
    <contour>
      <point x="371" y="311" type="curve" smooth="yes"/>
      <point x="371" y="240"/>
      <point x="322" y="181"/>
      <point x="246" y="181" type="curve" smooth="yes"/>
      <point x="172" y="181"/>
      <point x="121" y="240"/>
      <point x="121" y="311" type="curve" smooth="yes"/>
      <point x="121" y="382"/>
      <point x="172" y="443"/>
      <point x="246" y="443" type="curve" smooth="yes"/>
      <point x="321" y="443"/>
      <point x="371" y="382"/>
    </contour>
    <contour>
      <point x="354" y="452" type="line"/>
      <point x="324" y="477"/>
      <point x="287" y="491"/>
      <point x="246" y="491" type="curve" smooth="yes"/>
      <point x="206" y="491"/>
      <point x="167" y="478"/>
      <point x="137" y="453" type="curve"/>
      <point x="61" y="527" type="line"/>
      <point x="27" y="494" type="line"/>
      <point x="105" y="418" type="line"/>
      <point x="83" y="386"/>
      <point x="72" y="350"/>
      <point x="72" y="311" type="curve" smooth="yes"/>
      <point x="72" y="272"/>
      <point x="84" y="238"/>
      <point x="105" y="207" type="curve"/>
      <point x="28" y="131" type="line"/>
      <point x="61" y="98" type="line"/>
      <point x="137" y="171" type="line"/>
      <point x="168" y="146"/>
      <point x="205" y="134"/>
      <point x="246" y="134" type="curve" smooth="yes"/>
      <point x="287" y="134"/>
      <point x="324" y="146"/>
      <point x="354" y="171" type="curve"/>
      <point x="432" y="97" type="line"/>
      <point x="463" y="131" type="line"/>
      <point x="387" y="207" type="line"/>
      <point x="408" y="238"/>
      <point x="420" y="272"/>
      <point x="420" y="311" type="curve" smooth="yes"/>
      <point x="420" y="349"/>
      <point x="408" y="386"/>
      <point x="387" y="418" type="curve"/>
      <point x="463" y="493" type="line"/>
      <point x="432" y="527" type="line"/>
    </contour>
  </outline>
</glyph>
<glyph name="yen" format="1">
  <advance width="583"/>
  <unicode hex="00A5"/>
  <outline>
    <contour>
      <point x="105" y="221" type="line"/>
      <point x="469" y="221" type="line"/>
      <point x="469" y="271" type="line"/>
      <point x="105" y="271" type="line"/>
    </contour>
    <contour>
      <point x="105" y="109" type="line"/>
      <point x="469" y="109" type="line"/>
      <point x="469" y="158" type="line"/>
      <point x="105" y="158" type="line"/>
    </contour>
    <component base="Y"/>
  </outline>
</glyph>
<glyph name="brokenbar" format="1">
  <advance width="292"/>
  <unicode hex="00A6"/>
  <outline>
    <contour>
      <point x="113" y="663" type="line"/>
      <point x="113" y="346" type="line"/>
      <point x="178" y="346" type="line"/>
      <point x="178" y="663" type="line"/>
    </contour>
    <contour>
      <point x="113" y="207" type="line"/>
      <point x="113" y="-111" type="line"/>
      <point x="178" y="-111" type="line"/>
      <point x="178" y="207" type="line"/>
    </contour>
  </outline>
</glyph>
<glyph name="section" format="1">
  <advance width="456"/>
  <unicode hex="00A7"/>
  <outline>
    <contour>
      <point x="293" y="252" type="curve"/>
      <point x="283" y="256"/>
      <point x="267" y="264"/>
      <point x="220" y="278" type="curve"/>
      <point x="159" y="300"/>
      <point x="144" y="310"/>
      <point x="144" y="343" type="curve" smooth="yes"/>
      <point x="144" y="366"/>
      <point x="153" y="382"/>
      <point x="171" y="392" type="curve"/>
      <point x="174" y="390"/>
      <point x="187" y="386"/>
      <point x="234" y="369" type="curve" smooth="yes"/>
      <point x="293" y="349"/>
      <point x="310" y="328"/>
      <point x="310" y="299" type="curve" smooth="yes"/>
      <point x="310" y="280"/>
      <point x="304" y="263"/>
    </contour>
    <contour>
      <point x="220" y="-9" type="curve" smooth="yes"/>
      <point x="308" y="-9"/>
      <point x="380" y="30"/>
      <point x="380" y="131" type="curve" smooth="yes"/>
      <point x="380" y="168"/>
      <point x="370" y="197"/>
      <point x="345" y="220" type="curve"/>
      <point x="366" y="242"/>
      <point x="381" y="271"/>
      <point x="381" y="311" type="curve" smooth="yes"/>
      <point x="381" y="373"/>
      <point x="356" y="408"/>
      <point x="264" y="440" type="curve" smooth="yes"/>
      <point x="162" y="475"/>
      <point x="151" y="485"/>
      <point x="151" y="518" type="curve" smooth="yes"/>
      <point x="151" y="555"/>
      <point x="174" y="576"/>
      <point x="233" y="576" type="curve" smooth="yes"/>
      <point x="277" y="576"/>
      <point x="319" y="561"/>
      <point x="345" y="548" type="curve"/>
      <point x="365" y="607" type="line"/>
      <point x="325" y="629"/>
      <point x="276" y="642"/>
      <point x="225" y="642" type="curve" smooth="yes"/>
      <point x="133" y="642"/>
      <point x="70" y="597"/>
      <point x="70" y="512" type="curve" smooth="yes"/>
      <point x="70" y="475"/>
      <point x="82" y="447"/>
      <point x="114" y="422" type="curve"/>
      <point x="88" y="399"/>
      <point x="71" y="368"/>
      <point x="71" y="332" type="curve" smooth="yes"/>
      <point x="71" y="277"/>
      <point x="97" y="243"/>
      <point x="180" y="214" type="curve" smooth="yes"/>
      <point x="285" y="178"/>
      <point x="302" y="158"/>
      <point x="302" y="127" type="curve" smooth="yes"/>
      <point x="302" y="80"/>
      <point x="272" y="57"/>
      <point x="220" y="57" type="curve" smooth="yes"/>
      <point x="173" y="57"/>
      <point x="123" y="75"/>
      <point x="79" y="97" type="curve"/>
      <point x="79" y="25" type="line"/>
      <point x="121" y="4"/>
      <point x="174" y="-9"/>
    </contour>
  </outline>
</glyph>
<glyph name="dieresis" format="1">
  <advance width="415"/>
  <unicode hex="00A8"/>
  <outline>
    <contour>
      <point x="300" y="548" type="curve" smooth="yes"/>
      <point x="333" y="548"/>
      <point x="350" y="570"/>
      <point x="350" y="599" type="curve" smooth="yes"/>
      <point x="350" y="629"/>
      <point x="333" y="650"/>
      <point x="300" y="650" type="curve" smooth="yes"/>
      <point x="266" y="650"/>
      <point x="250" y="629"/>
      <point x="250" y="599" type="curve" smooth="yes"/>
      <point x="250" y="570"/>
      <point x="266" y="548"/>
    </contour>
    <contour>
      <point x="106" y="548" type="curve" smooth="yes"/>
      <point x="139" y="548"/>
      <point x="156" y="570"/>
      <point x="156" y="599" type="curve" smooth="yes"/>
      <point x="156" y="629"/>
      <point x="139" y="650"/>
      <point x="106" y="650" type="curve" smooth="yes"/>
      <point x="72" y="650"/>
      <point x="55" y="629"/>
      <point x="55" y="599" type="curve" smooth="yes"/>
      <point x="55" y="570"/>
      <point x="72" y="548"/>
    </contour>
    <contour>
      <point x="207" y="464" type="move" name="_top"/>
    </contour>
  </outline>
</glyph>
<glyph name="copyright" format="1">
  <advance width="740"/>
  <unicode hex="00A9"/>
  <outline>
    <contour>
      <point x="339" y="-13" type="curve" smooth="yes"/>
      <point x="509" y="-13"/>
      <point x="670" y="107"/>
      <point x="670" y="312" type="curve" smooth="yes"/>
      <point x="670" y="518"/>
      <point x="509" y="638"/>
      <point x="339" y="638" type="curve" smooth="yes"/>
      <point x="170" y="638"/>
      <point x="12" y="518"/>
      <point x="12" y="312" type="curve" smooth="yes"/>
      <point x="12" y="107"/>
      <point x="170" y="-13"/>
    </contour>
    <contour>
      <point x="339" y="33" type="curve" smooth="yes"/>
      <point x="195" y="33"/>
      <point x="63" y="135"/>
      <point x="63" y="312" type="curve" smooth="yes"/>
      <point x="63" y="488"/>
      <point x="195" y="592"/>
      <point x="339" y="592" type="curve" smooth="yes"/>
      <point x="483" y="592"/>
      <point x="617" y="488"/>
      <point x="617" y="312" type="curve" smooth="yes"/>
      <point x="617" y="136"/>
      <point x="483" y="33"/>
    </contour>
    <contour>
      <point x="348" y="103" type="curve" smooth="yes"/>
      <point x="391" y="103"/>
      <point x="432" y="114"/>
      <point x="469" y="137" type="curve"/>
      <point x="454" y="178" type="line"/>
      <point x="418" y="157"/>
      <point x="384" y="149"/>
      <point x="351" y="149" type="curve" smooth="yes"/>
      <point x="269" y="149"/>
      <point x="203" y="210"/>
      <point x="203" y="314" type="curve" smooth="yes"/>
      <point x="203" y="412"/>
      <point x="268" y="476"/>
      <point x="348" y="476" type="curve" smooth="yes"/>
      <point x="379" y="476"/>
      <point x="417" y="465"/>
      <point x="449" y="444" type="curve"/>
      <point x="469" y="486" type="line"/>
      <point x="432" y="511"/>
      <point x="389" y="523"/>
      <point x="345" y="523" type="curve" smooth="yes"/>
      <point x="237" y="523"/>
      <point x="143" y="439"/>
      <point x="143" y="313" type="curve" smooth="yes"/>
      <point x="143" y="185"/>
      <point x="239" y="103"/>
    </contour>
  </outline>
</glyph>
<glyph name="guillemotleft" format="1">
  <advance width="432"/>
  <unicode hex="00AB"/>
  <outline>
    <contour>
      <point x="318" y="62" type="line"/>
      <point x="389" y="62" type="line"/>
      <point x="273" y="239" type="line"/>
      <point x="391" y="417" type="line"/>
      <point x="319" y="417" type="line"/>
      <point x="193" y="238" type="line"/>
    </contour>
    <contour>
      <point x="157" y="62" type="line"/>
      <point x="229" y="62" type="line"/>
      <point x="113" y="239" type="line"/>
      <point x="231" y="417" type="line"/>
      <point x="159" y="417" type="line"/>
      <point x="32" y="238" type="line"/>
    </contour>
  </outline>
</glyph>
<glyph name="logicalnot" format="1">
  <advance width="529"/>
  <unicode hex="00AC"/>
  <outline>
    <contour>
      <point x="44" y="351" type="line"/>
      <point x="44" y="286" type="line"/>
      <point x="396" y="286" type="line"/>
      <point x="396" y="108" type="line"/>
      <point x="460" y="108" type="line"/>
      <point x="460" y="351" type="line"/>
    </contour>
  </outline>
</glyph>
<glyph name="uni00AD" format="1">
  <advance width="392"/>
  <unicode hex="00AD"/>
  <outline>
    <contour>
      <point x="54" y="178" type="line"/>
      <point x="338" y="178" type="line"/>
      <point x="338" y="246" type="line"/>
      <point x="54" y="246" type="line"/>
    </contour>
  </outline>
</glyph>
<glyph name="registered" format="1">
  <advance width="798"/>
  <unicode hex="00AE"/>
  <outline>
    <contour>
      <point x="393" y="-13" type="curve" smooth="yes"/>
      <point x="559" y="-13"/>
      <point x="716" y="107"/>
      <point x="716" y="312" type="curve" smooth="yes"/>
      <point x="716" y="517"/>
      <point x="559" y="638"/>
      <point x="393" y="638" type="curve" smooth="yes"/>
      <point x="227" y="638"/>
      <point x="69" y="517"/>
      <point x="69" y="312" type="curve" smooth="yes"/>
      <point x="69" y="107"/>
      <point x="227" y="-13"/>
    </contour>
    <contour>
      <point x="393" y="33" type="curve" smooth="yes"/>
      <point x="251" y="33"/>
      <point x="122" y="135"/>
      <point x="122" y="312" type="curve" smooth="yes"/>
      <point x="122" y="488"/>
      <point x="251" y="592"/>
      <point x="393" y="592" type="curve" smooth="yes"/>
      <point x="535" y="592"/>
      <point x="665" y="488"/>
      <point x="665" y="312" type="curve" smooth="yes"/>
      <point x="665" y="135"/>
      <point x="535" y="33"/>
    </contour>
    <contour>
      <point x="323" y="352" type="line"/>
      <point x="323" y="470" type="line"/>
      <point x="389" y="470" type="line" smooth="yes"/>
      <point x="457" y="470"/>
      <point x="482" y="466"/>
      <point x="482" y="412" type="curve" smooth="yes"/>
      <point x="482" y="367"/>
      <point x="461" y="352"/>
      <point x="401" y="352" type="curve" smooth="yes"/>
    </contour>
    <contour>
      <point x="267" y="128" type="line"/>
      <point x="322" y="128" type="line"/>
      <point x="322" y="308" type="line"/>
      <point x="397" y="308" type="line"/>
      <point x="400" y="304"/>
      <point x="490" y="128"/>
      <point x="490" y="128" type="curve"/>
      <point x="551" y="128" type="line"/>
      <point x="551" y="128"/>
      <point x="458" y="306"/>
      <point x="453" y="313" type="curve"/>
      <point x="511" y="323"/>
      <point x="535" y="358"/>
      <point x="535" y="414" type="curve" smooth="yes"/>
      <point x="535" y="489"/>
      <point x="494" y="516"/>
      <point x="398" y="516" type="curve" smooth="yes"/>
      <point x="267" y="516" type="line"/>
    </contour>
  </outline>
</glyph>
<glyph name="macron" format="1">
  <advance width="481"/>
  <unicode hex="00AF"/>
  <outline>
    <contour>
      <point x="105" y="564" type="line"/>
      <point x="367" y="564" type="line"/>
      <point x="367" y="612" type="line"/>
      <point x="105" y="612" type="line"/>
    </contour>
    <contour>
      <point x="241" y="459" type="move" name="_top"/>
    </contour>
  </outline>
</glyph>
<glyph name="degree" format="1">
  <advance width="370"/>
  <unicode hex="00B0"/>
  <outline>
    <contour>
      <point x="184" y="383" type="curve" smooth="yes"/>
      <point x="259" y="383"/>
      <point x="315" y="441"/>
      <point x="315" y="512" type="curve" smooth="yes"/>
      <point x="315" y="585"/>
      <point x="257" y="638"/>
      <point x="184" y="638" type="curve" smooth="yes"/>
      <point x="111" y="638"/>
      <point x="54" y="585"/>
      <point x="54" y="512" type="curve" smooth="yes"/>
      <point x="54" y="439"/>
      <point x="111" y="383"/>
    </contour>
    <contour>
      <point x="184" y="432" type="curve" smooth="yes"/>
      <point x="142" y="432"/>
      <point x="107" y="464"/>
      <point x="107" y="512" type="curve" smooth="yes"/>
      <point x="107" y="559"/>
      <point x="143" y="590"/>
      <point x="184" y="590" type="curve" smooth="yes"/>
      <point x="225" y="590"/>
      <point x="260" y="559"/>
      <point x="260" y="512" type="curve" smooth="yes"/>
      <point x="260" y="464"/>
      <point x="226" y="432"/>
    </contour>
  </outline>
</glyph>
<glyph name="plusminus" format="1">
  <advance width="486"/>
  <unicode hex="00B1"/>
  <outline>
    <contour>
      <point x="45" y="61" type="line"/>
      <point x="45" y="0" type="line"/>
      <point x="445" y="0" type="line"/>
      <point x="445" y="61" type="line"/>
    </contour>
    <contour>
      <point x="209" y="493" type="line"/>
      <point x="209" y="331" type="line"/>
      <point x="52" y="331" type="line"/>
      <point x="52" y="267" type="line"/>
      <point x="209" y="267" type="line"/>
      <point x="209" y="105" type="line"/>
      <point x="276" y="105" type="line"/>
      <point x="276" y="267" type="line"/>
      <point x="432" y="267" type="line"/>
      <point x="432" y="331" type="line"/>
      <point x="275" y="331" type="line"/>
      <point x="275" y="493" type="line"/>
    </contour>
  </outline>
</glyph>
<glyph name="uni00B2" format="1">
  <advance width="341"/>
  <unicode hex="00B2"/>
  <outline>
    <contour>
      <point x="66" y="273" type="line"/>
      <point x="290" y="273" type="line"/>
      <point x="294" y="323" type="line"/>
      <point x="154" y="323" type="line"/>
      <point x="202" y="370"/>
      <point x="200" y="364"/>
      <point x="236" y="400" type="curve" smooth="yes"/>
      <point x="273" y="438"/>
      <point x="295" y="478"/>
      <point x="295" y="527" type="curve" smooth="yes"/>
      <point x="295" y="601"/>
      <point x="239" y="642"/>
      <point x="179" y="642" type="curve" smooth="yes"/>
      <point x="124" y="642"/>
      <point x="81" y="623"/>
      <point x="53" y="585" type="curve"/>
      <point x="81" y="544" type="line"/>
      <point x="103" y="572"/>
      <point x="135" y="588"/>
      <point x="175" y="588" type="curve" smooth="yes"/>
      <point x="209" y="588"/>
      <point x="236" y="564"/>
      <point x="236" y="527" type="curve" smooth="yes"/>
      <point x="236" y="504"/>
      <point x="214" y="471"/>
      <point x="190" y="442" type="curve"/>
      <point x="128" y="374"/>
      <point x="110" y="367"/>
      <point x="66" y="323" type="curve"/>
    </contour>
  </outline>
</glyph>
<glyph name="uni00B3" format="1">
  <advance width="376"/>
  <unicode hex="00B3"/>
  <outline>
    <contour>
      <point x="186" y="265" type="curve" smooth="yes"/>
      <point x="255" y="265"/>
      <point x="317" y="301"/>
      <point x="317" y="374" type="curve" smooth="yes"/>
      <point x="317" y="420"/>
      <point x="289" y="454"/>
      <point x="249" y="463" type="curve"/>
      <point x="290" y="472"/>
      <point x="312" y="506"/>
      <point x="312" y="546" type="curve" smooth="yes"/>
      <point x="312" y="615"/>
      <point x="259" y="641"/>
      <point x="197" y="641" type="curve" smooth="yes"/>
      <point x="150" y="641"/>
      <point x="104" y="627"/>
      <point x="73" y="602" type="curve"/>
      <point x="95" y="563" type="line"/>
      <point x="120" y="581"/>
      <point x="151" y="593"/>
      <point x="188" y="593" type="curve" smooth="yes"/>
      <point x="227" y="593"/>
      <point x="257" y="578"/>
      <point x="257" y="541" type="curve" smooth="yes"/>
      <point x="257" y="508"/>
      <point x="238" y="484"/>
      <point x="184" y="484" type="curve" smooth="yes"/>
      <point x="134" y="484" type="line"/>
      <point x="134" y="439" type="line"/>
      <point x="184" y="440" type="line"/>
      <point x="185" y="440" type="line" smooth="yes"/>
      <point x="236" y="440"/>
      <point x="262" y="412"/>
      <point x="262" y="375" type="curve" smooth="yes"/>
      <point x="262" y="334"/>
      <point x="227" y="313"/>
      <point x="185" y="313" type="curve" smooth="yes"/>
      <point x="146" y="313"/>
      <point x="114" y="326"/>
      <point x="93" y="345" type="curve"/>
      <point x="70" y="301" type="line"/>
      <point x="100" y="277"/>
      <point x="143" y="265"/>
    </contour>
  </outline>
</glyph>
<glyph name="acute" format="1">
  <advance width="319"/>
  <unicode hex="00B4"/>
  <outline>
    <contour>
      <point x="134" y="519" type="line"/>
      <point x="193" y="519" type="line"/>
      <point x="324" y="683" type="line"/>
      <point x="216" y="683" type="line"/>
    </contour>
    <contour>
      <point x="165" y="464" type="move" name="_top"/>
    </contour>
  </outline>
</glyph>
<glyph name="paragraph" format="1">
  <advance width="500"/>
  <unicode hex="00B6"/>
  <outline>
    <contour>
      <point x="281" y="569" type="line"/>
      <point x="346" y="569" type="line"/>
      <point x="346" y="-92" type="line"/>
      <point x="406" y="-92" type="line"/>
      <point x="406" y="625" type="line"/>
      <point x="248" y="625" type="line" smooth="yes"/>
      <point x="99" y="625"/>
      <point x="54" y="554"/>
      <point x="54" y="472" type="curve" smooth="yes"/>
      <point x="54" y="395"/>
      <point x="101" y="321"/>
      <point x="222" y="321" type="curve"/>
      <point x="222" y="-92" type="line"/>
      <point x="281" y="-92" type="line"/>
    </contour>
  </outline>
</glyph>
<glyph name="periodcentered" format="1">
  <advance width="273"/>
  <unicode hex="00B7"/>
  <outline>
    <contour>
      <point x="157" y="213" type="curve" smooth="yes"/>
      <point x="189" y="213"/>
      <point x="212" y="235"/>
      <point x="212" y="268" type="curve" smooth="yes"/>
      <point x="212" y="301"/>
      <point x="189" y="323"/>
      <point x="157" y="323" type="curve" smooth="yes"/>
      <point x="124" y="323"/>
      <point x="102" y="301"/>
      <point x="102" y="268" type="curve" smooth="yes"/>
      <point x="102" y="235"/>
      <point x="124" y="213"/>
    </contour>
  </outline>
</glyph>
<glyph name="cedilla" format="1">
  <advance width="299"/>
  <unicode hex="00B8"/>
  <outline>
    <contour>
      <point x="160" y="-174" type="curve" smooth="yes"/>
      <point x="222" y="-174"/>
      <point x="268" y="-141"/>
      <point x="268" y="-87" type="curve" smooth="yes"/>
      <point x="268" y="-40"/>
      <point x="236" y="-17"/>
      <point x="196" y="-17" type="curve" smooth="yes"/>
      <point x="181" y="-17"/>
      <point x="165" y="-19"/>
      <point x="149" y="-25" type="curve"/>
      <point x="149" y="-50" type="line"/>
      <point x="157" y="-49"/>
      <point x="166" y="-47"/>
      <point x="172" y="-47" type="curve" smooth="yes"/>
      <point x="207" y="-47"/>
      <point x="216" y="-68"/>
      <point x="216" y="-86" type="curve" smooth="yes"/>
      <point x="216" y="-115"/>
      <point x="190" y="-131"/>
      <point x="156" y="-131" type="curve" smooth="yes"/>
      <point x="140" y="-131"/>
      <point x="123" y="-127"/>
      <point x="105" y="-120" type="curve"/>
      <point x="91" y="-159" type="line"/>
      <point x="113" y="-169"/>
      <point x="136" y="-174"/>
    </contour>
    <contour>
      <point x="182" y="5" type="move" name="_bot"/>
    </contour>
  </outline>
</glyph>
<glyph name="uni00B9" format="1">
  <advance width="376"/>
  <unicode hex="00B9"/>
  <outline>
    <contour>
      <point x="110" y="264" type="line"/>
      <point x="316" y="264" type="line"/>
      <point x="316" y="317" type="line"/>
      <point x="247" y="317" type="line"/>
      <point x="247" y="636" type="line"/>
      <point x="195" y="636" type="line"/>
      <point x="180" y="625"/>
      <point x="129" y="598"/>
      <point x="106" y="589" type="curve"/>
      <point x="106" y="535" type="line"/>
      <point x="117" y="537"/>
      <point x="164" y="559"/>
      <point x="180" y="568" type="curve"/>
      <point x="180" y="317" type="line"/>
      <point x="110" y="317" type="line"/>
    </contour>
  </outline>
</glyph>
<glyph name="ordmasculine" format="1">
  <advance width="414"/>
  <unicode hex="00BA"/>
  <outline>
    <contour>
      <point x="290" y="473" type="curve" smooth="yes"/>
      <point x="290" y="401"/>
      <point x="263" y="361"/>
      <point x="206" y="361" type="curve" smooth="yes"/>
      <point x="152" y="361"/>
      <point x="126" y="401"/>
      <point x="126" y="474" type="curve" smooth="yes"/>
      <point x="126" y="547"/>
      <point x="152" y="588"/>
      <point x="206" y="588" type="curve" smooth="yes"/>
      <point x="260" y="588"/>
      <point x="290" y="546"/>
    </contour>
    <contour>
      <point x="57" y="474" type="curve" smooth="yes"/>
      <point x="57" y="379"/>
      <point x="109" y="307"/>
      <point x="206" y="307" type="curve" smooth="yes"/>
      <point x="297" y="307"/>
      <point x="355" y="380"/>
      <point x="355" y="474" type="curve" smooth="yes"/>
      <point x="355" y="572"/>
      <point x="305" y="643"/>
      <point x="206" y="643" type="curve" smooth="yes"/>
      <point x="109" y="643"/>
      <point x="57" y="571"/>
    </contour>
  </outline>
</glyph>
<glyph name="guillemotright" format="1">
  <advance width="432"/>
  <unicode hex="00BB"/>
  <outline>
    <contour>
      <point x="265" y="62" type="line"/>
      <point x="393" y="239" type="line"/>
      <point x="265" y="417" type="line"/>
      <point x="194" y="417" type="line"/>
      <point x="311" y="239" type="line"/>
      <point x="195" y="62" type="line"/>
    </contour>
    <contour>
      <point x="107" y="62" type="line"/>
      <point x="234" y="239" type="line"/>
      <point x="107" y="417" type="line"/>
      <point x="35" y="417" type="line"/>
      <point x="152" y="239" type="line"/>
      <point x="36" y="62" type="line"/>
    </contour>
  </outline>
</glyph>
<glyph name="onequarter" format="1">
  <advance width="733"/>
  <unicode hex="00BC"/>
  <outline>
    <contour>
      <point x="491" y="131" type="line"/>
      <point x="594" y="291" type="line"/>
      <point x="594" y="131" type="line"/>
    </contour>
    <contour>
      <point x="155" y="0" type="line"/>
      <point x="222" y="0" type="line"/>
      <point x="622" y="637" type="line"/>
      <point x="556" y="637" type="line"/>
    </contour>
    <contour>
      <point x="595" y="0" type="line"/>
      <point x="655" y="0" type="line"/>
      <point x="655" y="80" type="line"/>
      <point x="704" y="80" type="line"/>
      <point x="703" y="131" type="line"/>
      <point x="655" y="131" type="line"/>
      <point x="655" y="370" type="line"/>
      <point x="591" y="370" type="line"/>
      <point x="425" y="127" type="line"/>
      <point x="425" y="80" type="line"/>
      <point x="595" y="80" type="line"/>
    </contour>
    <contour>
      <point x="55" y="256" type="line"/>
      <point x="244" y="256" type="line"/>
      <point x="244" y="311" type="line"/>
      <point x="185" y="311" type="line"/>
      <point x="185" y="637" type="line"/>
      <point x="133" y="637" type="line"/>
      <point x="116" y="623"/>
      <point x="67" y="599"/>
      <point x="51" y="592" type="curve"/>
      <point x="51" y="535" type="line"/>
      <point x="60" y="539"/>
      <point x="104" y="558"/>
      <point x="120" y="568" type="curve"/>
      <point x="120" y="311" type="line"/>
      <point x="55" y="311" type="line"/>
    </contour>
  </outline>
</glyph>
<glyph name="onehalf" format="1">
  <advance width="776"/>
  <unicode hex="00BD"/>
  <outline>
    <contour>
      <point x="163" y="0" type="line"/>
      <point x="229" y="0" type="line"/>
      <point x="628" y="637" type="line"/>
      <point x="563" y="637" type="line"/>
    </contour>
    <contour>
      <point x="61" y="256" type="line"/>
      <point x="253" y="256" type="line"/>
      <point x="253" y="308" type="line"/>
      <point x="193" y="308" type="line"/>
      <point x="193" y="637" type="line"/>
      <point x="140" y="637" type="line"/>
      <point x="123" y="623"/>
      <point x="72" y="599"/>
      <point x="56" y="592" type="curve"/>
      <point x="56" y="539" type="line"/>
      <point x="65" y="543"/>
      <point x="110" y="560"/>
      <point x="126" y="570" type="curve"/>
      <point x="126" y="308" type="line"/>
      <point x="61" y="308" type="line"/>
    </contour>
    <contour>
      <point x="506" y="0" type="line"/>
      <point x="730" y="0" type="line"/>
      <point x="732" y="54" type="line"/>
      <point x="581" y="54" type="line"/>
      <point x="657" y="125" type="line" smooth="yes"/>
      <point x="711" y="175"/>
      <point x="736" y="209"/>
      <point x="736" y="263" type="curve" smooth="yes"/>
      <point x="736" y="331"/>
      <point x="686" y="375"/>
      <point x="610" y="375" type="curve" smooth="yes"/>
      <point x="556" y="375"/>
      <point x="508" y="348"/>
      <point x="484" y="308" type="curve"/>
      <point x="519" y="270" type="line"/>
      <point x="544" y="303"/>
      <point x="575" y="318"/>
      <point x="609" y="318" type="curve" smooth="yes"/>
      <point x="642" y="318"/>
      <point x="671" y="299"/>
      <point x="671" y="261" type="curve" smooth="yes"/>
      <point x="671" y="233"/>
      <point x="657" y="207"/>
      <point x="615" y="164" type="curve" smooth="yes"/>
      <point x="503" y="52" type="line"/>
    </contour>
  </outline>
</glyph>
<glyph name="threequarters" format="1">
  <advance width="748"/>
  <unicode hex="00BE"/>
  <outline>
    <contour>
      <point x="516" y="131" type="line"/>
      <point x="620" y="291" type="line"/>
      <point x="620" y="131" type="line"/>
    </contour>
    <contour>
      <point x="182" y="0" type="line"/>
      <point x="250" y="0" type="line"/>
      <point x="650" y="637" type="line"/>
      <point x="584" y="637" type="line"/>
    </contour>
    <contour>
      <point x="620" y="0" type="line"/>
      <point x="679" y="0" type="line"/>
      <point x="679" y="80" type="line"/>
      <point x="729" y="80" type="line"/>
      <point x="729" y="131" type="line"/>
      <point x="679" y="131" type="line"/>
      <point x="679" y="370" type="line"/>
      <point x="615" y="370" type="line"/>
      <point x="450" y="127" type="line"/>
      <point x="450" y="80" type="line"/>
      <point x="620" y="80" type="line"/>
    </contour>
    <contour>
      <point x="155" y="253" type="curve" smooth="yes"/>
      <point x="222" y="253"/>
      <point x="282" y="290"/>
      <point x="282" y="367" type="curve" smooth="yes"/>
      <point x="282" y="408"/>
      <point x="258" y="443"/>
      <point x="214" y="455" type="curve"/>
      <point x="259" y="466"/>
      <point x="274" y="507"/>
      <point x="274" y="539" type="curve" smooth="yes"/>
      <point x="274" y="605"/>
      <point x="221" y="634"/>
      <point x="161" y="634" type="curve" smooth="yes"/>
      <point x="122" y="634"/>
      <point x="81" y="622"/>
      <point x="50" y="599" type="curve"/>
      <point x="73" y="555" type="line"/>
      <point x="102" y="573"/>
      <point x="132" y="581"/>
      <point x="156" y="581" type="curve" smooth="yes"/>
      <point x="190" y="581"/>
      <point x="213" y="564"/>
      <point x="213" y="531" type="curve" smooth="yes"/>
      <point x="213" y="498"/>
      <point x="192" y="478"/>
      <point x="147" y="478" type="curve" smooth="yes"/>
      <point x="104" y="478" type="line"/>
      <point x="104" y="425" type="line"/>
      <point x="147" y="426" type="line"/>
      <point x="198" y="426"/>
      <point x="221" y="406"/>
      <point x="221" y="366" type="curve" smooth="yes"/>
      <point x="221" y="324"/>
      <point x="191" y="306"/>
      <point x="154" y="306" type="curve" smooth="yes"/>
      <point x="127" y="306"/>
      <point x="96" y="315"/>
      <point x="71" y="331" type="curve"/>
      <point x="50" y="285" type="line"/>
      <point x="81" y="264"/>
      <point x="118" y="253"/>
    </contour>
  </outline>
</glyph>
<glyph name="AE" format="1">
  <advance width="726"/>
  <unicode hex="00C6"/>
  <outline>
    <contour>
      <point x="351" y="254" type="line"/>
      <point x="204" y="254" type="line"/>
      <point x="351" y="533" type="line"/>
    </contour>
    <contour>
      <point x="312" y="625" type="line"/>
      <point x="-32" y="0" type="line"/>
      <point x="71" y="0" type="line"/>
      <point x="172" y="189" type="line"/>
      <point x="351" y="189" type="line"/>
      <point x="351" y="0" type="line"/>
      <point x="698" y="0" type="line"/>
      <point x="702" y="72" type="line"/>
      <point x="438" y="72" type="line"/>
      <point x="438" y="289" type="line"/>
      <point x="670" y="289" type="line"/>
      <point x="670" y="360" type="line"/>
      <point x="438" y="360" type="line"/>
      <point x="438" y="555" type="line"/>
      <point x="691" y="555" type="line"/>
      <point x="695" y="625" type="line"/>
    </contour>
  </outline>
</glyph>
<glyph name="multiply" format="1">
  <advance width="426"/>
  <unicode hex="00D7"/>
  <outline>
    <contour>
      <point x="47" y="399" type="line"/>
      <point x="166" y="269" type="line"/>
      <point x="44" y="137" type="line"/>
      <point x="89" y="90" type="line"/>
      <point x="213" y="220" type="line"/>
      <point x="335" y="90" type="line"/>
      <point x="380" y="138" type="line"/>
      <point x="380" y="138"/>
      <point x="274" y="253"/>
      <point x="258" y="269" type="curve"/>
      <point x="379" y="397" type="line"/>
      <point x="332" y="445" type="line"/>
      <point x="213" y="316" type="line"/>
      <point x="91" y="447" type="line"/>
    </contour>
  </outline>
</glyph>
<glyph name="Oslash" format="1">
  <advance width="698"/>
  <unicode hex="00D8"/>
  <outline>
    <contour>
      <point x="350" y="68" type="curve" smooth="yes"/>
      <point x="330" y="68"/>
      <point x="312" y="70"/>
      <point x="295" y="74" type="curve"/>
      <point x="464" y="517" type="line"/>
      <point x="512" y="476"/>
      <point x="533" y="402"/>
      <point x="533" y="309" type="curve" smooth="yes"/>
      <point x="533" y="162"/>
      <point x="483" y="68"/>
    </contour>
    <contour>
      <point x="251" y="97" type="line"/>
      <point x="191" y="134"/>
      <point x="166" y="210"/>
      <point x="166" y="309" type="curve" smooth="yes"/>
      <point x="166" y="460"/>
      <point x="222" y="557"/>
      <point x="351" y="557" type="curve" smooth="yes"/>
      <point x="377" y="557"/>
      <point x="400" y="553"/>
      <point x="420" y="546" type="curve"/>
    </contour>
    <contour>
      <point x="226" y="-108" type="line"/>
      <point x="267" y="0" type="line"/>
      <point x="292" y="-6"/>
      <point x="320" y="-9"/>
      <point x="351" y="-9" type="curve" smooth="yes"/>
      <point x="543" y="-9"/>
      <point x="636" y="115"/>
      <point x="636" y="309" type="curve" smooth="yes"/>
      <point x="636" y="448"/>
      <point x="588" y="550"/>
      <point x="497" y="600" type="curve"/>
      <point x="538" y="710" type="line"/>
      <point x="490" y="730" type="line"/>
      <point x="448" y="620" type="line"/>
      <point x="419" y="630"/>
      <point x="387" y="634"/>
      <point x="351" y="634" type="curve" smooth="yes"/>
      <point x="161" y="634"/>
      <point x="63" y="510"/>
      <point x="63" y="310" type="curve" smooth="yes"/>
      <point x="63" y="164"/>
      <point x="115" y="60"/>
      <point x="220" y="15" type="curve"/>
      <point x="179" y="-91" type="line"/>
    </contour>
    <contour>
      <point x="351" y="625" type="move" name="top"/>
    </contour>
  </outline>
</glyph>
<glyph name="Thorn" format="1">
  <advance width="541"/>
  <unicode hex="00DE"/>
  <outline>
    <contour>
      <point x="80" y="0" type="line"/>
      <point x="179" y="0" type="line"/>
      <point x="179" y="182" type="line"/>
      <point x="254" y="182" type="line" smooth="yes"/>
      <point x="419" y="182"/>
      <point x="478" y="243"/>
      <point x="478" y="358" type="curve" smooth="yes"/>
      <point x="478" y="474"/>
      <point x="398" y="514"/>
      <point x="250" y="514" type="curve" smooth="yes"/>
      <point x="179" y="514" type="line"/>
      <point x="179" y="638" type="line"/>
      <point x="80" y="638" type="line"/>
    </contour>
    <contour>
      <point x="179" y="447" type="line"/>
      <point x="251" y="447" type="line" smooth="yes"/>
      <point x="342" y="447"/>
      <point x="381" y="423"/>
      <point x="381" y="355" type="curve" smooth="yes"/>
      <point x="381" y="280"/>
      <point x="350" y="251"/>
      <point x="246" y="251" type="curve" smooth="yes"/>
      <point x="179" y="251" type="line"/>
    </contour>
  </outline>
</glyph>
<glyph name="germandbls" format="1">
  <advance width="554"/>
  <unicode hex="00DF"/>
  <outline>
    <contour>
      <point x="371" y="-9" type="curve" smooth="yes"/>
      <point x="465" y="-9"/>
      <point x="517" y="44"/>
      <point x="517" y="130" type="curve" smooth="yes"/>
      <point x="517" y="260"/>
      <point x="351" y="303"/>
      <point x="351" y="346" type="curve" smooth="yes"/>
      <point x="351" y="381"/>
      <point x="441" y="424"/>
      <point x="441" y="518" type="curve" smooth="yes"/>
      <point x="441" y="606"/>
      <point x="371" y="659"/>
      <point x="269" y="659" type="curve" smooth="yes"/>
      <point x="141" y="659"/>
      <point x="67" y="583"/>
      <point x="67" y="456" type="curve" smooth="yes"/>
      <point x="67" y="0" type="line"/>
      <point x="160" y="0" type="line"/>
      <point x="160" y="453" type="line" smooth="yes"/>
      <point x="160" y="549"/>
      <point x="198" y="589"/>
      <point x="272" y="589" type="curve" smooth="yes"/>
      <point x="325" y="589"/>
      <point x="353" y="562"/>
      <point x="353" y="518" type="curve" smooth="yes"/>
      <point x="353" y="434"/>
      <point x="271" y="411"/>
      <point x="271" y="338" type="curve" smooth="yes"/>
      <point x="271" y="254"/>
      <point x="422" y="219"/>
      <point x="422" y="130" type="curve" smooth="yes"/>
      <point x="422" y="92"/>
      <point x="400" y="62"/>
      <point x="352" y="62" type="curve" smooth="yes"/>
      <point x="310" y="62"/>
      <point x="265" y="78"/>
      <point x="244" y="89" type="curve"/>
      <point x="223" y="24" type="line"/>
      <point x="262" y="6"/>
      <point x="320" y="-9"/>
    </contour>
  </outline>
</glyph>
<glyph name="ae" format="1">
  <advance width="719"/>
  <unicode hex="00E6"/>
  <outline>
    <contour>
      <point x="525" y="408" type="curve" smooth="yes"/>
      <point x="591" y="408"/>
      <point x="613" y="371"/>
      <point x="613" y="326" type="curve" smooth="yes"/>
      <point x="613" y="290"/>
      <point x="600" y="258"/>
      <point x="475" y="258" type="curve" smooth="yes"/>
      <point x="454" y="258"/>
      <point x="429" y="259"/>
      <point x="400" y="261" type="curve"/>
      <point x="406" y="362"/>
      <point x="454" y="408"/>
    </contour>
    <contour>
      <point x="317" y="147" type="curve"/>
      <point x="313" y="90"/>
      <point x="266" y="53"/>
      <point x="196" y="53" type="curve" smooth="yes"/>
      <point x="159" y="53"/>
      <point x="113" y="71"/>
      <point x="113" y="127" type="curve" smooth="yes"/>
      <point x="113" y="181"/>
      <point x="140" y="215"/>
      <point x="226" y="215" type="curve" smooth="yes"/>
      <point x="241" y="215"/>
      <point x="287" y="213"/>
      <point x="314" y="210" type="curve"/>
      <point x="314" y="206"/>
      <point x="315" y="151"/>
    </contour>
    <contour>
      <point x="688" y="328" type="curve" smooth="yes"/>
      <point x="688" y="404"/>
      <point x="634" y="473"/>
      <point x="523" y="473" type="curve" smooth="yes"/>
      <point x="455" y="473"/>
      <point x="401" y="448"/>
      <point x="368" y="389" type="curve"/>
      <point x="350" y="449"/>
      <point x="297" y="473"/>
      <point x="222" y="473" type="curve" smooth="yes"/>
      <point x="150" y="473"/>
      <point x="94" y="454"/>
      <point x="37" y="418" type="curve"/>
      <point x="67" y="360" type="line"/>
      <point x="121" y="393"/>
      <point x="176" y="404"/>
      <point x="219" y="404" type="curve" smooth="yes"/>
      <point x="282" y="404"/>
      <point x="314" y="379"/>
      <point x="314" y="306" type="curve" smooth="yes"/>
      <point x="314" y="265" type="line"/>
      <point x="285" y="269"/>
      <point x="229" y="269"/>
      <point x="212" y="269" type="curve" smooth="yes"/>
      <point x="87" y="269"/>
      <point x="27" y="217"/>
      <point x="27" y="127" type="curve" smooth="yes"/>
      <point x="27" y="38"/>
      <point x="84" y="-5"/>
      <point x="168" y="-8" type="curve"/>
      <point x="243" y="-8"/>
      <point x="317" y="16"/>
      <point x="355" y="83" type="curve"/>
      <point x="388" y="25"/>
      <point x="444" y="-9"/>
      <point x="527" y="-9" type="curve" smooth="yes"/>
      <point x="595" y="-9"/>
      <point x="653" y="12"/>
      <point x="691" y="40" type="curve"/>
      <point x="668" y="98" type="line"/>
      <point x="630" y="76"/>
      <point x="592" y="57"/>
      <point x="538" y="57" type="curve" smooth="yes"/>
      <point x="464" y="57"/>
      <point x="407" y="90"/>
      <point x="399" y="201" type="curve"/>
      <point x="429" y="199"/>
      <point x="457" y="199"/>
      <point x="484" y="199" type="curve" smooth="yes"/>
      <point x="603" y="199"/>
      <point x="688" y="222"/>
    </contour>
    <contour>
      <point x="416" y="464" type="move" name="top"/>
    </contour>
  </outline>
</glyph>
<glyph name="eth" format="1">
  <advance width="516"/>
  <unicode hex="00F0"/>
  <outline>
    <contour>
      <point x="397" y="211" type="curve" smooth="yes"/>
      <point x="397" y="119"/>
      <point x="350" y="57"/>
      <point x="259" y="57" type="curve" smooth="yes"/>
      <point x="167" y="57"/>
      <point x="120" y="128"/>
      <point x="120" y="208" type="curve" smooth="yes"/>
      <point x="120" y="292"/>
      <point x="170" y="354"/>
      <point x="257" y="354" type="curve" smooth="yes"/>
      <point x="348" y="354"/>
      <point x="397" y="287"/>
    </contour>
    <contour>
      <point x="91" y="670" type="line"/>
      <point x="181" y="582" type="line"/>
      <point x="91" y="546" type="line"/>
      <point x="114" y="490" type="line"/>
      <point x="222" y="532" type="line"/>
      <point x="282" y="473"/>
      <point x="326" y="418"/>
      <point x="347" y="381" type="curve"/>
      <point x="324" y="397"/>
      <point x="296" y="416"/>
      <point x="246" y="416" type="curve" smooth="yes"/>
      <point x="124" y="416"/>
      <point x="40" y="333"/>
      <point x="40" y="208" type="curve" smooth="yes"/>
      <point x="40" y="89"/>
      <point x="119" y="-9"/>
      <point x="257" y="-9" type="curve" smooth="yes"/>
      <point x="398" y="-9"/>
      <point x="473" y="81"/>
      <point x="473" y="208" type="curve" smooth="yes"/>
      <point x="473" y="268"/>
      <point x="457" y="327"/>
      <point x="434" y="371" type="curve" smooth="yes"/>
      <point x="404" y="426"/>
      <point x="361" y="482"/>
      <point x="289" y="561" type="curve"/>
      <point x="391" y="600" type="line"/>
      <point x="367" y="657" type="line"/>
      <point x="247" y="609" type="line"/>
      <point x="186" y="670" type="line"/>
    </contour>
  </outline>
</glyph>
<glyph name="divide" format="1">
  <advance width="512"/>
  <unicode hex="00F7"/>
  <outline>
    <contour>
      <point x="207" y="478" type="line"/>
      <point x="207" y="382" type="line"/>
      <point x="303" y="382" type="line"/>
      <point x="303" y="478" type="line"/>
    </contour>
    <contour>
      <point x="207" y="111" type="line"/>
      <point x="207" y="12" type="line"/>
      <point x="301" y="12" type="line"/>
      <point x="301" y="111" type="line"/>
    </contour>
    <contour>
      <point x="42" y="284" type="line"/>
      <point x="42" y="215" type="line"/>
      <point x="466" y="215" type="line"/>
      <point x="466" y="284" type="line"/>
    </contour>
  </outline>
</glyph>
<glyph name="oslash" format="1">
  <advance width="521"/>
  <unicode hex="00F8"/>
  <outline>
    <contour>
      <point x="86" y="-54" type="line"/>
      <point x="115" y="-71" type="line"/>
      <point x="428" y="516" type="line"/>
      <point x="396" y="534" type="line"/>
    </contour>
    <component base="o"/>
  </outline>
</glyph>
<glyph name="thorn" format="1">
  <advance width="510"/>
  <unicode hex="00FE"/>
  <outline>
    <contour>
      <point x="54" y="166" type="line"/>
      <point x="54" y="-195" type="line"/>
      <point x="145" y="-195" type="line"/>
      <point x="145" y="166" type="line"/>
    </contour>
    <component base="b" xOffset="-13"/>
  </outline>
</glyph>
<glyph name="Hbar" format="1">
  <advance width="646"/>
  <unicode hex="0126"/>
  <outline>
    <contour>
      <point x="27" y="550" type="line"/>
      <point x="27" y="490" type="line"/>
      <point x="616" y="490" type="line"/>
      <point x="616" y="550" type="line"/>
    </contour>
    <component base="H"/>
  </outline>
</glyph>
<glyph name="dotlessi" format="1">
  <advance width="233"/>
  <unicode hex="0131"/>
  <outline>
    <contour>
      <point x="74" y="464" type="line"/>
      <point x="74" y="0" type="line"/>
      <point x="168" y="0" type="line"/>
      <point x="168" y="464" type="line"/>
    </contour>
    <contour>
      <point x="123" y="464" type="move" name="top"/>
    </contour>
  </outline>
</glyph>
<glyph name="kgreenlandic" format="1">
  <advance width="475"/>
  <unicode hex="0138"/>
  <outline>
    <contour>
      <point x="62" y="0" type="line"/>
      <point x="145" y="0" type="line"/>
      <point x="145" y="165" type="line"/>
      <point x="193" y="210" type="line"/>
      <point x="363" y="0" type="line"/>
      <point x="456" y="0" type="line"/>
      <point x="456" y="8" type="line"/>
      <point x="255" y="252" type="line"/>
      <point x="442" y="455" type="line"/>
      <point x="442" y="464" type="line"/>
      <point x="346" y="464" type="line"/>
      <point x="142" y="240" type="line"/>
      <point x="145" y="335" type="line"/>
      <point x="145" y="464" type="line"/>
      <point x="62" y="464" type="line"/>
    </contour>
  </outline>
</glyph>
<glyph name="Eng" format="1">
  <advance width="661"/>
  <unicode hex="014A"/>
  <outline>
    <contour>
      <point x="489" y="406" type="line"/>
      <point x="489" y="-2" type="line" smooth="yes"/>
      <point x="489" y="-94"/>
      <point x="470" y="-125"/>
      <point x="324" y="-125" type="curve"/>
      <point x="327" y="-193" type="line"/>
      <point x="509" y="-191"/>
      <point x="579" y="-146"/>
      <point x="579" y="-7" type="curve" smooth="yes"/>
      <point x="579" y="406" type="line"/>
    </contour>
    <component base="N"/>
  </outline>
</glyph>
<glyph name="eng" format="1">
  <advance width="516"/>
  <unicode hex="014B"/>
  <outline>
    <contour>
      <point x="367" y="59" type="line"/>
      <point x="367" y="-5" type="line" smooth="yes"/>
      <point x="367" y="-99"/>
      <point x="353" y="-125"/>
      <point x="206" y="-125" type="curve"/>
      <point x="209" y="-193" type="line"/>
      <point x="401" y="-191"/>
      <point x="461" y="-149"/>
      <point x="461" y="-10" type="curve" smooth="yes"/>
      <point x="461" y="59" type="line"/>
    </contour>
    <component base="n"/>
  </outline>
</glyph>
<glyph name="OE" format="1">
  <advance width="999"/>
  <unicode hex="0152"/>
  <outline>
    <contour>
      <point x="524" y="310" type="curve" smooth="yes"/>
      <point x="524" y="164"/>
      <point x="473" y="67"/>
      <point x="336" y="67" type="curve" smooth="yes"/>
      <point x="199" y="67"/>
      <point x="148" y="164"/>
      <point x="148" y="310" type="curve" smooth="yes"/>
      <point x="148" y="461"/>
      <point x="203" y="560"/>
      <point x="337" y="560" type="curve" smooth="yes"/>
      <point x="471" y="560"/>
      <point x="524" y="461"/>
    </contour>
    <contour>
      <point x="54" y="310" type="curve" smooth="yes"/>
      <point x="54" y="112"/>
      <point x="148" y="-8"/>
      <point x="337" y="-8" type="curve" smooth="yes"/>
      <point x="421" y="-8"/>
      <point x="484" y="19"/>
      <point x="524" y="67" type="curve"/>
      <point x="524" y="0" type="line"/>
      <point x="938" y="0" type="line"/>
      <point x="942" y="72" type="line"/>
      <point x="614" y="72" type="line"/>
      <point x="614" y="287" type="line"/>
      <point x="910" y="287" type="line"/>
      <point x="910" y="358" type="line"/>
      <point x="614" y="358" type="line"/>
      <point x="614" y="555" type="line"/>
      <point x="931" y="555" type="line"/>
      <point x="935" y="625" type="line"/>
      <point x="524" y="625" type="line"/>
      <point x="524" y="556" type="line"/>
      <point x="484" y="606"/>
      <point x="420" y="635"/>
      <point x="337" y="635" type="curve" smooth="yes"/>
      <point x="151" y="635"/>
      <point x="54" y="511"/>
    </contour>
  </outline>
</glyph>
<glyph name="oe" format="1">
  <advance width="813"/>
  <unicode hex="0153"/>
  <outline>
    <contour>
      <point x="465" y="268" type="line"/>
      <point x="472" y="359"/>
      <point x="525" y="410"/>
      <point x="593" y="410" type="curve" smooth="yes"/>
      <point x="662" y="410"/>
      <point x="697" y="363"/>
      <point x="699" y="268" type="curve"/>
    </contour>
    <contour>
      <point x="253" y="56" type="curve" smooth="yes"/>
      <point x="166" y="56"/>
      <point x="128" y="128"/>
      <point x="128" y="233" type="curve" smooth="yes"/>
      <point x="128" y="339"/>
      <point x="166" y="409"/>
      <point x="253" y="409" type="curve" smooth="yes"/>
      <point x="340" y="409"/>
      <point x="378" y="339"/>
      <point x="378" y="233" type="curve" smooth="yes"/>
      <point x="378" y="128"/>
      <point x="340" y="56"/>
    </contour>
    <contour>
      <point x="772" y="260" type="line" smooth="yes"/>
      <point x="772" y="390"/>
      <point x="706" y="474"/>
      <point x="591" y="474" type="curve" smooth="yes"/>
      <point x="523" y="474"/>
      <point x="453" y="432"/>
      <point x="423" y="370" type="curve"/>
      <point x="397" y="432"/>
      <point x="330" y="474"/>
      <point x="253" y="474" type="curve" smooth="yes"/>
      <point x="119" y="474"/>
      <point x="42" y="380"/>
      <point x="42" y="233" type="curve" smooth="yes"/>
      <point x="42" y="88"/>
      <point x="119" y="-8"/>
      <point x="253" y="-8" type="curve" smooth="yes"/>
      <point x="329" y="-8"/>
      <point x="397" y="37"/>
      <point x="422" y="98" type="curve"/>
      <point x="452" y="36"/>
      <point x="528" y="-8"/>
      <point x="604" y="-8" type="curve" smooth="yes"/>
      <point x="671" y="-8"/>
      <point x="727" y="14"/>
      <point x="761" y="39" type="curve"/>
      <point x="740" y="96" type="line"/>
      <point x="734" y="96" type="line"/>
      <point x="702" y="75"/>
      <point x="665" y="56"/>
      <point x="613" y="56" type="curve" smooth="yes"/>
      <point x="538" y="56"/>
      <point x="467" y="97"/>
      <point x="463" y="212" type="curve"/>
      <point x="768" y="212" type="line"/>
      <point x="768" y="212"/>
      <point x="772" y="237"/>
      <point x="772" y="255" type="curve" smooth="yes"/>
    </contour>
  </outline>
</glyph>
<glyph name="florin" format="1">
  <advance width="457"/>
  <unicode hex="0192"/>
  <outline>
    <contour>
      <point x="228" y="536" type="curve" smooth="yes"/>
      <point x="214" y="458" type="line"/>
      <point x="137" y="458" type="line"/>
      <point x="129" y="423" type="line"/>
      <point x="208" y="423" type="line"/>
      <point x="127" y="50" type="line" smooth="yes"/>
      <point x="110" y="-31"/>
      <point x="112" y="-83"/>
      <point x="41" y="-83" type="curve" smooth="yes"/>
      <point x="29" y="-83"/>
      <point x="14" y="-81"/>
      <point x="-4" y="-77" type="curve"/>
      <point x="-13" y="-118" type="line"/>
      <point x="7" y="-124"/>
      <point x="27" y="-128"/>
      <point x="45" y="-128" type="curve" smooth="yes"/>
      <point x="124" y="-128"/>
      <point x="184" y="-68"/>
      <point x="209" y="52" type="curve"/>
      <point x="292" y="423" type="line"/>
      <point x="396" y="423" type="line"/>
      <point x="403" y="458" type="line"/>
      <point x="299" y="458" type="line"/>
      <point x="315" y="547" type="line" smooth="yes"/>
      <point x="325" y="597"/>
      <point x="340" y="634"/>
      <point x="383" y="634" type="curve" smooth="yes"/>
      <point x="416" y="634"/>
      <point x="426" y="606"/>
      <point x="428" y="559" type="curve"/>
      <point x="488" y="559" type="line"/>
      <point x="487" y="647"/>
      <point x="443" y="681"/>
      <point x="377" y="681" type="curve" smooth="yes"/>
      <point x="290" y="681"/>
      <point x="244" y="623"/>
    </contour>
  </outline>
</glyph>
<glyph name="uni0237" format="1">
  <advance width="264"/>
  <unicode hex="0237"/>
  <outline>
    <contour>
      <point x="99" y="464" type="line"/>
      <point x="99" y="7" type="line" smooth="yes"/>
      <point x="99" y="-69"/>
      <point x="96" y="-87"/>
      <point x="30" y="-105" type="curve" smooth="yes"/>
      <point x="0" y="-113" type="line"/>
      <point x="20" y="-185" type="line"/>
      <point x="49" y="-178" type="line"/>
      <point x="148" y="-156"/>
      <point x="193" y="-124"/>
      <point x="193" y="-7" type="curve" smooth="yes"/>
      <point x="193" y="464" type="line"/>
    </contour>
    <contour>
      <point x="149" y="464" type="move" name="top"/>
    </contour>
  </outline>
</glyph>
<glyph name="uni0259" format="1">
  <advance width="492"/>
  <unicode hex="0259"/>
  <outline>
    <contour>
      <point x="360" y="197" type="line"/>
      <point x="353" y="108"/>
      <point x="305" y="57"/>
      <point x="236" y="57" type="curve" smooth="yes"/>
      <point x="167" y="57"/>
      <point x="134" y="106"/>
      <point x="133" y="197" type="curve"/>
    </contour>
    <contour>
      <point x="57" y="254" type="line"/>
      <point x="57" y="254"/>
      <point x="54" y="223"/>
      <point x="54" y="205" type="curve" smooth="yes"/>
      <point x="54" y="75"/>
      <point x="118" y="-9"/>
      <point x="239" y="-9" type="curve" smooth="yes"/>
      <point x="361" y="-9"/>
      <point x="457" y="82"/>
      <point x="457" y="235" type="curve" smooth="yes"/>
      <point x="457" y="384"/>
      <point x="360" y="475"/>
      <point x="229" y="475" type="curve" smooth="yes"/>
      <point x="160" y="475"/>
      <point x="103" y="454"/>
      <point x="65" y="426" type="curve"/>
      <point x="86" y="369" type="line"/>
      <point x="91" y="369" type="line"/>
      <point x="129" y="391"/>
      <point x="165" y="408"/>
      <point x="217" y="408" type="curve" smooth="yes"/>
      <point x="296" y="408"/>
      <point x="355" y="361"/>
      <point x="362" y="254" type="curve"/>
    </contour>
  </outline>
</glyph>
<glyph name="afii57929" format="1">
  <advance width="276"/>
  <unicode hex="02BC"/>
  <outline>
    <contour>
      <point x="44" y="490" type="curve"/>
      <point x="113" y="490" type="line"/>
      <point x="113" y="490"/>
      <point x="151" y="633"/>
      <point x="160" y="680" type="curve"/>
      <point x="70" y="680" type="line"/>
      <point x="67" y="656"/>
      <point x="44" y="490"/>
    </contour>
  </outline>
</glyph>
<glyph name="circumflex" format="1">
  <advance width="384"/>
  <unicode hex="02C6"/>
  <outline>
    <contour>
      <point x="54" y="541" type="line"/>
      <point x="131" y="541" type="line"/>
      <point x="185" y="638" type="line"/>
      <point x="241" y="541" type="line"/>
      <point x="318" y="541" type="line"/>
      <point x="232" y="695" type="line"/>
      <point x="140" y="695" type="line"/>
    </contour>
    <contour>
      <point x="187" y="464" type="move" name="_top"/>
    </contour>
  </outline>
</glyph>
<glyph name="caron" format="1">
  <advance width="390"/>
  <unicode hex="02C7"/>
  <outline>
    <contour>
      <point x="141" y="534" type="line"/>
      <point x="233" y="534" type="line"/>
      <point x="318" y="687" type="line"/>
      <point x="241" y="687" type="line"/>
      <point x="186" y="592" type="line"/>
      <point x="132" y="687" type="line"/>
      <point x="54" y="687" type="line"/>
    </contour>
    <contour>
      <point x="193" y="464" type="move" name="_top"/>
    </contour>
  </outline>
</glyph>
<glyph name="uni02C9" format="1">
  <advance width="256"/>
  <unicode hex="02C9"/>
  <outline>
    <contour>
      <point x="-9" y="568" type="line"/>
      <point x="263" y="568" type="line"/>
      <point x="263" y="628" type="line"/>
      <point x="-9" y="628" type="line"/>
    </contour>
    <contour>
      <point x="130" y="459" type="move" name="_top"/>
    </contour>
  </outline>
</glyph>
<glyph name="breve" format="1">
  <advance width="379"/>
  <unicode hex="02D8"/>
  <outline>
    <contour>
      <point x="184" y="556" type="curve" smooth="yes"/>
      <point x="247" y="556"/>
      <point x="294" y="592"/>
      <point x="294" y="663" type="curve"/>
      <point x="238" y="663" type="line"/>
      <point x="238" y="627"/>
      <point x="211" y="610"/>
      <point x="184" y="610" type="curve" smooth="yes"/>
      <point x="157" y="610"/>
      <point x="131" y="627"/>
      <point x="131" y="663" type="curve"/>
      <point x="74" y="663" type="line"/>
      <point x="74" y="592"/>
      <point x="121" y="556"/>
    </contour>
    <contour>
      <point x="185" y="459" type="move" name="_top"/>
    </contour>
  </outline>
</glyph>
<glyph name="dotaccent" format="1">
  <advance width="210"/>
  <unicode hex="02D9"/>
  <outline>
    <contour>
      <point x="168" y="616" type="curve" smooth="yes"/>
      <point x="168" y="652"/>
      <point x="145" y="675"/>
      <point x="105" y="675" type="curve" smooth="yes"/>
      <point x="65" y="675"/>
      <point x="42" y="652"/>
      <point x="42" y="616" type="curve" smooth="yes"/>
      <point x="42" y="579"/>
      <point x="65" y="556"/>
      <point x="105" y="556" type="curve" smooth="yes"/>
      <point x="145" y="556"/>
      <point x="168" y="579"/>
    </contour>
    <contour>
      <point x="105" y="464" type="move" name="_top"/>
    </contour>
  </outline>
</glyph>
<glyph name="ring" format="1">
  <advance width="313"/>
  <unicode hex="02DA"/>
  <outline>
    <contour>
      <point x="151" y="513" type="curve" smooth="yes"/>
      <point x="202" y="513"/>
      <point x="238" y="551"/>
      <point x="238" y="597" type="curve" smooth="yes"/>
      <point x="238" y="642"/>
      <point x="203" y="679"/>
      <point x="151" y="679" type="curve" smooth="yes"/>
      <point x="100" y="679"/>
      <point x="66" y="643"/>
      <point x="66" y="597" type="curve" smooth="yes"/>
      <point x="66" y="551"/>
      <point x="100" y="513"/>
    </contour>
    <contour>
      <point x="151" y="552" type="curve" smooth="yes"/>
      <point x="126" y="552"/>
      <point x="111" y="572"/>
      <point x="111" y="596" type="curve" smooth="yes"/>
      <point x="111" y="619"/>
      <point x="126" y="641"/>
      <point x="151" y="641" type="curve" smooth="yes"/>
      <point x="176" y="641"/>
      <point x="193" y="619"/>
      <point x="193" y="596" type="curve" smooth="yes"/>
      <point x="193" y="572"/>
      <point x="176" y="552"/>
    </contour>
    <contour>
      <point x="151" y="459" type="move" name="_top"/>
    </contour>
  </outline>
</glyph>
<glyph name="ogonek" format="1">
  <advance width="328"/>
  <unicode hex="02DB"/>
  <outline>
    <contour>
      <point x="191" y="-184" type="curve" smooth="yes"/>
      <point x="214" y="-184"/>
      <point x="240" y="-178"/>
      <point x="258" y="-170" type="curve"/>
      <point x="257" y="-119" type="line"/>
      <point x="250" y="-123"/>
      <point x="226" y="-130"/>
      <point x="207" y="-130" type="curve" smooth="yes"/>
      <point x="189" y="-130"/>
      <point x="173" y="-118"/>
      <point x="173" y="-96" type="curve" smooth="yes"/>
      <point x="173" y="-64"/>
      <point x="204" y="-19"/>
      <point x="232" y="2" type="curve"/>
      <point x="193" y="2" type="line"/>
      <point x="152" y="-16"/>
      <point x="107" y="-62"/>
      <point x="107" y="-114" type="curve" smooth="yes"/>
      <point x="107" y="-158"/>
      <point x="139" y="-184"/>
    </contour>
  </outline>
</glyph>
<glyph name="tilde" format="1">
  <advance width="422"/>
  <unicode hex="02DC"/>
  <outline>
    <contour>
      <point x="72" y="552" type="curve"/>
      <point x="116" y="552" type="line"/>
      <point x="120" y="583"/>
      <point x="131" y="595"/>
      <point x="147" y="595" type="curve" smooth="yes"/>
      <point x="178" y="595"/>
      <point x="225" y="552"/>
      <point x="272" y="552" type="curve" smooth="yes"/>
      <point x="317" y="552"/>
      <point x="341" y="592"/>
      <point x="341" y="648" type="curve"/>
      <point x="296" y="648" type="line"/>
      <point x="292" y="621"/>
      <point x="283" y="612"/>
      <point x="270" y="612" type="curve" smooth="yes"/>
      <point x="244" y="612"/>
      <point x="201" y="649"/>
      <point x="147" y="649" type="curve" smooth="yes"/>
      <point x="97" y="649"/>
      <point x="72" y="610"/>
    </contour>
    <contour>
      <point x="212" y="459" type="move" name="_top"/>
    </contour>
  </outline>
</glyph>
<glyph name="hungarumlaut" format="1">
  <advance width="363"/>
  <unicode hex="02DD"/>
  <outline>
    <contour>
      <point x="193" y="536" type="line"/>
      <point x="243" y="536" type="line"/>
      <point x="345" y="692" type="line"/>
      <point x="256" y="692" type="line"/>
    </contour>
    <contour>
      <point x="64" y="536" type="line"/>
      <point x="117" y="536" type="line"/>
      <point x="203" y="692" type="line"/>
      <point x="123" y="692" type="line"/>
    </contour>
    <contour>
      <point x="154" y="459" type="move" name="_top"/>
    </contour>
  </outline>
</glyph>
<glyph name="uni0307" format="1">
  <advance width="203"/>
  <unicode hex="0307"/>
  <outline>
    <contour>
      <point x="164" y="623" type="curve" smooth="yes"/>
      <point x="164" y="658"/>
      <point x="143" y="679"/>
      <point x="105" y="679" type="curve" smooth="yes"/>
      <point x="67" y="679"/>
      <point x="44" y="658"/>
      <point x="44" y="623" type="curve" smooth="yes"/>
      <point x="44" y="587"/>
      <point x="67" y="566"/>
      <point x="105" y="566" type="curve" smooth="yes"/>
      <point x="143" y="566"/>
      <point x="164" y="587"/>
    </contour>
  </outline>
</glyph>
<glyph name="uni030F" format="1">
  <advance width="400"/>
  <unicode hex="030F"/>
  <outline>
    <contour>
      <point x="251" y="536" type="line"/>
      <point x="304" y="536" type="line"/>
      <point x="245" y="692" type="line"/>
      <point x="165" y="692" type="line"/>
    </contour>
    <contour>
      <point x="126" y="536" type="line"/>
      <point x="177" y="536" type="line"/>
      <point x="113" y="692" type="line"/>
      <point x="24" y="692" type="line"/>
    </contour>
    <contour>
      <point x="216" y="459" type="move" name="_top"/>
    </contour>
  </outline>
</glyph>
<glyph name="uni0311" format="1">
  <advance width="348"/>
  <unicode hex="0311"/>
  <outline>
    <contour>
      <point x="69" y="556" type="curve"/>
      <point x="125" y="556" type="line"/>
      <point x="125" y="592"/>
      <point x="151" y="608"/>
      <point x="178" y="608" type="curve" smooth="yes"/>
      <point x="205" y="608"/>
      <point x="233" y="592"/>
      <point x="233" y="556" type="curve"/>
      <point x="288" y="556" type="line"/>
      <point x="288" y="627"/>
      <point x="241" y="663"/>
      <point x="178" y="663" type="curve" smooth="yes"/>
      <point x="115" y="663"/>
      <point x="69" y="627"/>
    </contour>
    <contour>
      <point x="180" y="459" type="move" name="_top"/>
    </contour>
  </outline>
</glyph>
<glyph name="uni0312" format="1">
  <advance width="256"/>
  <unicode hex="0312"/>
  <outline>
    <contour>
      <point x="80" y="559" type="curve"/>
      <point x="78" y="549" type="line"/>
      <point x="171" y="549" type="line"/>
      <point x="171" y="573"/>
      <point x="188" y="766"/>
      <point x="188" y="766" type="curve"/>
      <point x="128" y="766" type="line"/>
      <point x="128" y="766"/>
      <point x="80" y="575"/>
    </contour>
    <contour>
      <point x="127" y="459" type="move" name="_top"/>
    </contour>
  </outline>
</glyph>
<glyph name="uni0326" format="1">
  <advance width="262"/>
  <unicode hex="0326"/>
  <outline>
    <contour>
      <point x="77" y="-227" type="curve"/>
      <point x="138" y="-227" type="line"/>
      <point x="138" y="-227"/>
      <point x="185" y="-69"/>
      <point x="184" y="-54" type="curve"/>
      <point x="100" y="-54" type="line"/>
      <point x="100" y="-78"/>
      <point x="77" y="-227"/>
    </contour>
    <contour>
      <point x="142" y="0" type="move" name="_bot"/>
    </contour>
  </outline>
</glyph>
<glyph name="uni0358" format="1">
  <advance width="203"/>
  <unicode hex="0358"/>
  <outline>
    <contour>
      <point x="164" y="623" type="curve" smooth="yes"/>
      <point x="164" y="658"/>
      <point x="143" y="679"/>
      <point x="105" y="679" type="curve" smooth="yes"/>
      <point x="67" y="679"/>
      <point x="44" y="658"/>
      <point x="44" y="623" type="curve" smooth="yes"/>
      <point x="44" y="587"/>
      <point x="67" y="566"/>
      <point x="105" y="566" type="curve" smooth="yes"/>
      <point x="143" y="566"/>
      <point x="164" y="587"/>
    </contour>
  </outline>
</glyph>
<glyph name="uni0394" format="1">
  <advance width="572"/>
  <unicode hex="0394"/>
  <outline>
    <contour>
      <point x="119" y="70" type="line"/>
      <point x="282" y="554" type="line"/>
      <point x="449" y="70" type="line"/>
    </contour>
    <contour>
      <point x="17" y="0" type="line"/>
      <point x="551" y="0" type="line"/>
      <point x="323" y="642" type="line"/>
      <point x="243" y="642" type="line"/>
    </contour>
  </outline>
</glyph>
<glyph name="Sigma" format="1">
  <advance width="467"/>
  <unicode hex="03A3"/>
  <outline>
    <contour>
      <point x="36" y="625" type="line"/>
      <point x="36" y="569" type="line"/>
      <point x="244" y="263" type="line"/>
      <point x="28" y="-38" type="line"/>
      <point x="28" y="-91" type="line"/>
      <point x="454" y="-91" type="line"/>
      <point x="454" y="-13" type="line"/>
      <point x="143" y="-13" type="line"/>
      <point x="348" y="263" type="line"/>
      <point x="156" y="549" type="line"/>
      <point x="435" y="549" type="line"/>
      <point x="435" y="625" type="line"/>
    </contour>
  </outline>
</glyph>
<glyph name="uni03A9" format="1">
  <advance width="687"/>
  <unicode hex="03A9"/>
  <outline>
    <contour>
      <point x="53" y="0" type="line"/>
      <point x="47" y="50" type="line"/>
      <point x="201" y="50" type="line"/>
      <point x="115" y="110"/>
      <point x="53" y="207"/>
      <point x="53" y="331" type="curve" smooth="yes"/>
      <point x="53" y="507"/>
      <point x="179" y="621"/>
      <point x="350" y="621" type="curve" smooth="yes"/>
      <point x="527" y="621"/>
      <point x="638" y="496"/>
      <point x="638" y="331" type="curve" smooth="yes"/>
      <point x="638" y="204"/>
      <point x="563" y="108"/>
      <point x="487" y="50" type="curve"/>
      <point x="640" y="50" type="line"/>
      <point x="635" y="0" type="line"/>
      <point x="418" y="0" type="line"/>
      <point x="417" y="47" type="line"/>
      <point x="506" y="106"/>
      <point x="570" y="203"/>
      <point x="570" y="323" type="curve" smooth="yes"/>
      <point x="570" y="454"/>
      <point x="496" y="566"/>
      <point x="348" y="566" type="curve" smooth="yes"/>
      <point x="214" y="566"/>
      <point x="120" y="469"/>
      <point x="120" y="324" type="curve" smooth="yes"/>
      <point x="120" y="205"/>
      <point x="181" y="106"/>
      <point x="272" y="47" type="curve"/>
      <point x="272" y="0" type="line"/>
    </contour>
  </outline>
</glyph>
<glyph name="uni03BC" format="1">
  <advance width="516"/>
  <unicode hex="03BC"/>
  <outline>
    <contour>
      <point x="362" y="114" type="line"/>
      <point x="344" y="92"/>
      <point x="312" y="56"/>
      <point x="246" y="56" type="curve" smooth="yes"/>
      <point x="180" y="56"/>
      <point x="155" y="99"/>
      <point x="155" y="179" type="curve" smooth="yes"/>
      <point x="155" y="464" type="line"/>
      <point x="62" y="464" type="line"/>
      <point x="62" y="-127" type="line"/>
      <point x="155" y="-127" type="line"/>
      <point x="155" y="4" type="line"/>
      <point x="176" y="-4"/>
      <point x="200" y="-9"/>
      <point x="227" y="-9" type="curve" smooth="yes"/>
      <point x="296" y="-9"/>
      <point x="340" y="20"/>
      <point x="370" y="60" type="curve"/>
      <point x="374" y="0" type="line"/>
      <point x="455" y="0" type="line"/>
      <point x="455" y="464" type="line"/>
      <point x="362" y="464" type="line"/>
    </contour>
  </outline>
</glyph>
<glyph name="pi" format="1">
  <advance width="623"/>
  <unicode hex="03C0"/>
  <outline>
    <contour>
      <point x="491" y="-5" type="curve" smooth="yes"/>
      <point x="525" y="-5"/>
      <point x="553" y="4"/>
      <point x="568" y="19" type="curve"/>
      <point x="568" y="75" type="line"/>
      <point x="556" y="71"/>
      <point x="535" y="62"/>
      <point x="517" y="62" type="curve" smooth="yes"/>
      <point x="486" y="62"/>
      <point x="466" y="93"/>
      <point x="466" y="163" type="curve" smooth="yes"/>
      <point x="466" y="211"/>
      <point x="469" y="300"/>
      <point x="479" y="383" type="curve"/>
      <point x="583" y="383" type="line"/>
      <point x="583" y="464" type="line"/>
      <point x="194" y="464" type="line" smooth="yes"/>
      <point x="90" y="464"/>
      <point x="59" y="420"/>
      <point x="59" y="326" type="curve"/>
      <point x="101" y="326" type="line"/>
      <point x="106" y="359"/>
      <point x="123" y="383"/>
      <point x="158" y="383" type="curve" smooth="yes"/>
      <point x="207" y="383" type="line"/>
      <point x="178" y="170" type="line" smooth="yes"/>
      <point x="166" y="76"/>
      <point x="111" y="49"/>
      <point x="64" y="49" type="curve"/>
      <point x="64" y="2" type="line"/>
      <point x="214" y="2"/>
      <point x="247" y="47"/>
      <point x="251" y="142" type="curve" smooth="yes"/>
      <point x="261" y="383" type="line"/>
      <point x="419" y="383" type="line"/>
      <point x="404" y="288"/>
      <point x="388" y="178"/>
      <point x="388" y="112" type="curve" smooth="yes"/>
      <point x="388" y="34"/>
      <point x="419" y="-5"/>
    </contour>
  </outline>
</glyph>
<glyph name="endash" format="1">
  <advance width="552"/>
  <unicode hex="2013"/>
  <outline>
    <contour>
      <point x="37" y="217" type="line"/>
      <point x="517" y="217" type="line"/>
      <point x="517" y="281" type="line"/>
      <point x="37" y="281" type="line"/>
    </contour>
  </outline>
</glyph>
<glyph name="emdash" format="1">
  <advance width="922"/>
  <unicode hex="2014"/>
  <outline>
    <contour>
      <point x="25" y="215" type="line"/>
      <point x="897" y="215" type="line"/>
      <point x="897" y="283" type="line"/>
      <point x="25" y="283" type="line"/>
    </contour>
  </outline>
</glyph>
<glyph name="quoteleft" format="1">
  <advance width="225"/>
  <unicode hex="2018"/>
  <outline>
    <contour>
      <point x="175" y="650" type="line"/>
      <point x="113" y="650" type="line"/>
      <point x="64" y="439" type="line"/>
      <point x="156" y="439" type="line"/>
    </contour>
  </outline>
</glyph>
<glyph name="quoteright" format="1">
  <advance width="225"/>
  <unicode hex="2019"/>
  <outline>
    <contour>
      <point x="64" y="439" type="line"/>
      <point x="127" y="439" type="line"/>
      <point x="175" y="650" type="line"/>
      <point x="84" y="650" type="line"/>
    </contour>
  </outline>
</glyph>
<glyph name="quotesinglbase" format="1">
  <advance width="202"/>
  <unicode hex="201A"/>
  <outline>
    <contour>
      <point x="43" y="-141" type="line"/>
      <point x="103" y="-141" type="line"/>
      <point x="152" y="68" type="line"/>
      <point x="65" y="68" type="line"/>
    </contour>
  </outline>
</glyph>
<glyph name="quotedblleft" format="1">
  <advance width="394"/>
  <unicode hex="201C"/>
  <outline>
    <contour>
      <point x="222" y="439" type="line"/>
      <point x="314" y="439" type="line"/>
      <point x="333" y="650" type="line"/>
      <point x="271" y="650" type="line"/>
    </contour>
    <contour>
      <point x="64" y="439" type="line"/>
      <point x="156" y="439" type="line"/>
      <point x="175" y="650" type="line"/>
      <point x="113" y="650" type="line"/>
    </contour>
  </outline>
</glyph>
<glyph name="quotedblright" format="1">
  <advance width="394"/>
  <unicode hex="201D"/>
  <outline>
    <contour>
      <point x="64" y="439" type="line"/>
      <point x="127" y="439" type="line"/>
      <point x="175" y="650" type="line"/>
      <point x="84" y="650" type="line"/>
    </contour>
    <contour>
      <point x="222" y="439" type="line"/>
      <point x="285" y="439" type="line"/>
      <point x="333" y="650" type="line"/>
      <point x="241" y="650" type="line"/>
    </contour>
  </outline>
</glyph>
<glyph name="quotedblbase" format="1">
  <advance width="344"/>
  <unicode hex="201E"/>
  <outline>
    <contour>
      <point x="188" y="-141" type="line"/>
      <point x="246" y="-141" type="line"/>
      <point x="295" y="68" type="line"/>
      <point x="208" y="68" type="line"/>
    </contour>
    <contour>
      <point x="47" y="-141" type="line"/>
      <point x="105" y="-141" type="line"/>
      <point x="152" y="68" type="line"/>
      <point x="67" y="68" type="line"/>
    </contour>
  </outline>
</glyph>
<glyph name="dagger" format="1">
  <advance width="463"/>
  <unicode hex="2020"/>
  <outline>
    <contour>
      <point x="194" y="637" type="line"/>
      <point x="194" y="474" type="line"/>
      <point x="69" y="474" type="line"/>
      <point x="69" y="418" type="line"/>
      <point x="194" y="418" type="line"/>
      <point x="194" y="24" type="line"/>
      <point x="265" y="24" type="line"/>
      <point x="265" y="418" type="line"/>
      <point x="395" y="418" type="line"/>
      <point x="395" y="474" type="line"/>
      <point x="266" y="474" type="line"/>
      <point x="266" y="637" type="line"/>
    </contour>
  </outline>
</glyph>
<glyph name="daggerdbl" format="1">
  <advance width="450"/>
  <unicode hex="2021"/>
  <outline>
    <contour>
      <point x="193" y="631" type="line"/>
      <point x="193" y="467" type="line"/>
      <point x="71" y="467" type="line"/>
      <point x="71" y="411" type="line"/>
      <point x="193" y="411" type="line"/>
      <point x="193" y="237" type="line"/>
      <point x="71" y="237" type="line"/>
      <point x="71" y="184" type="line"/>
      <point x="193" y="184" type="line"/>
      <point x="193" y="6" type="line"/>
      <point x="265" y="6" type="line"/>
      <point x="265" y="184" type="line"/>
      <point x="388" y="184" type="line"/>
      <point x="388" y="237" type="line"/>
      <point x="266" y="237" type="line"/>
      <point x="266" y="411" type="line"/>
      <point x="389" y="411" type="line"/>
      <point x="389" y="467" type="line"/>
      <point x="265" y="467" type="line"/>
      <point x="265" y="631" type="line"/>
    </contour>
  </outline>
</glyph>
<glyph name="bullet" format="1">
  <advance width="395"/>
  <unicode hex="2022"/>
  <outline>
    <contour>
      <point x="193" y="170" type="curve" smooth="yes"/>
      <point x="269" y="170"/>
      <point x="334" y="226"/>
      <point x="334" y="315" type="curve" smooth="yes"/>
      <point x="334" y="404"/>
      <point x="271" y="458"/>
      <point x="196" y="458" type="curve" smooth="yes"/>
      <point x="121" y="458"/>
      <point x="54" y="401"/>
      <point x="54" y="312" type="curve" smooth="yes"/>
      <point x="54" y="223"/>
      <point x="118" y="170"/>
    </contour>
  </outline>
</glyph>
<glyph name="perthousand" format="1">
  <advance width="1079"/>
  <unicode hex="2030"/>
  <outline>
    <component base="percent" xOffset="9"/>
    <contour>
      <point x="877" y="-4" type="curve" smooth="yes"/>
      <point x="976" y="-4"/>
      <point x="1021" y="68"/>
      <point x="1021" y="163" type="curve" smooth="yes"/>
      <point x="1021" y="259"/>
      <point x="977" y="331"/>
      <point x="877" y="331" type="curve" smooth="yes"/>
      <point x="779" y="331"/>
      <point x="735" y="257"/>
      <point x="735" y="163" type="curve" smooth="yes"/>
      <point x="735" y="68"/>
      <point x="777" y="-4"/>
    </contour>
    <contour>
      <point x="878" y="47" type="curve" smooth="yes"/>
      <point x="816" y="47"/>
      <point x="797" y="97"/>
      <point x="797" y="164" type="curve" smooth="yes"/>
      <point x="797" y="229"/>
      <point x="816" y="279"/>
      <point x="878" y="279" type="curve" smooth="yes"/>
      <point x="940" y="279"/>
      <point x="957" y="232"/>
      <point x="957" y="164" type="curve" smooth="yes"/>
      <point x="957" y="99"/>
      <point x="940" y="47"/>
    </contour>
  </outline>
</glyph>
<glyph name="guilsinglleft" format="1">
  <advance width="294"/>
  <unicode hex="2039"/>
  <outline>
    <contour>
      <point x="171" y="66" type="line"/>
      <point x="244" y="66" type="line"/>
      <point x="128" y="242" type="line"/>
      <point x="248" y="419" type="line"/>
      <point x="174" y="419" type="line"/>
      <point x="52" y="241" type="line"/>
    </contour>
  </outline>
</glyph>
<glyph name="guilsinglright" format="1">
  <advance width="328"/>
  <unicode hex="203A"/>
  <outline>
    <contour>
      <point x="64" y="66" type="line"/>
      <point x="137" y="66" type="line"/>
      <point x="262" y="246" type="line"/>
      <point x="138" y="429" type="line"/>
      <point x="64" y="429" type="line"/>
      <point x="183" y="246" type="line"/>
    </contour>
  </outline>
</glyph>
<glyph name="fraction" format="1">
  <advance width="458"/>
  <unicode hex="2044"/>
  <outline>
    <contour>
      <point x="47" y="0" type="line"/>
      <point x="118" y="0" type="line"/>
      <point x="430" y="639" type="line"/>
      <point x="360" y="639" type="line"/>
    </contour>
  </outline>
</glyph>
<glyph name="uni2074" format="1">
  <advance width="299"/>
  <unicode hex="2074"/>
  <outline>
    <contour>
      <point x="76" y="396" type="line"/>
      <point x="171" y="561" type="line"/>
      <point x="171" y="396" type="line"/>
    </contour>
    <contour>
      <point x="170" y="264" type="line"/>
      <point x="228" y="264" type="line"/>
      <point x="228" y="350" type="line"/>
      <point x="275" y="350" type="line"/>
      <point x="279" y="396" type="line"/>
      <point x="229" y="396" type="line"/>
      <point x="229" y="636" type="line"/>
      <point x="166" y="636" type="line"/>
      <point x="15" y="400" type="line"/>
      <point x="15" y="350" type="line"/>
      <point x="170" y="350" type="line"/>
    </contour>
  </outline>
</glyph>
<glyph name="Euro" format="1">
  <advance width="596"/>
  <unicode hex="20AC"/>
  <outline>
    <component base="C" xOffset="-29"/>
    <contour>
      <point x="-25" y="227" type="line"/>
      <point x="346" y="227" type="line"/>
      <point x="348" y="279" type="line"/>
      <point x="97" y="279" type="line"/>
      <point x="97" y="349" type="line"/>
      <point x="348" y="349" type="line"/>
      <point x="351" y="402" type="line"/>
      <point x="-22" y="402" type="line"/>
      <point x="-24" y="349" type="line"/>
      <point x="49" y="349" type="line"/>
      <point x="49" y="279" type="line"/>
      <point x="-24" y="279" type="line"/>
    </contour>
  </outline>
</glyph>
<glyph name="afii61289" format="1">
  <advance width="534"/>
  <unicode hex="2113"/>
  <outline>
    <contour>
      <point x="129" y="117" type="curve" smooth="yes"/>
      <point x="129" y="29"/>
      <point x="175" y="-9"/>
      <point x="244" y="-9" type="curve" smooth="yes"/>
      <point x="346" y="-9"/>
      <point x="413" y="42"/>
      <point x="413" y="42" type="curve"/>
      <point x="403" y="102" type="line"/>
      <point x="360" y="80"/>
      <point x="321" y="66"/>
      <point x="287" y="66" type="curve" smooth="yes"/>
      <point x="250" y="66"/>
      <point x="232" y="83"/>
      <point x="232" y="122" type="curve" smooth="yes"/>
      <point x="232" y="138"/>
      <point x="235" y="157"/>
      <point x="240" y="179" type="curve" smooth="yes"/>
      <point x="263" y="272" type="line"/>
      <point x="400" y="381" type="line" smooth="yes"/>
      <point x="488" y="450"/>
      <point x="531" y="536"/>
      <point x="531" y="605" type="curve" smooth="yes"/>
      <point x="531" y="674"/>
      <point x="487" y="726"/>
      <point x="400" y="726" type="curve" smooth="yes"/>
      <point x="338" y="726"/>
      <point x="275" y="696"/>
      <point x="249" y="599" type="curve" smooth="yes"/>
      <point x="162" y="277" type="line"/>
      <point x="33" y="181" type="line"/>
      <point x="54" y="143" type="line"/>
      <point x="142" y="207" type="line"/>
      <point x="133" y="172"/>
      <point x="129" y="142"/>
    </contour>
    <contour>
      <point x="283" y="355" type="line"/>
      <point x="333" y="563" type="line" smooth="yes"/>
      <point x="347" y="623"/>
      <point x="370" y="650"/>
      <point x="410" y="650" type="curve" smooth="yes"/>
      <point x="447" y="650"/>
      <point x="466" y="627"/>
      <point x="466" y="592" type="curve" smooth="yes"/>
      <point x="466" y="547"/>
      <point x="435" y="482"/>
      <point x="367" y="426" type="curve"/>
    </contour>
  </outline>
</glyph>
<glyph name="trademark" format="1">
  <advance width="931"/>
  <unicode hex="2122"/>
  <outline>
    <contour>
      <point x="163" y="224" type="line"/>
      <point x="232" y="224" type="line"/>
      <point x="232" y="570" type="line"/>
      <point x="360" y="570" type="line"/>
      <point x="360" y="625" type="line"/>
      <point x="35" y="625" type="line"/>
      <point x="35" y="570" type="line"/>
      <point x="163" y="570" type="line"/>
    </contour>
    <contour>
      <point x="412" y="224" type="line"/>
      <point x="474" y="224" type="line"/>
      <point x="477" y="528" type="line"/>
      <point x="602" y="269" type="line"/>
      <point x="646" y="269" type="line"/>
      <point x="771" y="526" type="line"/>
      <point x="775" y="224" type="line"/>
      <point x="837" y="224" type="line"/>
      <point x="829" y="625" type="line"/>
      <point x="759" y="625" type="line"/>
      <point x="625" y="348" type="line"/>
      <point x="490" y="625" type="line"/>
      <point x="420" y="625" type="line"/>
    </contour>
  </outline>
</glyph>
<glyph name="estimated" format="1">
  <advance width="517"/>
  <unicode hex="212E"/>
  <outline>
    <contour>
      <point x="423" y="257" type="curve"/>
      <point x="140" y="257" type="line"/>
      <point x="146" y="369"/>
      <point x="206" y="444"/>
      <point x="279" y="444" type="curve" smooth="yes"/>
      <point x="369" y="444"/>
      <point x="423" y="357"/>
    </contour>
    <contour>
      <point x="40" y="230" type="curve" smooth="yes"/>
      <point x="40" y="94"/>
      <point x="121" y="-9"/>
      <point x="284" y="-9" type="curve" smooth="yes"/>
      <point x="373" y="-9"/>
      <point x="431" y="29"/>
      <point x="473" y="80" type="curve"/>
      <point x="451" y="102" type="line"/>
      <point x="409" y="57"/>
      <point x="360" y="23"/>
      <point x="284" y="23" type="curve" smooth="yes"/>
      <point x="186" y="23"/>
      <point x="139" y="104"/>
      <point x="139" y="222" type="curve"/>
      <point x="476" y="222" type="line"/>
      <point x="476" y="371"/>
      <point x="412" y="469"/>
      <point x="276" y="469" type="curve" smooth="yes"/>
      <point x="139" y="469"/>
      <point x="40" y="366"/>
    </contour>
  </outline>
</glyph>
<glyph name="partialdiff" format="1">
  <advance width="524"/>
  <unicode hex="2202"/>
  <outline>
    <contour>
      <point x="215" y="42" type="curve" smooth="yes"/>
      <point x="183" y="42"/>
      <point x="168" y="73"/>
      <point x="168" y="114" type="curve" smooth="yes"/>
      <point x="168" y="204"/>
      <point x="240" y="346"/>
      <point x="375" y="355" type="curve"/>
      <point x="366" y="232"/>
      <point x="319" y="42"/>
    </contour>
    <contour>
      <point x="209" y="-9" type="curve" smooth="yes"/>
      <point x="360" y="-9"/>
      <point x="461" y="165"/>
      <point x="461" y="392" type="curve" smooth="yes"/>
      <point x="461" y="565"/>
      <point x="361" y="670"/>
      <point x="236" y="670" type="curve" smooth="yes"/>
      <point x="195" y="670"/>
      <point x="149" y="658"/>
      <point x="105" y="633" type="curve"/>
      <point x="124" y="586" type="line"/>
      <point x="157" y="602"/>
      <point x="187" y="610"/>
      <point x="217" y="610" type="curve" smooth="yes"/>
      <point x="308" y="610"/>
      <point x="379" y="537"/>
      <point x="379" y="416" type="curve" smooth="yes"/>
      <point x="379" y="411"/>
      <point x="378" y="405"/>
      <point x="378" y="400" type="curve"/>
      <point x="182" y="397"/>
      <point x="73" y="245"/>
      <point x="73" y="127" type="curve" smooth="yes"/>
      <point x="73" y="53"/>
      <point x="117" y="-9"/>
    </contour>
  </outline>
</glyph>
<glyph name="emptyset" format="1">
  <advance width="719"/>
  <unicode hex="2205"/>
  <outline>
    <contour>
      <point x="40" y="315" type="curve" smooth="yes"/>
      <point x="40" y="499"/>
      <point x="192" y="641"/>
      <point x="357" y="641" type="curve" smooth="yes"/>
      <point x="431" y="641"/>
      <point x="503" y="612"/>
      <point x="559" y="564" type="curve"/>
      <point x="635" y="649" type="line"/>
      <point x="664" y="626" type="line"/>
      <point x="585" y="539" type="line"/>
      <point x="639" y="481"/>
      <point x="675" y="403"/>
      <point x="675" y="315" type="curve" smooth="yes"/>
      <point x="675" y="131"/>
      <point x="522" y="-11"/>
      <point x="357" y="-11" type="curve" smooth="yes"/>
      <point x="285" y="-11"/>
      <point x="214" y="16"/>
      <point x="159" y="62" type="curve"/>
      <point x="76" y="-31" type="line"/>
      <point x="50" y="-7" type="line"/>
      <point x="133" y="86" type="line"/>
      <point x="76" y="145"/>
      <point x="40" y="225"/>
    </contour>
    <contour>
      <point x="183" y="89" type="line"/>
      <point x="233" y="49"/>
      <point x="294" y="25"/>
      <point x="357" y="25" type="curve" smooth="yes"/>
      <point x="503" y="25"/>
      <point x="639" y="152"/>
      <point x="639" y="315" type="curve" smooth="yes"/>
      <point x="639" y="392"/>
      <point x="609" y="461"/>
      <point x="562" y="512" type="curve"/>
    </contour>
    <contour>
      <point x="156" y="113" type="curve"/>
      <point x="535" y="537" type="line"/>
      <point x="485" y="579"/>
      <point x="422" y="605"/>
      <point x="357" y="605" type="curve" smooth="yes"/>
      <point x="211" y="605"/>
      <point x="75" y="478"/>
      <point x="75" y="315" type="curve" smooth="yes"/>
      <point x="75" y="236"/>
      <point x="107" y="165"/>
    </contour>
  </outline>
</glyph>
<glyph name="Delta" format="1">
  <advance width="554"/>
  <unicode hex="2206"/>
  <outline>
    <contour>
      <point x="291" y="516" type="line"/>
      <point x="442" y="75" type="line"/>
      <point x="113" y="75" type="line"/>
      <point x="262" y="516" type="line"/>
      <point x="276" y="568" type="line"/>
    </contour>
    <contour>
      <point x="238" y="665" type="line"/>
      <point x="29" y="37" type="line"/>
      <point x="29" y="0" type="line"/>
      <point x="527" y="0" type="line"/>
      <point x="527" y="37" type="line"/>
      <point x="318" y="665" type="line"/>
    </contour>
  </outline>
</glyph>
<glyph name="product" format="1">
  <advance width="663"/>
  <unicode hex="220F"/>
  <outline>
    <contour>
      <point x="86" y="647" type="line"/>
      <point x="86" y="0" type="line"/>
      <point x="161" y="0" type="line"/>
      <point x="161" y="581" type="line"/>
      <point x="505" y="581" type="line"/>
      <point x="505" y="0" type="line"/>
      <point x="580" y="0" type="line"/>
      <point x="580" y="647" type="line"/>
    </contour>
  </outline>
</glyph>
<glyph name="minus" format="1">
  <advance width="505"/>
  <unicode hex="2212"/>
  <outline>
    <contour>
      <point x="44" y="286" type="line"/>
      <point x="44" y="219" type="line"/>
      <point x="465" y="219" type="line"/>
      <point x="465" y="286" type="line"/>
    </contour>
  </outline>
</glyph>
<glyph name="radical" format="1">
  <advance width="515"/>
  <unicode hex="221A"/>
  <outline>
    <contour>
      <point x="433" y="721" type="line"/>
      <point x="390" y="541"/>
      <point x="302" y="216"/>
      <point x="260" y="36" type="curve"/>
      <point x="223" y="158"/>
      <point x="178" y="272"/>
      <point x="138" y="391" type="curve"/>
      <point x="18" y="361" type="line"/>
      <point x="25" y="309" type="line"/>
      <point x="89" y="323" type="line"/>
      <point x="231" y="-70" type="line"/>
      <point x="308" y="-70" type="line"/>
      <point x="502" y="721" type="line"/>
    </contour>
  </outline>
</glyph>
<glyph name="infinity" format="1">
  <advance width="722"/>
  <unicode hex="221E"/>
  <outline>
    <contour>
      <point x="627" y="285" type="curve" smooth="yes"/>
      <point x="627" y="221"/>
      <point x="598" y="171"/>
      <point x="537" y="171" type="curve" smooth="yes"/>
      <point x="488" y="171"/>
      <point x="452" y="205"/>
      <point x="403" y="273" type="curve"/>
      <point x="440" y="327"/>
      <point x="481" y="374"/>
      <point x="535" y="374" type="curve" smooth="yes"/>
      <point x="589" y="374"/>
      <point x="627" y="333"/>
    </contour>
    <contour>
      <point x="322" y="272" type="curve"/>
      <point x="284" y="217"/>
      <point x="237" y="171"/>
      <point x="186" y="171" type="curve" smooth="yes"/>
      <point x="128" y="171"/>
      <point x="91" y="222"/>
      <point x="91" y="273" type="curve" smooth="yes"/>
      <point x="91" y="327"/>
      <point x="126" y="374"/>
      <point x="184" y="374" type="curve" smooth="yes"/>
      <point x="239" y="374"/>
      <point x="284" y="332"/>
    </contour>
    <contour>
      <point x="362" y="319" type="curve"/>
      <point x="310" y="390"/>
      <point x="256" y="438"/>
      <point x="184" y="438" type="curve" smooth="yes"/>
      <point x="100" y="438"/>
      <point x="34" y="368"/>
      <point x="34" y="282" type="curve" smooth="yes"/>
      <point x="34" y="188"/>
      <point x="89" y="107"/>
      <point x="185" y="107" type="curve" smooth="yes"/>
      <point x="255" y="107"/>
      <point x="311" y="155"/>
      <point x="362" y="224" type="curve"/>
      <point x="420" y="145"/>
      <point x="472" y="107"/>
      <point x="536" y="107" type="curve" smooth="yes"/>
      <point x="620" y="107"/>
      <point x="686" y="176"/>
      <point x="686" y="274" type="curve" smooth="yes"/>
      <point x="686" y="368"/>
      <point x="633" y="438"/>
      <point x="537" y="438" type="curve" smooth="yes"/>
      <point x="464" y="438"/>
      <point x="410" y="388"/>
    </contour>
  </outline>
</glyph>
<glyph name="integral" format="1">
  <advance width="396"/>
  <unicode hex="222B"/>
  <outline>
    <contour>
      <point x="193" y="499" type="curve" smooth="yes"/>
      <point x="193" y="-18" type="line" smooth="yes"/>
      <point x="193" y="-91"/>
      <point x="177" y="-127"/>
      <point x="127" y="-127" type="curve" smooth="yes"/>
      <point x="115" y="-127"/>
      <point x="101" y="-124"/>
      <point x="85" y="-120" type="curve"/>
      <point x="85" y="-180" type="line"/>
      <point x="106" y="-184"/>
      <point x="126" y="-187"/>
      <point x="142" y="-187" type="curve" smooth="yes"/>
      <point x="226" y="-187"/>
      <point x="264" y="-124"/>
      <point x="264" y="-14" type="curve" smooth="yes"/>
      <point x="264" y="503" type="line" smooth="yes"/>
      <point x="264" y="572"/>
      <point x="275" y="610"/>
      <point x="324" y="610" type="curve" smooth="yes"/>
      <point x="335" y="610"/>
      <point x="348" y="609"/>
      <point x="362" y="605" type="curve"/>
      <point x="362" y="657" type="line"/>
      <point x="340" y="662"/>
      <point x="321" y="665"/>
      <point x="304" y="665" type="curve" smooth="yes"/>
      <point x="225" y="665"/>
      <point x="193" y="607"/>
    </contour>
  </outline>
</glyph>
<glyph name="approxequal" format="1">
  <advance width="506"/>
  <unicode hex="2248"/>
  <outline>
    <contour>
      <point x="68" y="174" type="line"/>
      <point x="85" y="214"/>
      <point x="115" y="243"/>
      <point x="152" y="243" type="curve" smooth="yes"/>
      <point x="180" y="243"/>
      <point x="209" y="230"/>
      <point x="246" y="213" type="curve" smooth="yes"/>
      <point x="288" y="192"/>
      <point x="321" y="178"/>
      <point x="355" y="178" type="curve" smooth="yes"/>
      <point x="417" y="178"/>
      <point x="448" y="215"/>
      <point x="468" y="274" type="curve"/>
      <point x="437" y="310" type="line"/>
      <point x="419" y="269"/>
      <point x="387" y="243"/>
      <point x="354" y="243" type="curve" smooth="yes"/>
      <point x="329" y="243"/>
      <point x="297" y="258"/>
      <point x="259" y="276" type="curve" smooth="yes"/>
      <point x="215" y="297"/>
      <point x="189" y="309"/>
      <point x="153" y="309" type="curve" smooth="yes"/>
      <point x="92" y="309"/>
      <point x="54" y="268"/>
      <point x="36" y="213" type="curve"/>
    </contour>
    <contour>
      <point x="68" y="327" type="line"/>
      <point x="85" y="367"/>
      <point x="115" y="396"/>
      <point x="152" y="396" type="curve" smooth="yes"/>
      <point x="180" y="396"/>
      <point x="209" y="383"/>
      <point x="246" y="366" type="curve" smooth="yes"/>
      <point x="288" y="345"/>
      <point x="321" y="331"/>
      <point x="355" y="331" type="curve" smooth="yes"/>
      <point x="417" y="331"/>
      <point x="448" y="368"/>
      <point x="468" y="427" type="curve"/>
      <point x="437" y="463" type="line"/>
      <point x="419" y="422"/>
      <point x="387" y="396"/>
      <point x="354" y="396" type="curve" smooth="yes"/>
      <point x="329" y="396"/>
      <point x="297" y="411"/>
      <point x="259" y="429" type="curve" smooth="yes"/>
      <point x="215" y="450"/>
      <point x="189" y="461"/>
      <point x="153" y="461" type="curve" smooth="yes"/>
      <point x="92" y="461"/>
      <point x="54" y="421"/>
      <point x="36" y="366" type="curve"/>
    </contour>
  </outline>
</glyph>
<glyph name="notequal" format="1">
  <advance width="475"/>
  <unicode hex="2260"/>
  <outline>
    <contour>
      <point x="142" y="19" type="line"/>
      <point x="201" y="147" type="line"/>
      <point x="437" y="147" type="line"/>
      <point x="433" y="207" type="line"/>
      <point x="229" y="207" type="line"/>
      <point x="291" y="330" type="line"/>
      <point x="437" y="330" type="line"/>
      <point x="432" y="391" type="line"/>
      <point x="317" y="391" type="line"/>
      <point x="367" y="506" type="line"/>
      <point x="314" y="513" type="line"/>
      <point x="256" y="391" type="line"/>
      <point x="27" y="391" type="line"/>
      <point x="32" y="330" type="line"/>
      <point x="229" y="330" type="line"/>
      <point x="168" y="207" type="line"/>
      <point x="28" y="207" type="line"/>
      <point x="32" y="147" type="line"/>
      <point x="141" y="147" type="line"/>
      <point x="91" y="29" type="line"/>
    </contour>
  </outline>
</glyph>
<glyph name="lessequal" format="1">
  <advance width="511"/>
  <unicode hex="2264"/>
  <outline>
    <contour>
      <point x="54" y="2" type="line"/>
      <point x="455" y="2" type="line"/>
      <point x="455" y="62" type="line"/>
      <point x="54" y="62" type="line"/>
    </contour>
    <contour>
      <point x="445" y="112" type="line"/>
      <point x="445" y="181" type="line"/>
      <point x="149" y="331" type="line"/>
      <point x="444" y="491" type="line"/>
      <point x="444" y="561" type="line"/>
      <point x="62" y="352" type="line"/>
      <point x="62" y="311" type="line"/>
    </contour>
  </outline>
</glyph>
<glyph name="greaterequal" format="1">
  <advance width="511"/>
  <unicode hex="2265"/>
  <outline>
    <contour>
      <point x="56" y="3" type="line"/>
      <point x="457" y="3" type="line"/>
      <point x="457" y="63" type="line"/>
      <point x="56" y="62" type="line"/>
    </contour>
    <contour>
      <point x="66" y="98" type="line"/>
      <point x="450" y="305" type="line"/>
      <point x="450" y="345" type="line"/>
      <point x="68" y="562" type="line"/>
      <point x="68" y="491" type="line"/>
      <point x="368" y="325" type="line"/>
      <point x="66" y="169" type="line"/>
    </contour>
  </outline>
</glyph>
<glyph name="lozenge" format="1">
  <advance width="505"/>
  <unicode hex="25CA"/>
  <outline>
    <contour>
      <point x="389" y="326" type="curve"/>
      <point x="365" y="281"/>
      <point x="277" y="106"/>
      <point x="252" y="60" type="curve"/>
      <point x="228" y="105"/>
      <point x="141" y="281"/>
      <point x="117" y="327" type="curve"/>
      <point x="141" y="372"/>
      <point x="231" y="546"/>
      <point x="256" y="591" type="curve"/>
      <point x="279" y="545"/>
      <point x="366" y="371"/>
    </contour>
    <contour>
      <point x="231" y="673" type="line"/>
      <point x="49" y="326" type="line"/>
      <point x="228" y="-20" type="line"/>
      <point x="275" y="-20" type="line"/>
      <point x="458" y="326" type="line"/>
      <point x="279" y="673" type="line"/>
    </contour>
  </outline>
</glyph>
<glyph name="uniE0FF" format="1">
  <advance width="1000"/>
  <unicode hex="E0FF"/>
  <outline>
    <contour>
      <point x="368" y="458" type="line"/>
      <point x="576" y="458" type="line"/>
      <point x="576" y="372" type="line"/>
      <point x="368" y="372" type="line"/>
    </contour>
  </outline>
</glyph>
<glyph name="uniEFFD" format="1">
  <advance width="1000"/>
  <unicode hex="EFFD"/>
  <outline>
    <contour>
      <point x="368" y="458" type="line"/>
      <point x="576" y="458" type="line"/>
      <point x="576" y="372" type="line"/>
      <point x="368" y="372" type="line"/>
    </contour>
  </outline>
</glyph>
<glyph name="uniF000" format="1">
  <advance width="1000"/>
  <unicode hex="F000"/>
  <outline>
    <contour>
      <point x="368" y="458" type="line"/>
      <point x="576" y="458" type="line"/>
      <point x="576" y="372" type="line"/>
      <point x="368" y="372" type="line"/>
    </contour>
  </outline>
</glyph>
<glyph name="caron.alt" format="1">
  <advance width="304"/>
  <outline>
    <contour>
      <point x="188" y="494" type="line"/>
      <point x="251" y="494" type="line"/>
      <point x="284" y="664" type="line"/>
      <point x="200" y="664" type="line"/>
    </contour>
    <contour>
      <point x="76" y="464" type="move" name="_caron.alt"/>
    </contour>
  </outline>
</glyph>
<glyph name="foundryicon" format="1">
  <advance width="577"/>
  <outline>
    <contour>
      <point x="120" y="1" type="line"/>
      <point x="287" y="120" type="line"/>
      <point x="458" y="1" type="line"/>
      <point x="396" y="198" type="line"/>
      <point x="563" y="324" type="line"/>
      <point x="355" y="324" type="line"/>
      <point x="287" y="521" type="line"/>
      <point x="222" y="324" type="line"/>
      <point x="15" y="324" type="line"/>
      <point x="182" y="198" type="line"/>
    </contour>
    <contour>
      <point x="208" y="174" type="line"/>
      <point x="208" y="288" type="line"/>
      <point x="254" y="288" type="line"/>
      <point x="327" y="224" type="line"/>
      <point x="327" y="288" type="line"/>
      <point x="372" y="288" type="line"/>
      <point x="372" y="174" type="line"/>
      <point x="327" y="174" type="line"/>
      <point x="254" y="237" type="line"/>
      <point x="254" y="174" type="line"/>
    </contour>
  </outline>
</glyph>
